<ttFont>
<head>
    <!-- Most of this table will be recalculated by the compiler -->
    <tableVersion value="1.0"/>
    <fontRevision value="1.002"/>
    <checkSumAdjustment value="0x22bfb809"/>
    <magicNumber value="0x5f0f3cf5"/>
    <flags value="00000000 00000011"/>
    <unitsPerEm value="1000"/>
    <created value="Thu Jan 14 20:43:30 2016"/>
    <modified value="Thu Jan 14 20:43:33 2016"/>
    <xMin value="-70"/>
    <yMin value="-371"/>
    <xMax value="717"/>
    <yMax value="1130"/>
    <macStyle value="00000000 00000010"/>
    <lowestRecPPEM value="6"/>
    <fontDirectionHint value="2"/>
    <indexToLocFormat value="0"/>
    <glyphDataFormat value="0"/>
  </head>
    <TTGlyph name=".notdef" xMin="-7" yMin="-200" xMax="548" yMax="800">
      <contour>
        <pt x="8" y="-200" on="1"/>
        <pt x="-7" y="800" on="1"/>
        <pt x="533" y="800" on="1"/>
        <pt x="548" y="-200" on="1"/>
      </contour>
      <contour>
        <pt x="70" y="750" on="1"/>
        <pt x="269" y="360" on="1"/>
        <pt x="457" y="750" on="1"/>
      </contour>
      <contour>
        <pt x="481" y="676" on="1"/>
        <pt x="301" y="300" on="1"/>
        <pt x="492" y="-76" on="1"/>
      </contour>
      <contour>
        <pt x="60" y="-76" on="1"/>
        <pt x="240" y="300" on="1"/>
        <pt x="49" y="676" on="1"/>
      </contour>
      <contour>
        <pt x="271" y="240" on="1"/>
        <pt x="84" y="-150" on="1"/>
        <pt x="471" y="-150" on="1"/>
      </contour>
    </TTGlyph>
    <TTGlyph name="A" xMin="-3" yMin="-3" xMax="470" yMax="622">
      <contour>
        <pt x="390" y="-3" on="1"/>
        <pt x="386" y="45" on="0"/>
        <pt x="380" y="141" on="0"/>
        <pt x="376" y="189" on="1"/>
        <pt x="165" y="189" on="1"/>
        <pt x="143" y="142" on="0"/>
        <pt x="100" y="47" on="0"/>
        <pt x="79" y="0" on="1"/>
        <pt x="-3" y="0" on="1"/>
        <pt x="68" y="154" on="0"/>
        <pt x="219" y="468" on="0"/>
        <pt x="297" y="622" on="1"/>
        <pt x="411" y="622" on="1"/>
        <pt x="427" y="468" on="0"/>
        <pt x="457" y="157" on="0"/>
        <pt x="470" y="3" on="1"/>
      </contour>
      <contour>
        <pt x="337" y="551" on="1"/>
        <pt x="300" y="477" on="0"/>
        <pt x="229" y="326" on="0"/>
        <pt x="194" y="251" on="1"/>
        <pt x="371" y="251" on="1"/>
        <pt x="365" y="326" on="0"/>
        <pt x="351" y="477" on="0"/>
        <pt x="344" y="551" on="1"/>
      </contour>
    </TTGlyph>
    <TTGlyph name="AE" xMin="-21" yMin="0" xMax="599" yMax="620">
      <contour>
        <pt x="339" y="552" on="1"/>
        <pt x="300" y="475" on="0"/>
        <pt x="222" y="320" on="0"/>
        <pt x="183" y="243" on="1"/>
        <pt x="288" y="243" on="1"/>
        <pt x="348" y="552" on="1"/>
      </contour>
      <contour>
        <pt x="241" y="0" on="1"/>
        <pt x="276" y="183" on="1"/>
        <pt x="153" y="183" on="1"/>
        <pt x="130" y="137" on="0"/>
        <pt x="84" y="46" on="0"/>
        <pt x="61" y="0" on="1"/>
        <pt x="-21" y="0" on="1"/>
        <pt x="59" y="153" on="0"/>
        <pt x="223" y="466" on="0"/>
        <pt x="305" y="620" on="1"/>
        <pt x="599" y="620" on="1"/>
        <pt x="586" y="552" on="1"/>
        <pt x="420" y="552" on="1"/>
        <pt x="379" y="342" on="1"/>
        <pt x="517" y="342" on="1"/>
        <pt x="506" y="285" on="1"/>
        <pt x="368" y="285" on="1"/>
        <pt x="325" y="68" on="1"/>
        <pt x="495" y="68" on="1"/>
        <pt x="477" y="0" on="1"/>
      </contour>
    </TTGlyph>
    <TTGlyph name="AEacute" xMin="-21" yMin="0" xMax="611" yMax="892">
      <contour>
        <pt x="340" y="723" on="1"/>
        <pt x="364" y="738" on="0"/>
        <pt x="422" y="778" on="0"/>
        <pt x="480" y="824" on="0"/>
        <pt x="535" y="871" on="0"/>
        <pt x="556" y="892" on="1"/>
        <pt x="611" y="829" on="1"/>
        <pt x="586" y="810" on="0"/>
        <pt x="521" y="770" on="0"/>
        <pt x="452" y="733" on="0"/>
        <pt x="384" y="700" on="0"/>
        <pt x="356" y="688" on="1"/>
      </contour>
      <contour>
        <pt x="339" y="552" on="1"/>
        <pt x="300" y="475" on="0"/>
        <pt x="222" y="320" on="0"/>
        <pt x="183" y="243" on="1"/>
        <pt x="288" y="243" on="1"/>
        <pt x="348" y="552" on="1"/>
      </contour>
      <contour>
        <pt x="241" y="0" on="1"/>
        <pt x="276" y="183" on="1"/>
        <pt x="153" y="183" on="1"/>
        <pt x="130" y="137" on="0"/>
        <pt x="84" y="46" on="0"/>
        <pt x="61" y="0" on="1"/>
        <pt x="-21" y="0" on="1"/>
        <pt x="59" y="153" on="0"/>
        <pt x="223" y="466" on="0"/>
        <pt x="305" y="620" on="1"/>
        <pt x="599" y="620" on="1"/>
        <pt x="586" y="552" on="1"/>
        <pt x="420" y="552" on="1"/>
        <pt x="379" y="342" on="1"/>
        <pt x="517" y="342" on="1"/>
        <pt x="506" y="285" on="1"/>
        <pt x="368" y="285" on="1"/>
        <pt x="325" y="68" on="1"/>
        <pt x="495" y="68" on="1"/>
        <pt x="477" y="0" on="1"/>
      </contour>
    </TTGlyph>
    <TTGlyph name="Aacute" xMin="-3" yMin="-3" xMax="519" yMax="894">
      <contour>
        <pt x="248" y="725" on="1"/>
        <pt x="272" y="740" on="0"/>
        <pt x="330" y="780" on="0"/>
        <pt x="388" y="826" on="0"/>
        <pt x="443" y="873" on="0"/>
        <pt x="464" y="894" on="1"/>
        <pt x="519" y="831" on="1"/>
        <pt x="494" y="812" on="0"/>
        <pt x="429" y="772" on="0"/>
        <pt x="360" y="735" on="0"/>
        <pt x="292" y="702" on="0"/>
        <pt x="264" y="690" on="1"/>
      </contour>
      <contour>
        <pt x="390" y="-3" on="1"/>
        <pt x="386" y="45" on="0"/>
        <pt x="380" y="141" on="0"/>
        <pt x="376" y="189" on="1"/>
        <pt x="165" y="189" on="1"/>
        <pt x="143" y="142" on="0"/>
        <pt x="100" y="47" on="0"/>
        <pt x="79" y="0" on="1"/>
        <pt x="-3" y="0" on="1"/>
        <pt x="68" y="154" on="0"/>
        <pt x="219" y="468" on="0"/>
        <pt x="297" y="622" on="1"/>
        <pt x="411" y="622" on="1"/>
        <pt x="427" y="468" on="0"/>
        <pt x="457" y="157" on="0"/>
        <pt x="470" y="3" on="1"/>
      </contour>
      <contour>
        <pt x="337" y="551" on="1"/>
        <pt x="300" y="477" on="0"/>
        <pt x="229" y="326" on="0"/>
        <pt x="194" y="251" on="1"/>
        <pt x="371" y="251" on="1"/>
        <pt x="365" y="326" on="0"/>
        <pt x="351" y="477" on="0"/>
        <pt x="344" y="551" on="1"/>
      </contour>
    </TTGlyph>
    <TTGlyph name="Abreve" xMin="-3" yMin="-3" xMax="582" yMax="874">
      <contour>
        <pt x="537" y="869" on="1"/>
        <pt x="582" y="841" on="1"/>
        <pt x="531" y="773" on="0"/>
        <pt x="423" y="697" on="0"/>
        <pt x="370" y="697" on="1"/>
        <pt x="319" y="697" on="0"/>
        <pt x="239" y="769" on="0"/>
        <pt x="211" y="843" on="1"/>
        <pt x="271" y="874" on="1"/>
        <pt x="296" y="813" on="0"/>
        <pt x="349" y="760" on="0"/>
        <pt x="386" y="760" on="1"/>
        <pt x="425" y="760" on="0"/>
        <pt x="495" y="818" on="0"/>
      </contour>
      <contour>
        <pt x="390" y="-3" on="1"/>
        <pt x="386" y="45" on="0"/>
        <pt x="380" y="141" on="0"/>
        <pt x="376" y="189" on="1"/>
        <pt x="165" y="189" on="1"/>
        <pt x="143" y="142" on="0"/>
        <pt x="100" y="47" on="0"/>
        <pt x="79" y="0" on="1"/>
        <pt x="-3" y="0" on="1"/>
        <pt x="68" y="154" on="0"/>
        <pt x="219" y="468" on="0"/>
        <pt x="297" y="622" on="1"/>
        <pt x="411" y="622" on="1"/>
        <pt x="427" y="468" on="0"/>
        <pt x="457" y="157" on="0"/>
        <pt x="470" y="3" on="1"/>
      </contour>
      <contour>
        <pt x="337" y="551" on="1"/>
        <pt x="300" y="477" on="0"/>
        <pt x="229" y="326" on="0"/>
        <pt x="194" y="251" on="1"/>
        <pt x="371" y="251" on="1"/>
        <pt x="365" y="326" on="0"/>
        <pt x="351" y="477" on="0"/>
        <pt x="344" y="551" on="1"/>
      </contour>
    </TTGlyph>
    <TTGlyph name="Acircumflex" xMin="-3" yMin="-3" xMax="550" yMax="882">
      <contour>
        <pt x="496" y="690" on="1"/>
        <pt x="395" y="805" on="1"/>
        <pt x="237" y="694" on="1"/>
        <pt x="202" y="735" on="1"/>
        <pt x="407" y="882" on="1"/>
        <pt x="411" y="882" on="1"/>
        <pt x="550" y="732" on="1"/>
      </contour>
      <contour>
        <pt x="390" y="-3" on="1"/>
        <pt x="386" y="45" on="0"/>
        <pt x="380" y="141" on="0"/>
        <pt x="376" y="189" on="1"/>
        <pt x="165" y="189" on="1"/>
        <pt x="143" y="142" on="0"/>
        <pt x="100" y="47" on="0"/>
        <pt x="79" y="0" on="1"/>
        <pt x="-3" y="0" on="1"/>
        <pt x="68" y="154" on="0"/>
        <pt x="219" y="468" on="0"/>
        <pt x="297" y="622" on="1"/>
        <pt x="411" y="622" on="1"/>
        <pt x="427" y="468" on="0"/>
        <pt x="457" y="157" on="0"/>
        <pt x="470" y="3" on="1"/>
      </contour>
      <contour>
        <pt x="337" y="551" on="1"/>
        <pt x="300" y="477" on="0"/>
        <pt x="229" y="326" on="0"/>
        <pt x="194" y="251" on="1"/>
        <pt x="371" y="251" on="1"/>
        <pt x="365" y="326" on="0"/>
        <pt x="351" y="477" on="0"/>
        <pt x="344" y="551" on="1"/>
      </contour>
    </TTGlyph>
    <TTGlyph name="Adieresis" xMin="-3" yMin="-3" xMax="550" yMax="838">
      <contour>
        <pt x="510" y="705" on="1"/>
        <pt x="429" y="704" on="1"/>
        <pt x="460" y="836" on="1"/>
        <pt x="550" y="838" on="1"/>
      </contour>
      <contour>
        <pt x="295" y="703" on="1"/>
        <pt x="214" y="702" on="1"/>
        <pt x="246" y="834" on="1"/>
        <pt x="335" y="835" on="1"/>
      </contour>
      <contour>
        <pt x="390" y="-3" on="1"/>
        <pt x="386" y="45" on="0"/>
        <pt x="380" y="141" on="0"/>
        <pt x="376" y="189" on="1"/>
        <pt x="165" y="189" on="1"/>
        <pt x="143" y="142" on="0"/>
        <pt x="100" y="47" on="0"/>
        <pt x="79" y="0" on="1"/>
        <pt x="-3" y="0" on="1"/>
        <pt x="68" y="154" on="0"/>
        <pt x="219" y="468" on="0"/>
        <pt x="297" y="622" on="1"/>
        <pt x="411" y="622" on="1"/>
        <pt x="427" y="468" on="0"/>
        <pt x="457" y="157" on="0"/>
        <pt x="470" y="3" on="1"/>
      </contour>
      <contour>
        <pt x="337" y="551" on="1"/>
        <pt x="300" y="477" on="0"/>
        <pt x="229" y="326" on="0"/>
        <pt x="194" y="251" on="1"/>
        <pt x="371" y="251" on="1"/>
        <pt x="365" y="326" on="0"/>
        <pt x="351" y="477" on="0"/>
        <pt x="344" y="551" on="1"/>
      </contour>
    </TTGlyph>
    <TTGlyph name="Agrave" xMin="-3" yMin="-3" xMax="489" yMax="899">
      <contour>
        <pt x="489" y="717" on="1"/>
        <pt x="469" y="684" on="1"/>
        <pt x="445" y="696" on="0"/>
        <pt x="387" y="732" on="0"/>
        <pt x="327" y="774" on="0"/>
        <pt x="271" y="817" on="0"/>
        <pt x="249" y="837" on="1"/>
        <pt x="302" y="899" on="1"/>
        <pt x="339" y="855" on="0"/>
        <pt x="446" y="750" on="0"/>
      </contour>
      <contour>
        <pt x="390" y="-3" on="1"/>
        <pt x="386" y="45" on="0"/>
        <pt x="380" y="141" on="0"/>
        <pt x="376" y="189" on="1"/>
        <pt x="165" y="189" on="1"/>
        <pt x="143" y="142" on="0"/>
        <pt x="100" y="47" on="0"/>
        <pt x="79" y="0" on="1"/>
        <pt x="-3" y="0" on="1"/>
        <pt x="68" y="154" on="0"/>
        <pt x="219" y="468" on="0"/>
        <pt x="297" y="622" on="1"/>
        <pt x="411" y="622" on="1"/>
        <pt x="427" y="468" on="0"/>
        <pt x="457" y="157" on="0"/>
        <pt x="470" y="3" on="1"/>
      </contour>
      <contour>
        <pt x="337" y="551" on="1"/>
        <pt x="300" y="477" on="0"/>
        <pt x="229" y="326" on="0"/>
        <pt x="194" y="251" on="1"/>
        <pt x="371" y="251" on="1"/>
        <pt x="365" y="326" on="0"/>
        <pt x="351" y="477" on="0"/>
        <pt x="344" y="551" on="1"/>
      </contour>
    </TTGlyph>
    <TTGlyph name="Amacron" xMin="-3" yMin="-3" xMax="555" yMax="805">
      <contour>
        <pt x="555" y="805" on="1"/>
        <pt x="542" y="739" on="1"/>
        <pt x="212" y="739" on="1"/>
        <pt x="225" y="805" on="1"/>
      </contour>
      <contour>
        <pt x="390" y="-3" on="1"/>
        <pt x="386" y="45" on="0"/>
        <pt x="380" y="141" on="0"/>
        <pt x="376" y="189" on="1"/>
        <pt x="165" y="189" on="1"/>
        <pt x="143" y="142" on="0"/>
        <pt x="100" y="47" on="0"/>
        <pt x="79" y="0" on="1"/>
        <pt x="-3" y="0" on="1"/>
        <pt x="68" y="154" on="0"/>
        <pt x="219" y="468" on="0"/>
        <pt x="297" y="622" on="1"/>
        <pt x="411" y="622" on="1"/>
        <pt x="427" y="468" on="0"/>
        <pt x="457" y="157" on="0"/>
        <pt x="470" y="3" on="1"/>
      </contour>
      <contour>
        <pt x="337" y="551" on="1"/>
        <pt x="300" y="477" on="0"/>
        <pt x="229" y="326" on="0"/>
        <pt x="194" y="251" on="1"/>
        <pt x="371" y="251" on="1"/>
        <pt x="365" y="326" on="0"/>
        <pt x="351" y="477" on="0"/>
        <pt x="344" y="551" on="1"/>
      </contour>
    </TTGlyph>
    <TTGlyph name="Aogonek" xMin="-3" yMin="-209" xMax="470" yMax="622">
      <contour>
        <pt x="299" y="-209" on="1"/>
        <pt x="257" y="-209" on="0"/>
        <pt x="213" y="-169" on="0"/>
        <pt x="213" y="-141" on="1"/>
        <pt x="213" y="-140" on="1"/>
        <pt x="213" y="-105" on="0"/>
        <pt x="296" y="-25" on="0"/>
        <pt x="389" y="13" on="1"/>
        <pt x="386" y="56" on="0"/>
        <pt x="379" y="145" on="0"/>
        <pt x="376" y="189" on="1"/>
        <pt x="165" y="189" on="1"/>
        <pt x="143" y="142" on="0"/>
        <pt x="100" y="47" on="0"/>
        <pt x="79" y="0" on="1"/>
        <pt x="-3" y="0" on="1"/>
        <pt x="68" y="154" on="0"/>
        <pt x="219" y="468" on="0"/>
        <pt x="297" y="622" on="1"/>
        <pt x="411" y="622" on="1"/>
        <pt x="427" y="468" on="0"/>
        <pt x="457" y="157" on="0"/>
        <pt x="470" y="3" on="1"/>
        <pt x="371" y="-29" on="0"/>
        <pt x="286" y="-93" on="0"/>
        <pt x="286" y="-119" on="1"/>
        <pt x="286" y="-134" on="0"/>
        <pt x="309" y="-152" on="0"/>
        <pt x="334" y="-152" on="1"/>
        <pt x="350" y="-152" on="0"/>
        <pt x="399" y="-142" on="0"/>
        <pt x="430" y="-130" on="1"/>
        <pt x="440" y="-167" on="1"/>
        <pt x="397" y="-189" on="0"/>
        <pt x="326" y="-209" on="0"/>
      </contour>
      <contour>
        <pt x="337" y="551" on="1"/>
        <pt x="300" y="477" on="0"/>
        <pt x="229" y="326" on="0"/>
        <pt x="194" y="251" on="1"/>
        <pt x="371" y="251" on="1"/>
        <pt x="365" y="326" on="0"/>
        <pt x="351" y="477" on="0"/>
        <pt x="344" y="551" on="1"/>
      </contour>
    </TTGlyph>
    <TTGlyph name="Aring" xMin="-3" yMin="-3" xMax="518" yMax="889">
      <contour>
        <pt x="393" y="889" on="1"/>
        <pt x="448" y="889" on="0"/>
        <pt x="518" y="831" on="0"/>
        <pt x="518" y="791" on="1"/>
        <pt x="518" y="746" on="0"/>
        <pt x="438" y="679" on="0"/>
        <pt x="378" y="679" on="1"/>
        <pt x="323" y="679" on="0"/>
        <pt x="253" y="737" on="0"/>
        <pt x="253" y="778" on="1"/>
        <pt x="253" y="824" on="0"/>
        <pt x="333" y="889" on="0"/>
      </contour>
      <contour>
        <pt x="390" y="-3" on="1"/>
        <pt x="386" y="45" on="0"/>
        <pt x="380" y="141" on="0"/>
        <pt x="376" y="189" on="1"/>
        <pt x="165" y="189" on="1"/>
        <pt x="143" y="142" on="0"/>
        <pt x="100" y="47" on="0"/>
        <pt x="79" y="0" on="1"/>
        <pt x="-3" y="0" on="1"/>
        <pt x="68" y="154" on="0"/>
        <pt x="219" y="468" on="0"/>
        <pt x="297" y="622" on="1"/>
        <pt x="411" y="622" on="1"/>
        <pt x="427" y="468" on="0"/>
        <pt x="457" y="157" on="0"/>
        <pt x="470" y="3" on="1"/>
      </contour>
      <contour>
        <pt x="337" y="551" on="1"/>
        <pt x="300" y="477" on="0"/>
        <pt x="229" y="326" on="0"/>
        <pt x="194" y="251" on="1"/>
        <pt x="371" y="251" on="1"/>
        <pt x="365" y="326" on="0"/>
        <pt x="351" y="477" on="0"/>
        <pt x="344" y="551" on="1"/>
      </contour>
    </TTGlyph>
    <TTGlyph name="Aringacute" xMin="-3" yMin="-3" xMax="579" yMax="1130">
      <contour>
        <pt x="308" y="961" on="1"/>
        <pt x="332" y="976" on="0"/>
        <pt x="390" y="1016" on="0"/>
        <pt x="448" y="1062" on="0"/>
        <pt x="503" y="1109" on="0"/>
        <pt x="524" y="1130" on="1"/>
        <pt x="579" y="1067" on="1"/>
        <pt x="554" y="1048" on="0"/>
        <pt x="489" y="1008" on="0"/>
        <pt x="420" y="971" on="0"/>
        <pt x="352" y="938" on="0"/>
        <pt x="324" y="926" on="1"/>
      </contour>
      <contour>
        <pt x="393" y="889" on="1"/>
        <pt x="448" y="889" on="0"/>
        <pt x="518" y="831" on="0"/>
        <pt x="518" y="791" on="1"/>
        <pt x="518" y="746" on="0"/>
        <pt x="438" y="679" on="0"/>
        <pt x="378" y="679" on="1"/>
        <pt x="323" y="679" on="0"/>
        <pt x="253" y="737" on="0"/>
        <pt x="253" y="778" on="1"/>
        <pt x="253" y="824" on="0"/>
        <pt x="333" y="889" on="0"/>
      </contour>
      <contour>
        <pt x="390" y="-3" on="1"/>
        <pt x="386" y="45" on="0"/>
        <pt x="380" y="141" on="0"/>
        <pt x="376" y="189" on="1"/>
        <pt x="165" y="189" on="1"/>
        <pt x="143" y="142" on="0"/>
        <pt x="100" y="47" on="0"/>
        <pt x="79" y="0" on="1"/>
        <pt x="-3" y="0" on="1"/>
        <pt x="68" y="154" on="0"/>
        <pt x="219" y="468" on="0"/>
        <pt x="297" y="622" on="1"/>
        <pt x="411" y="622" on="1"/>
        <pt x="427" y="468" on="0"/>
        <pt x="457" y="157" on="0"/>
        <pt x="470" y="3" on="1"/>
      </contour>
      <contour>
        <pt x="337" y="551" on="1"/>
        <pt x="300" y="477" on="0"/>
        <pt x="229" y="326" on="0"/>
        <pt x="194" y="251" on="1"/>
        <pt x="371" y="251" on="1"/>
        <pt x="365" y="326" on="0"/>
        <pt x="351" y="477" on="0"/>
        <pt x="344" y="551" on="1"/>
      </contour>
    </TTGlyph>
    <TTGlyph name="Atilde" xMin="-3" yMin="-3" xMax="593" yMax="863">
      <contour>
        <pt x="459" y="760" on="1"/>
        <pt x="479" y="760" on="0"/>
        <pt x="526" y="817" on="0"/>
        <pt x="553" y="860" on="1"/>
        <pt x="593" y="836" on="1"/>
        <pt x="556" y="773" on="0"/>
        <pt x="481" y="700" on="0"/>
        <pt x="443" y="700" on="1"/>
        <pt x="418" y="700" on="0"/>
        <pt x="382" y="732" on="0"/>
        <pt x="353" y="770" on="0"/>
        <pt x="326" y="802" on="0"/>
        <pt x="310" y="802" on="1"/>
        <pt x="290" y="802" on="0"/>
        <pt x="244" y="750" on="0"/>
        <pt x="216" y="707" on="1"/>
        <pt x="176" y="730" on="1"/>
        <pt x="213" y="793" on="0"/>
        <pt x="289" y="863" on="0"/>
        <pt x="326" y="863" on="1"/>
        <pt x="351" y="863" on="0"/>
        <pt x="387" y="831" on="0"/>
        <pt x="416" y="792" on="0"/>
        <pt x="443" y="760" on="0"/>
      </contour>
      <contour>
        <pt x="390" y="-3" on="1"/>
        <pt x="386" y="45" on="0"/>
        <pt x="380" y="141" on="0"/>
        <pt x="376" y="189" on="1"/>
        <pt x="165" y="189" on="1"/>
        <pt x="143" y="142" on="0"/>
        <pt x="100" y="47" on="0"/>
        <pt x="79" y="0" on="1"/>
        <pt x="-3" y="0" on="1"/>
        <pt x="68" y="154" on="0"/>
        <pt x="219" y="468" on="0"/>
        <pt x="297" y="622" on="1"/>
        <pt x="411" y="622" on="1"/>
        <pt x="427" y="468" on="0"/>
        <pt x="457" y="157" on="0"/>
        <pt x="470" y="3" on="1"/>
      </contour>
      <contour>
        <pt x="337" y="551" on="1"/>
        <pt x="300" y="477" on="0"/>
        <pt x="229" y="326" on="0"/>
        <pt x="194" y="251" on="1"/>
        <pt x="371" y="251" on="1"/>
        <pt x="365" y="326" on="0"/>
        <pt x="351" y="477" on="0"/>
        <pt x="344" y="551" on="1"/>
      </contour>
    </TTGlyph>
    <TTGlyph name="B" xMin="50" yMin="-7" xMax="519" yMax="628">
      <contour>
        <pt x="168" y="-7" on="1"/>
        <pt x="141" y="-7" on="0"/>
        <pt x="82" y="-4" on="0"/>
        <pt x="50" y="0" on="1"/>
        <pt x="170" y="618" on="1"/>
        <pt x="204" y="623" on="0"/>
        <pt x="266" y="628" on="0"/>
        <pt x="293" y="628" on="1"/>
        <pt x="411" y="628" on="0"/>
        <pt x="519" y="548" on="0"/>
        <pt x="519" y="491" on="1"/>
        <pt x="519" y="434" on="0"/>
        <pt x="433" y="343" on="0"/>
        <pt x="359" y="320" on="1"/>
        <pt x="417" y="308" on="0"/>
        <pt x="488" y="237" on="0"/>
        <pt x="488" y="188" on="1"/>
        <pt x="488" y="152" on="0"/>
        <pt x="453" y="81" on="0"/>
        <pt x="377" y="27" on="0"/>
        <pt x="255" y="-7" on="0"/>
      </contour>
      <contour>
        <pt x="294" y="562" on="1"/>
        <pt x="281" y="562" on="0"/>
        <pt x="254" y="560" on="0"/>
        <pt x="239" y="559" on="1"/>
        <pt x="195" y="334" on="1"/>
        <pt x="324" y="340" on="0"/>
        <pt x="440" y="422" on="0"/>
        <pt x="440" y="473" on="1"/>
        <pt x="440" y="513" on="0"/>
        <pt x="368" y="562" on="0"/>
      </contour>
      <contour>
        <pt x="211" y="62" on="1"/>
        <pt x="312" y="62" on="0"/>
        <pt x="409" y="133" on="0"/>
        <pt x="409" y="182" on="1"/>
        <pt x="409" y="228" on="0"/>
        <pt x="322" y="287" on="0"/>
        <pt x="226" y="287" on="1"/>
        <pt x="217" y="287" on="0"/>
        <pt x="196" y="286" on="0"/>
        <pt x="186" y="285" on="1"/>
        <pt x="144" y="66" on="1"/>
        <pt x="162" y="64" on="0"/>
        <pt x="195" y="62" on="0"/>
      </contour>
    </TTGlyph>
    <TTGlyph name="C" xMin="65" yMin="-13" xMax="518" yMax="633">
      <contour>
        <pt x="377" y="633" on="1"/>
        <pt x="455" y="633" on="0"/>
        <pt x="518" y="535" on="0"/>
        <pt x="518" y="439" on="1"/>
        <pt x="518" y="430" on="0"/>
        <pt x="518" y="412" on="0"/>
        <pt x="517" y="402" on="1"/>
        <pt x="441" y="401" on="1"/>
        <pt x="441" y="422" on="1"/>
        <pt x="441" y="491" on="0"/>
        <pt x="410" y="561" on="0"/>
        <pt x="361" y="561" on="1"/>
        <pt x="315" y="561" on="0"/>
        <pt x="236" y="503" on="0"/>
        <pt x="179" y="412" on="0"/>
        <pt x="146" y="295" on="0"/>
        <pt x="146" y="237" on="1"/>
        <pt x="146" y="149" on="0"/>
        <pt x="223" y="60" on="0"/>
        <pt x="298" y="60" on="1"/>
        <pt x="332" y="60" on="0"/>
        <pt x="413" y="78" on="0"/>
        <pt x="460" y="95" on="1"/>
        <pt x="452" y="22" on="1"/>
        <pt x="403" y="5" on="0"/>
        <pt x="315" y="-13" on="0"/>
        <pt x="277" y="-13" on="1"/>
        <pt x="176" y="-13" on="0"/>
        <pt x="65" y="109" on="0"/>
        <pt x="65" y="223" on="1"/>
        <pt x="65" y="302" on="0"/>
        <pt x="114" y="451" on="0"/>
        <pt x="198" y="564" on="0"/>
        <pt x="312" y="633" on="0"/>
      </contour>
    </TTGlyph>
    <TTGlyph name="Cacute" xMin="65" yMin="-13" xMax="526" yMax="905">
      <contour>
        <pt x="255" y="736" on="1"/>
        <pt x="279" y="751" on="0"/>
        <pt x="337" y="791" on="0"/>
        <pt x="395" y="837" on="0"/>
        <pt x="450" y="884" on="0"/>
        <pt x="471" y="905" on="1"/>
        <pt x="526" y="842" on="1"/>
        <pt x="501" y="823" on="0"/>
        <pt x="436" y="783" on="0"/>
        <pt x="367" y="746" on="0"/>
        <pt x="299" y="713" on="0"/>
        <pt x="271" y="701" on="1"/>
      </contour>
      <contour>
        <pt x="377" y="633" on="1"/>
        <pt x="455" y="633" on="0"/>
        <pt x="518" y="535" on="0"/>
        <pt x="518" y="439" on="1"/>
        <pt x="518" y="430" on="0"/>
        <pt x="518" y="412" on="0"/>
        <pt x="517" y="402" on="1"/>
        <pt x="441" y="401" on="1"/>
        <pt x="441" y="422" on="1"/>
        <pt x="441" y="491" on="0"/>
        <pt x="410" y="561" on="0"/>
        <pt x="361" y="561" on="1"/>
        <pt x="315" y="561" on="0"/>
        <pt x="236" y="503" on="0"/>
        <pt x="179" y="412" on="0"/>
        <pt x="146" y="295" on="0"/>
        <pt x="146" y="237" on="1"/>
        <pt x="146" y="149" on="0"/>
        <pt x="223" y="60" on="0"/>
        <pt x="298" y="60" on="1"/>
        <pt x="332" y="60" on="0"/>
        <pt x="413" y="78" on="0"/>
        <pt x="460" y="95" on="1"/>
        <pt x="452" y="22" on="1"/>
        <pt x="403" y="5" on="0"/>
        <pt x="315" y="-13" on="0"/>
        <pt x="277" y="-13" on="1"/>
        <pt x="176" y="-13" on="0"/>
        <pt x="65" y="109" on="0"/>
        <pt x="65" y="223" on="1"/>
        <pt x="65" y="302" on="0"/>
        <pt x="114" y="451" on="0"/>
        <pt x="198" y="564" on="0"/>
        <pt x="312" y="633" on="0"/>
      </contour>
    </TTGlyph>
    <TTGlyph name="Ccaron" xMin="65" yMin="-13" xMax="576" yMax="890">
      <contour>
        <pt x="371" y="698" on="1"/>
        <pt x="367" y="698" on="1"/>
        <pt x="227" y="848" on="1"/>
        <pt x="281" y="890" on="1"/>
        <pt x="383" y="774" on="1"/>
        <pt x="540" y="886" on="1"/>
        <pt x="576" y="844" on="1"/>
      </contour>
      <contour>
        <pt x="377" y="633" on="1"/>
        <pt x="455" y="633" on="0"/>
        <pt x="518" y="535" on="0"/>
        <pt x="518" y="439" on="1"/>
        <pt x="518" y="430" on="0"/>
        <pt x="518" y="412" on="0"/>
        <pt x="517" y="402" on="1"/>
        <pt x="441" y="401" on="1"/>
        <pt x="441" y="422" on="1"/>
        <pt x="441" y="491" on="0"/>
        <pt x="410" y="561" on="0"/>
        <pt x="361" y="561" on="1"/>
        <pt x="315" y="561" on="0"/>
        <pt x="236" y="503" on="0"/>
        <pt x="179" y="412" on="0"/>
        <pt x="146" y="295" on="0"/>
        <pt x="146" y="237" on="1"/>
        <pt x="146" y="149" on="0"/>
        <pt x="223" y="60" on="0"/>
        <pt x="298" y="60" on="1"/>
        <pt x="332" y="60" on="0"/>
        <pt x="413" y="78" on="0"/>
        <pt x="460" y="95" on="1"/>
        <pt x="452" y="22" on="1"/>
        <pt x="403" y="5" on="0"/>
        <pt x="315" y="-13" on="0"/>
        <pt x="277" y="-13" on="1"/>
        <pt x="176" y="-13" on="0"/>
        <pt x="65" y="109" on="0"/>
        <pt x="65" y="223" on="1"/>
        <pt x="65" y="302" on="0"/>
        <pt x="114" y="451" on="0"/>
        <pt x="198" y="564" on="0"/>
        <pt x="312" y="633" on="0"/>
      </contour>
    </TTGlyph>
    <TTGlyph name="Ccedilla" xMin="65" yMin="-183" xMax="518" yMax="633">
      <contour>
        <pt x="352" y="-181" on="1"/>
        <pt x="282" y="-183" on="1"/>
        <pt x="283" y="-175" on="0"/>
        <pt x="283" y="-161" on="0"/>
        <pt x="283" y="-154" on="1"/>
        <pt x="283" y="-99" on="0"/>
        <pt x="254" y="-51" on="0"/>
        <pt x="232" y="-51" on="1"/>
        <pt x="207" y="-51" on="0"/>
        <pt x="160" y="-106" on="0"/>
        <pt x="136" y="-155" on="1"/>
        <pt x="94" y="-142" on="1"/>
        <pt x="117" y="-85" on="0"/>
        <pt x="170" y="-15" on="0"/>
        <pt x="199" y="-2" on="1"/>
        <pt x="134" y="18" on="0"/>
        <pt x="65" y="133" on="0"/>
        <pt x="65" y="223" on="1"/>
        <pt x="65" y="302" on="0"/>
        <pt x="114" y="451" on="0"/>
        <pt x="198" y="564" on="0"/>
        <pt x="312" y="633" on="0"/>
        <pt x="377" y="633" on="1"/>
        <pt x="455" y="633" on="0"/>
        <pt x="518" y="535" on="0"/>
        <pt x="518" y="439" on="1"/>
        <pt x="518" y="430" on="0"/>
        <pt x="518" y="412" on="0"/>
        <pt x="517" y="402" on="1"/>
        <pt x="441" y="401" on="1"/>
        <pt x="441" y="422" on="1"/>
        <pt x="441" y="491" on="0"/>
        <pt x="410" y="561" on="0"/>
        <pt x="361" y="561" on="1"/>
        <pt x="315" y="561" on="0"/>
        <pt x="236" y="503" on="0"/>
        <pt x="179" y="412" on="0"/>
        <pt x="146" y="295" on="0"/>
        <pt x="146" y="237" on="1"/>
        <pt x="146" y="149" on="0"/>
        <pt x="223" y="60" on="0"/>
        <pt x="298" y="60" on="1"/>
        <pt x="332" y="60" on="0"/>
        <pt x="413" y="78" on="0"/>
        <pt x="460" y="95" on="1"/>
        <pt x="452" y="22" on="1"/>
        <pt x="410" y="7" on="0"/>
        <pt x="334" y="-10" on="0"/>
        <pt x="300" y="-12" on="1"/>
        <pt x="324" y="-30" on="0"/>
        <pt x="353" y="-102" on="0"/>
        <pt x="353" y="-156" on="1"/>
        <pt x="353" y="-162" on="0"/>
        <pt x="353" y="-174" on="0"/>
      </contour>
    </TTGlyph>
    <TTGlyph name="Cdotaccent" xMin="65" yMin="-13" xMax="518" yMax="847">
      <contour>
        <pt x="409" y="715" on="1"/>
        <pt x="327" y="714" on="1"/>
        <pt x="359" y="846" on="1"/>
        <pt x="450" y="847" on="1"/>
      </contour>
      <contour>
        <pt x="377" y="633" on="1"/>
        <pt x="455" y="633" on="0"/>
        <pt x="518" y="535" on="0"/>
        <pt x="518" y="439" on="1"/>
        <pt x="518" y="430" on="0"/>
        <pt x="518" y="412" on="0"/>
        <pt x="517" y="402" on="1"/>
        <pt x="441" y="401" on="1"/>
        <pt x="441" y="422" on="1"/>
        <pt x="441" y="491" on="0"/>
        <pt x="410" y="561" on="0"/>
        <pt x="361" y="561" on="1"/>
        <pt x="315" y="561" on="0"/>
        <pt x="236" y="503" on="0"/>
        <pt x="179" y="412" on="0"/>
        <pt x="146" y="295" on="0"/>
        <pt x="146" y="237" on="1"/>
        <pt x="146" y="149" on="0"/>
        <pt x="223" y="60" on="0"/>
        <pt x="298" y="60" on="1"/>
        <pt x="332" y="60" on="0"/>
        <pt x="413" y="78" on="0"/>
        <pt x="460" y="95" on="1"/>
        <pt x="452" y="22" on="1"/>
        <pt x="403" y="5" on="0"/>
        <pt x="315" y="-13" on="0"/>
        <pt x="277" y="-13" on="1"/>
        <pt x="176" y="-13" on="0"/>
        <pt x="65" y="109" on="0"/>
        <pt x="65" y="223" on="1"/>
        <pt x="65" y="302" on="0"/>
        <pt x="114" y="451" on="0"/>
        <pt x="198" y="564" on="0"/>
        <pt x="312" y="633" on="0"/>
      </contour>
    </TTGlyph>
    <TTGlyph name="D" xMin="43" yMin="-6" xMax="522" yMax="628">
      <contour>
        <pt x="522" y="384" on="1"/>
        <pt x="522" y="307" on="0"/>
        <pt x="476" y="165" on="0"/>
        <pt x="380" y="58" on="0"/>
        <pt x="232" y="-6" on="0"/>
        <pt x="131" y="-6" on="1"/>
        <pt x="110" y="-6" on="0"/>
        <pt x="66" y="-3" on="0"/>
        <pt x="43" y="0" on="1"/>
        <pt x="163" y="618" on="1"/>
        <pt x="192" y="622" on="0"/>
        <pt x="245" y="628" on="0"/>
        <pt x="270" y="628" on="1"/>
        <pt x="392" y="628" on="0"/>
        <pt x="522" y="505" on="0"/>
      </contour>
      <contour>
        <pt x="166" y="62" on="1"/>
        <pt x="235" y="62" on="0"/>
        <pt x="339" y="113" on="0"/>
        <pt x="407" y="199" on="0"/>
        <pt x="441" y="313" on="0"/>
        <pt x="441" y="375" on="1"/>
        <pt x="441" y="468" on="0"/>
        <pt x="355" y="559" on="0"/>
        <pt x="272" y="559" on="1"/>
        <pt x="262" y="559" on="0"/>
        <pt x="242" y="558" on="0"/>
        <pt x="232" y="557" on="1"/>
        <pt x="136" y="64" on="1"/>
        <pt x="143" y="63" on="0"/>
        <pt x="159" y="62" on="0"/>
      </contour>
    </TTGlyph>
    <TTGlyph name="Dcaron" xMin="43" yMin="-6" xMax="577" yMax="885">
      <contour>
        <pt x="372" y="693" on="1"/>
        <pt x="368" y="693" on="1"/>
        <pt x="228" y="843" on="1"/>
        <pt x="282" y="885" on="1"/>
        <pt x="384" y="769" on="1"/>
        <pt x="541" y="881" on="1"/>
        <pt x="577" y="839" on="1"/>
      </contour>
      <contour>
        <pt x="522" y="384" on="1"/>
        <pt x="522" y="307" on="0"/>
        <pt x="476" y="165" on="0"/>
        <pt x="380" y="58" on="0"/>
        <pt x="232" y="-6" on="0"/>
        <pt x="131" y="-6" on="1"/>
        <pt x="110" y="-6" on="0"/>
        <pt x="66" y="-3" on="0"/>
        <pt x="43" y="0" on="1"/>
        <pt x="163" y="618" on="1"/>
        <pt x="192" y="622" on="0"/>
        <pt x="245" y="628" on="0"/>
        <pt x="270" y="628" on="1"/>
        <pt x="392" y="628" on="0"/>
        <pt x="522" y="505" on="0"/>
      </contour>
      <contour>
        <pt x="166" y="62" on="1"/>
        <pt x="235" y="62" on="0"/>
        <pt x="339" y="113" on="0"/>
        <pt x="407" y="199" on="0"/>
        <pt x="441" y="313" on="0"/>
        <pt x="441" y="375" on="1"/>
        <pt x="441" y="468" on="0"/>
        <pt x="355" y="559" on="0"/>
        <pt x="272" y="559" on="1"/>
        <pt x="262" y="559" on="0"/>
        <pt x="242" y="558" on="0"/>
        <pt x="232" y="557" on="1"/>
        <pt x="136" y="64" on="1"/>
        <pt x="143" y="63" on="0"/>
        <pt x="159" y="62" on="0"/>
      </contour>
    </TTGlyph>
    <TTGlyph name="Dcroat" xMin="28" yMin="-6" xMax="522" yMax="628">
      <contour>
        <pt x="131" y="-6" on="1"/>
        <pt x="110" y="-6" on="0"/>
        <pt x="66" y="-3" on="0"/>
        <pt x="43" y="0" on="1"/>
        <pt x="98" y="285" on="1"/>
        <pt x="28" y="285" on="1"/>
        <pt x="39" y="343" on="1"/>
        <pt x="110" y="343" on="1"/>
        <pt x="163" y="618" on="1"/>
        <pt x="192" y="622" on="0"/>
        <pt x="245" y="628" on="0"/>
        <pt x="270" y="628" on="1"/>
        <pt x="392" y="628" on="0"/>
        <pt x="522" y="505" on="0"/>
        <pt x="522" y="384" on="1"/>
        <pt x="522" y="307" on="0"/>
        <pt x="476" y="165" on="0"/>
        <pt x="380" y="58" on="0"/>
        <pt x="232" y="-6" on="0"/>
      </contour>
      <contour>
        <pt x="166" y="62" on="1"/>
        <pt x="235" y="62" on="0"/>
        <pt x="339" y="113" on="0"/>
        <pt x="407" y="199" on="0"/>
        <pt x="441" y="313" on="0"/>
        <pt x="441" y="375" on="1"/>
        <pt x="441" y="468" on="0"/>
        <pt x="355" y="559" on="0"/>
        <pt x="272" y="559" on="1"/>
        <pt x="262" y="559" on="0"/>
        <pt x="242" y="558" on="0"/>
        <pt x="232" y="557" on="1"/>
        <pt x="190" y="343" on="1"/>
        <pt x="322" y="343" on="1"/>
        <pt x="308" y="285" on="1"/>
        <pt x="179" y="285" on="1"/>
        <pt x="136" y="64" on="1"/>
        <pt x="143" y="63" on="0"/>
        <pt x="159" y="62" on="0"/>
      </contour>
    </TTGlyph>
    <TTGlyph name="E" xMin="58" yMin="0" xMax="548" yMax="620">
      <contour>
        <pt x="443" y="69" on="1"/>
        <pt x="425" y="0" on="1"/>
        <pt x="58" y="0" on="1"/>
        <pt x="178" y="620" on="1"/>
        <pt x="548" y="620" on="1"/>
        <pt x="534" y="551" on="1"/>
        <pt x="246" y="551" on="1"/>
        <pt x="206" y="344" on="1"/>
        <pt x="450" y="344" on="1"/>
        <pt x="438" y="283" on="1"/>
        <pt x="194" y="283" on="1"/>
        <pt x="152" y="69" on="1"/>
      </contour>
    </TTGlyph>
    <TTGlyph name="Eacute" xMin="58" yMin="0" xMax="548" yMax="892">
      <contour>
        <pt x="259" y="723" on="1"/>
        <pt x="283" y="738" on="0"/>
        <pt x="341" y="778" on="0"/>
        <pt x="399" y="824" on="0"/>
        <pt x="454" y="871" on="0"/>
        <pt x="475" y="892" on="1"/>
        <pt x="530" y="829" on="1"/>
        <pt x="505" y="810" on="0"/>
        <pt x="440" y="770" on="0"/>
        <pt x="371" y="733" on="0"/>
        <pt x="303" y="700" on="0"/>
        <pt x="275" y="688" on="1"/>
      </contour>
      <contour>
        <pt x="443" y="69" on="1"/>
        <pt x="425" y="0" on="1"/>
        <pt x="58" y="0" on="1"/>
        <pt x="178" y="620" on="1"/>
        <pt x="548" y="620" on="1"/>
        <pt x="534" y="551" on="1"/>
        <pt x="246" y="551" on="1"/>
        <pt x="206" y="344" on="1"/>
        <pt x="450" y="344" on="1"/>
        <pt x="438" y="283" on="1"/>
        <pt x="194" y="283" on="1"/>
        <pt x="152" y="69" on="1"/>
      </contour>
    </TTGlyph>
    <TTGlyph name="Ebreve" xMin="58" yMin="0" xMax="593" yMax="872">
      <contour>
        <pt x="548" y="867" on="1"/>
        <pt x="593" y="839" on="1"/>
        <pt x="542" y="771" on="0"/>
        <pt x="434" y="695" on="0"/>
        <pt x="381" y="695" on="1"/>
        <pt x="330" y="695" on="0"/>
        <pt x="250" y="767" on="0"/>
        <pt x="222" y="841" on="1"/>
        <pt x="282" y="872" on="1"/>
        <pt x="307" y="811" on="0"/>
        <pt x="360" y="758" on="0"/>
        <pt x="397" y="758" on="1"/>
        <pt x="436" y="758" on="0"/>
        <pt x="506" y="816" on="0"/>
      </contour>
      <contour>
        <pt x="443" y="69" on="1"/>
        <pt x="425" y="0" on="1"/>
        <pt x="58" y="0" on="1"/>
        <pt x="178" y="620" on="1"/>
        <pt x="548" y="620" on="1"/>
        <pt x="534" y="551" on="1"/>
        <pt x="246" y="551" on="1"/>
        <pt x="206" y="344" on="1"/>
        <pt x="450" y="344" on="1"/>
        <pt x="438" y="283" on="1"/>
        <pt x="194" y="283" on="1"/>
        <pt x="152" y="69" on="1"/>
      </contour>
    </TTGlyph>
    <TTGlyph name="Ecaron" xMin="58" yMin="0" xMax="580" yMax="877">
      <contour>
        <pt x="375" y="685" on="1"/>
        <pt x="371" y="685" on="1"/>
        <pt x="231" y="835" on="1"/>
        <pt x="285" y="877" on="1"/>
        <pt x="387" y="761" on="1"/>
        <pt x="544" y="873" on="1"/>
        <pt x="580" y="831" on="1"/>
      </contour>
      <contour>
        <pt x="443" y="69" on="1"/>
        <pt x="425" y="0" on="1"/>
        <pt x="58" y="0" on="1"/>
        <pt x="178" y="620" on="1"/>
        <pt x="548" y="620" on="1"/>
        <pt x="534" y="551" on="1"/>
        <pt x="246" y="551" on="1"/>
        <pt x="206" y="344" on="1"/>
        <pt x="450" y="344" on="1"/>
        <pt x="438" y="283" on="1"/>
        <pt x="194" y="283" on="1"/>
        <pt x="152" y="69" on="1"/>
      </contour>
    </TTGlyph>
    <TTGlyph name="Ecircumflex" xMin="58" yMin="0" xMax="560" yMax="880">
      <contour>
        <pt x="506" y="688" on="1"/>
        <pt x="405" y="803" on="1"/>
        <pt x="247" y="692" on="1"/>
        <pt x="212" y="733" on="1"/>
        <pt x="417" y="880" on="1"/>
        <pt x="421" y="880" on="1"/>
        <pt x="560" y="730" on="1"/>
      </contour>
      <contour>
        <pt x="443" y="69" on="1"/>
        <pt x="425" y="0" on="1"/>
        <pt x="58" y="0" on="1"/>
        <pt x="178" y="620" on="1"/>
        <pt x="548" y="620" on="1"/>
        <pt x="534" y="551" on="1"/>
        <pt x="246" y="551" on="1"/>
        <pt x="206" y="344" on="1"/>
        <pt x="450" y="344" on="1"/>
        <pt x="438" y="283" on="1"/>
        <pt x="194" y="283" on="1"/>
        <pt x="152" y="69" on="1"/>
      </contour>
    </TTGlyph>
    <TTGlyph name="Edieresis" xMin="58" yMin="0" xMax="561" yMax="836">
      <contour>
        <pt x="521" y="703" on="1"/>
        <pt x="440" y="702" on="1"/>
        <pt x="471" y="834" on="1"/>
        <pt x="561" y="836" on="1"/>
      </contour>
      <contour>
        <pt x="306" y="701" on="1"/>
        <pt x="225" y="700" on="1"/>
        <pt x="257" y="832" on="1"/>
        <pt x="346" y="833" on="1"/>
      </contour>
      <contour>
        <pt x="443" y="69" on="1"/>
        <pt x="425" y="0" on="1"/>
        <pt x="58" y="0" on="1"/>
        <pt x="178" y="620" on="1"/>
        <pt x="548" y="620" on="1"/>
        <pt x="534" y="551" on="1"/>
        <pt x="246" y="551" on="1"/>
        <pt x="206" y="344" on="1"/>
        <pt x="450" y="344" on="1"/>
        <pt x="438" y="283" on="1"/>
        <pt x="194" y="283" on="1"/>
        <pt x="152" y="69" on="1"/>
      </contour>
    </TTGlyph>
    <TTGlyph name="Edotaccent" xMin="58" yMin="0" xMax="548" yMax="834">
      <contour>
        <pt x="413" y="702" on="1"/>
        <pt x="331" y="701" on="1"/>
        <pt x="363" y="833" on="1"/>
        <pt x="454" y="834" on="1"/>
      </contour>
      <contour>
        <pt x="443" y="69" on="1"/>
        <pt x="425" y="0" on="1"/>
        <pt x="58" y="0" on="1"/>
        <pt x="178" y="620" on="1"/>
        <pt x="548" y="620" on="1"/>
        <pt x="534" y="551" on="1"/>
        <pt x="246" y="551" on="1"/>
        <pt x="206" y="344" on="1"/>
        <pt x="450" y="344" on="1"/>
        <pt x="438" y="283" on="1"/>
        <pt x="194" y="283" on="1"/>
        <pt x="152" y="69" on="1"/>
      </contour>
    </TTGlyph>
    <TTGlyph name="Egrave" xMin="58" yMin="0" xMax="548" yMax="897">
      <contour>
        <pt x="500" y="715" on="1"/>
        <pt x="480" y="682" on="1"/>
        <pt x="456" y="694" on="0"/>
        <pt x="398" y="730" on="0"/>
        <pt x="338" y="772" on="0"/>
        <pt x="282" y="815" on="0"/>
        <pt x="260" y="835" on="1"/>
        <pt x="313" y="897" on="1"/>
        <pt x="350" y="853" on="0"/>
        <pt x="457" y="748" on="0"/>
      </contour>
      <contour>
        <pt x="443" y="69" on="1"/>
        <pt x="425" y="0" on="1"/>
        <pt x="58" y="0" on="1"/>
        <pt x="178" y="620" on="1"/>
        <pt x="548" y="620" on="1"/>
        <pt x="534" y="551" on="1"/>
        <pt x="246" y="551" on="1"/>
        <pt x="206" y="344" on="1"/>
        <pt x="450" y="344" on="1"/>
        <pt x="438" y="283" on="1"/>
        <pt x="194" y="283" on="1"/>
        <pt x="152" y="69" on="1"/>
      </contour>
    </TTGlyph>
    <TTGlyph name="Emacron" xMin="58" yMin="0" xMax="565" yMax="803">
      <contour>
        <pt x="565" y="803" on="1"/>
        <pt x="552" y="737" on="1"/>
        <pt x="222" y="737" on="1"/>
        <pt x="235" y="803" on="1"/>
      </contour>
      <contour>
        <pt x="443" y="69" on="1"/>
        <pt x="425" y="0" on="1"/>
        <pt x="58" y="0" on="1"/>
        <pt x="178" y="620" on="1"/>
        <pt x="548" y="620" on="1"/>
        <pt x="534" y="551" on="1"/>
        <pt x="246" y="551" on="1"/>
        <pt x="206" y="344" on="1"/>
        <pt x="450" y="344" on="1"/>
        <pt x="438" y="283" on="1"/>
        <pt x="194" y="283" on="1"/>
        <pt x="152" y="69" on="1"/>
      </contour>
    </TTGlyph>
    <TTGlyph name="Eogonek" xMin="58" yMin="-209" xMax="548" yMax="620">
      <contour>
        <pt x="395" y="-168" on="1"/>
        <pt x="352" y="-190" on="0"/>
        <pt x="281" y="-209" on="0"/>
        <pt x="254" y="-209" on="1"/>
        <pt x="211" y="-209" on="0"/>
        <pt x="167" y="-170" on="0"/>
        <pt x="167" y="-142" on="1"/>
        <pt x="167" y="-109" on="0"/>
        <pt x="239" y="-36" on="0"/>
        <pt x="320" y="0" on="1"/>
        <pt x="58" y="0" on="1"/>
        <pt x="178" y="620" on="1"/>
        <pt x="548" y="620" on="1"/>
        <pt x="534" y="551" on="1"/>
        <pt x="246" y="551" on="1"/>
        <pt x="206" y="344" on="1"/>
        <pt x="450" y="344" on="1"/>
        <pt x="438" y="283" on="1"/>
        <pt x="194" y="283" on="1"/>
        <pt x="152" y="69" on="1"/>
        <pt x="443" y="69" on="1"/>
        <pt x="425" y="0" on="1"/>
        <pt x="326" y="-32" on="0"/>
        <pt x="240" y="-94" on="0"/>
        <pt x="240" y="-119" on="1"/>
        <pt x="240" y="-134" on="0"/>
        <pt x="264" y="-153" on="0"/>
        <pt x="289" y="-153" on="1"/>
        <pt x="306" y="-153" on="0"/>
        <pt x="354" y="-143" on="0"/>
        <pt x="385" y="-131" on="1"/>
      </contour>
    </TTGlyph>
    <TTGlyph name="Eth" xMin="28" yMin="-6" xMax="522" yMax="628">
      <contour>
        <pt x="131" y="-6" on="1"/>
        <pt x="110" y="-6" on="0"/>
        <pt x="66" y="-3" on="0"/>
        <pt x="43" y="0" on="1"/>
        <pt x="98" y="285" on="1"/>
        <pt x="28" y="285" on="1"/>
        <pt x="39" y="343" on="1"/>
        <pt x="110" y="343" on="1"/>
        <pt x="163" y="618" on="1"/>
        <pt x="192" y="622" on="0"/>
        <pt x="245" y="628" on="0"/>
        <pt x="270" y="628" on="1"/>
        <pt x="392" y="628" on="0"/>
        <pt x="522" y="505" on="0"/>
        <pt x="522" y="384" on="1"/>
        <pt x="522" y="307" on="0"/>
        <pt x="476" y="165" on="0"/>
        <pt x="380" y="58" on="0"/>
        <pt x="232" y="-6" on="0"/>
      </contour>
      <contour>
        <pt x="166" y="62" on="1"/>
        <pt x="235" y="62" on="0"/>
        <pt x="339" y="113" on="0"/>
        <pt x="407" y="199" on="0"/>
        <pt x="441" y="313" on="0"/>
        <pt x="441" y="375" on="1"/>
        <pt x="441" y="468" on="0"/>
        <pt x="355" y="559" on="0"/>
        <pt x="272" y="559" on="1"/>
        <pt x="262" y="559" on="0"/>
        <pt x="242" y="558" on="0"/>
        <pt x="232" y="557" on="1"/>
        <pt x="190" y="343" on="1"/>
        <pt x="322" y="343" on="1"/>
        <pt x="308" y="285" on="1"/>
        <pt x="179" y="285" on="1"/>
        <pt x="136" y="64" on="1"/>
        <pt x="143" y="63" on="0"/>
        <pt x="159" y="62" on="0"/>
      </contour>
    </TTGlyph>
    <TTGlyph name="Euro" xMin="28" yMin="-12" xMax="551" yMax="633">
      <contour>
        <pt x="472" y="34" on="1"/>
        <pt x="421" y="10" on="0"/>
        <pt x="330" y="-12" on="0"/>
        <pt x="293" y="-12" on="1"/>
        <pt x="206" y="-12" on="0"/>
        <pt x="111" y="98" on="0"/>
        <pt x="105" y="191" on="1"/>
        <pt x="28" y="191" on="1"/>
        <pt x="40" y="251" on="1"/>
        <pt x="105" y="251" on="1"/>
        <pt x="106" y="276" on="0"/>
        <pt x="115" y="325" on="0"/>
        <pt x="121" y="349" on="1"/>
        <pt x="57" y="349" on="1"/>
        <pt x="70" y="408" on="1"/>
        <pt x="141" y="408" on="1"/>
        <pt x="160" y="456" on="0"/>
        <pt x="217" y="539" on="0"/>
        <pt x="287" y="599" on="0"/>
        <pt x="368" y="633" on="0"/>
        <pt x="411" y="633" on="1"/>
        <pt x="481" y="633" on="0"/>
        <pt x="547" y="548" on="0"/>
        <pt x="551" y="463" on="1"/>
        <pt x="478" y="452" on="1"/>
        <pt x="475" y="506" on="0"/>
        <pt x="441" y="566" on="0"/>
        <pt x="394" y="566" on="1"/>
        <pt x="337" y="566" on="0"/>
        <pt x="242" y="471" on="0"/>
        <pt x="214" y="403" on="1"/>
        <pt x="439" y="403" on="1"/>
        <pt x="425" y="349" on="1"/>
        <pt x="195" y="349" on="1"/>
        <pt x="189" y="325" on="0"/>
        <pt x="181" y="277" on="0"/>
        <pt x="180" y="253" on="1"/>
        <pt x="406" y="253" on="1"/>
        <pt x="392" y="198" on="1"/>
        <pt x="180" y="198" on="1"/>
        <pt x="186" y="126" on="0"/>
        <pt x="255" y="55" on="0"/>
        <pt x="320" y="55" on="1"/>
        <pt x="349" y="55" on="0"/>
        <pt x="421" y="70" on="0"/>
        <pt x="464" y="83" on="1"/>
      </contour>
    </TTGlyph>
    <TTGlyph name="F" xMin="60" yMin="0" xMax="560" yMax="620">
      <contour>
        <pt x="447" y="268" on="1"/>
        <pt x="193" y="268" on="1"/>
        <pt x="141" y="0" on="1"/>
        <pt x="60" y="0" on="1"/>
        <pt x="180" y="620" on="1"/>
        <pt x="560" y="620" on="1"/>
        <pt x="548" y="550" on="1"/>
        <pt x="248" y="550" on="1"/>
        <pt x="205" y="331" on="1"/>
        <pt x="459" y="331" on="1"/>
      </contour>
    </TTGlyph>
    <TTGlyph name="G" xMin="64" yMin="-110" xMax="509" yMax="633">
      <contour>
        <pt x="403" y="-109" on="1"/>
        <pt x="330" y="-110" on="1"/>
        <pt x="356" y="4" on="1"/>
        <pt x="329" y="-3" on="0"/>
        <pt x="279" y="-11" on="0"/>
        <pt x="257" y="-11" on="1"/>
        <pt x="165" y="-11" on="0"/>
        <pt x="64" y="109" on="0"/>
        <pt x="64" y="219" on="1"/>
        <pt x="64" y="299" on="0"/>
        <pt x="112" y="449" on="0"/>
        <pt x="195" y="564" on="0"/>
        <pt x="305" y="633" on="0"/>
        <pt x="367" y="633" on="1"/>
        <pt x="443" y="633" on="0"/>
        <pt x="509" y="536" on="0"/>
        <pt x="509" y="436" on="1"/>
        <pt x="509" y="428" on="0"/>
        <pt x="509" y="411" on="0"/>
        <pt x="508" y="402" on="1"/>
        <pt x="432" y="402" on="1"/>
        <pt x="432" y="427" on="1"/>
        <pt x="432" y="493" on="0"/>
        <pt x="400" y="561" on="0"/>
        <pt x="354" y="561" on="1"/>
        <pt x="310" y="561" on="0"/>
        <pt x="233" y="503" on="0"/>
        <pt x="178" y="410" on="0"/>
        <pt x="146" y="291" on="0"/>
        <pt x="146" y="232" on="1"/>
        <pt x="146" y="146" on="0"/>
        <pt x="214" y="59" on="0"/>
        <pt x="279" y="59" on="1"/>
        <pt x="299" y="59" on="0"/>
        <pt x="346" y="67" on="0"/>
        <pt x="372" y="76" on="1"/>
        <pt x="409" y="240" on="1"/>
        <pt x="486" y="243" on="1"/>
      </contour>
    </TTGlyph>
    <TTGlyph name="Gbreve" xMin="64" yMin="-110" xMax="582" yMax="885">
      <contour>
        <pt x="537" y="880" on="1"/>
        <pt x="582" y="852" on="1"/>
        <pt x="531" y="784" on="0"/>
        <pt x="423" y="708" on="0"/>
        <pt x="370" y="708" on="1"/>
        <pt x="319" y="708" on="0"/>
        <pt x="239" y="780" on="0"/>
        <pt x="211" y="854" on="1"/>
        <pt x="271" y="885" on="1"/>
        <pt x="296" y="824" on="0"/>
        <pt x="349" y="771" on="0"/>
        <pt x="386" y="771" on="1"/>
        <pt x="425" y="771" on="0"/>
        <pt x="495" y="829" on="0"/>
      </contour>
      <contour>
        <pt x="403" y="-109" on="1"/>
        <pt x="330" y="-110" on="1"/>
        <pt x="356" y="4" on="1"/>
        <pt x="329" y="-3" on="0"/>
        <pt x="279" y="-11" on="0"/>
        <pt x="257" y="-11" on="1"/>
        <pt x="165" y="-11" on="0"/>
        <pt x="64" y="109" on="0"/>
        <pt x="64" y="219" on="1"/>
        <pt x="64" y="299" on="0"/>
        <pt x="112" y="449" on="0"/>
        <pt x="195" y="564" on="0"/>
        <pt x="305" y="633" on="0"/>
        <pt x="367" y="633" on="1"/>
        <pt x="443" y="633" on="0"/>
        <pt x="509" y="536" on="0"/>
        <pt x="509" y="436" on="1"/>
        <pt x="509" y="428" on="0"/>
        <pt x="509" y="411" on="0"/>
        <pt x="508" y="402" on="1"/>
        <pt x="432" y="402" on="1"/>
        <pt x="432" y="427" on="1"/>
        <pt x="432" y="493" on="0"/>
        <pt x="400" y="561" on="0"/>
        <pt x="354" y="561" on="1"/>
        <pt x="310" y="561" on="0"/>
        <pt x="233" y="503" on="0"/>
        <pt x="178" y="410" on="0"/>
        <pt x="146" y="291" on="0"/>
        <pt x="146" y="232" on="1"/>
        <pt x="146" y="146" on="0"/>
        <pt x="214" y="59" on="0"/>
        <pt x="279" y="59" on="1"/>
        <pt x="299" y="59" on="0"/>
        <pt x="346" y="67" on="0"/>
        <pt x="372" y="76" on="1"/>
        <pt x="409" y="240" on="1"/>
        <pt x="486" y="243" on="1"/>
      </contour>
    </TTGlyph>
    <TTGlyph name="Gcommaaccent" xMin="64" yMin="-371" xMax="509" yMax="633">
      <contour>
        <pt x="403" y="-109" on="1"/>
        <pt x="330" y="-110" on="1"/>
        <pt x="356" y="4" on="1"/>
        <pt x="329" y="-3" on="0"/>
        <pt x="279" y="-11" on="0"/>
        <pt x="257" y="-11" on="1"/>
        <pt x="165" y="-11" on="0"/>
        <pt x="64" y="109" on="0"/>
        <pt x="64" y="219" on="1"/>
        <pt x="64" y="299" on="0"/>
        <pt x="112" y="449" on="0"/>
        <pt x="195" y="564" on="0"/>
        <pt x="305" y="633" on="0"/>
        <pt x="367" y="633" on="1"/>
        <pt x="443" y="633" on="0"/>
        <pt x="509" y="536" on="0"/>
        <pt x="509" y="436" on="1"/>
        <pt x="509" y="428" on="0"/>
        <pt x="509" y="411" on="0"/>
        <pt x="508" y="402" on="1"/>
        <pt x="432" y="402" on="1"/>
        <pt x="432" y="427" on="1"/>
        <pt x="432" y="493" on="0"/>
        <pt x="400" y="561" on="0"/>
        <pt x="354" y="561" on="1"/>
        <pt x="310" y="561" on="0"/>
        <pt x="233" y="503" on="0"/>
        <pt x="178" y="410" on="0"/>
        <pt x="146" y="291" on="0"/>
        <pt x="146" y="232" on="1"/>
        <pt x="146" y="146" on="0"/>
        <pt x="214" y="59" on="0"/>
        <pt x="279" y="59" on="1"/>
        <pt x="299" y="59" on="0"/>
        <pt x="346" y="67" on="0"/>
        <pt x="372" y="76" on="1"/>
        <pt x="409" y="240" on="1"/>
        <pt x="486" y="243" on="1"/>
      </contour>
      <contour>
        <pt x="109" y="-355" on="1"/>
        <pt x="133" y="-318" on="0"/>
        <pt x="152" y="-250" on="0"/>
        <pt x="152" y="-217" on="1"/>
        <pt x="152" y="-204" on="0"/>
        <pt x="149" y="-179" on="0"/>
        <pt x="147" y="-167" on="1"/>
        <pt x="249" y="-164" on="1"/>
        <pt x="247" y="-216" on="0"/>
        <pt x="192" y="-324" on="0"/>
        <pt x="140" y="-371" on="1"/>
      </contour>
    </TTGlyph>
    <TTGlyph name="Gdotaccent" xMin="64" yMin="-110" xMax="509" yMax="847">
      <contour>
        <pt x="402" y="715" on="1"/>
        <pt x="320" y="714" on="1"/>
        <pt x="352" y="846" on="1"/>
        <pt x="443" y="847" on="1"/>
      </contour>
      <contour>
        <pt x="403" y="-109" on="1"/>
        <pt x="330" y="-110" on="1"/>
        <pt x="356" y="4" on="1"/>
        <pt x="329" y="-3" on="0"/>
        <pt x="279" y="-11" on="0"/>
        <pt x="257" y="-11" on="1"/>
        <pt x="165" y="-11" on="0"/>
        <pt x="64" y="109" on="0"/>
        <pt x="64" y="219" on="1"/>
        <pt x="64" y="299" on="0"/>
        <pt x="112" y="449" on="0"/>
        <pt x="195" y="564" on="0"/>
        <pt x="305" y="633" on="0"/>
        <pt x="367" y="633" on="1"/>
        <pt x="443" y="633" on="0"/>
        <pt x="509" y="536" on="0"/>
        <pt x="509" y="436" on="1"/>
        <pt x="509" y="428" on="0"/>
        <pt x="509" y="411" on="0"/>
        <pt x="508" y="402" on="1"/>
        <pt x="432" y="402" on="1"/>
        <pt x="432" y="427" on="1"/>
        <pt x="432" y="493" on="0"/>
        <pt x="400" y="561" on="0"/>
        <pt x="354" y="561" on="1"/>
        <pt x="310" y="561" on="0"/>
        <pt x="233" y="503" on="0"/>
        <pt x="178" y="410" on="0"/>
        <pt x="146" y="291" on="0"/>
        <pt x="146" y="232" on="1"/>
        <pt x="146" y="146" on="0"/>
        <pt x="214" y="59" on="0"/>
        <pt x="279" y="59" on="1"/>
        <pt x="299" y="59" on="0"/>
        <pt x="346" y="67" on="0"/>
        <pt x="372" y="76" on="1"/>
        <pt x="409" y="240" on="1"/>
        <pt x="486" y="243" on="1"/>
      </contour>
    </TTGlyph>
    <TTGlyph name="H" xMin="40" yMin="0" xMax="551" yMax="620">
      <contour>
        <pt x="349" y="0" on="1"/>
        <pt x="404" y="282" on="1"/>
        <pt x="176" y="282" on="1"/>
        <pt x="121" y="0" on="1"/>
        <pt x="40" y="0" on="1"/>
        <pt x="160" y="620" on="1"/>
        <pt x="241" y="620" on="1"/>
        <pt x="188" y="346" on="1"/>
        <pt x="416" y="346" on="1"/>
        <pt x="469" y="620" on="1"/>
        <pt x="551" y="620" on="1"/>
        <pt x="431" y="0" on="1"/>
      </contour>
    </TTGlyph>
    <TTGlyph name="Hbar" xMin="40" yMin="0" xMax="598" yMax="620">
      <contour>
        <pt x="413" y="332" on="1"/>
        <pt x="435" y="446" on="1"/>
        <pt x="207" y="446" on="1"/>
        <pt x="185" y="332" on="1"/>
      </contour>
      <contour>
        <pt x="349" y="0" on="1"/>
        <pt x="401" y="268" on="1"/>
        <pt x="173" y="268" on="1"/>
        <pt x="121" y="0" on="1"/>
        <pt x="40" y="0" on="1"/>
        <pt x="126" y="444" on="1"/>
        <pt x="54" y="444" on="1"/>
        <pt x="66" y="502" on="1"/>
        <pt x="137" y="502" on="1"/>
        <pt x="160" y="620" on="1"/>
        <pt x="241" y="620" on="1"/>
        <pt x="218" y="499" on="1"/>
        <pt x="446" y="499" on="1"/>
        <pt x="469" y="620" on="1"/>
        <pt x="551" y="620" on="1"/>
        <pt x="528" y="502" on="1"/>
        <pt x="598" y="502" on="1"/>
        <pt x="587" y="444" on="1"/>
        <pt x="517" y="444" on="1"/>
        <pt x="431" y="0" on="1"/>
      </contour>
    </TTGlyph>
    <TTGlyph name="I" xMin="36" yMin="0" xMax="529" yMax="620">
      <contour>
        <pt x="277" y="65" on="1"/>
        <pt x="427" y="65" on="1"/>
        <pt x="412" y="0" on="1"/>
        <pt x="36" y="0" on="1"/>
        <pt x="49" y="65" on="1"/>
        <pt x="196" y="65" on="1"/>
        <pt x="291" y="555" on="1"/>
        <pt x="141" y="555" on="1"/>
        <pt x="154" y="620" on="1"/>
        <pt x="529" y="620" on="1"/>
        <pt x="517" y="555" on="1"/>
        <pt x="372" y="555" on="1"/>
      </contour>
    </TTGlyph>
    <TTGlyph name="Iacute" xMin="36" yMin="0" xMax="529" yMax="892">
      <contour>
        <pt x="239" y="723" on="1"/>
        <pt x="263" y="738" on="0"/>
        <pt x="321" y="778" on="0"/>
        <pt x="379" y="824" on="0"/>
        <pt x="434" y="871" on="0"/>
        <pt x="455" y="892" on="1"/>
        <pt x="510" y="829" on="1"/>
        <pt x="485" y="810" on="0"/>
        <pt x="420" y="770" on="0"/>
        <pt x="351" y="733" on="0"/>
        <pt x="283" y="700" on="0"/>
        <pt x="255" y="688" on="1"/>
      </contour>
      <contour>
        <pt x="277" y="65" on="1"/>
        <pt x="427" y="65" on="1"/>
        <pt x="412" y="0" on="1"/>
        <pt x="36" y="0" on="1"/>
        <pt x="49" y="65" on="1"/>
        <pt x="196" y="65" on="1"/>
        <pt x="291" y="555" on="1"/>
        <pt x="141" y="555" on="1"/>
        <pt x="154" y="620" on="1"/>
        <pt x="529" y="620" on="1"/>
        <pt x="517" y="555" on="1"/>
        <pt x="372" y="555" on="1"/>
      </contour>
    </TTGlyph>
    <TTGlyph name="Ibreve" xMin="36" yMin="0" xMax="573" yMax="872">
      <contour>
        <pt x="528" y="867" on="1"/>
        <pt x="573" y="839" on="1"/>
        <pt x="522" y="771" on="0"/>
        <pt x="414" y="695" on="0"/>
        <pt x="361" y="695" on="1"/>
        <pt x="310" y="695" on="0"/>
        <pt x="230" y="767" on="0"/>
        <pt x="202" y="841" on="1"/>
        <pt x="262" y="872" on="1"/>
        <pt x="287" y="811" on="0"/>
        <pt x="340" y="758" on="0"/>
        <pt x="377" y="758" on="1"/>
        <pt x="416" y="758" on="0"/>
        <pt x="486" y="816" on="0"/>
      </contour>
      <contour>
        <pt x="277" y="65" on="1"/>
        <pt x="427" y="65" on="1"/>
        <pt x="412" y="0" on="1"/>
        <pt x="36" y="0" on="1"/>
        <pt x="49" y="65" on="1"/>
        <pt x="196" y="65" on="1"/>
        <pt x="291" y="555" on="1"/>
        <pt x="141" y="555" on="1"/>
        <pt x="154" y="620" on="1"/>
        <pt x="529" y="620" on="1"/>
        <pt x="517" y="555" on="1"/>
        <pt x="372" y="555" on="1"/>
      </contour>
    </TTGlyph>
    <TTGlyph name="Icircumflex" xMin="36" yMin="0" xMax="540" yMax="880">
      <contour>
        <pt x="486" y="688" on="1"/>
        <pt x="385" y="803" on="1"/>
        <pt x="227" y="692" on="1"/>
        <pt x="192" y="733" on="1"/>
        <pt x="397" y="880" on="1"/>
        <pt x="401" y="880" on="1"/>
        <pt x="540" y="730" on="1"/>
      </contour>
      <contour>
        <pt x="277" y="65" on="1"/>
        <pt x="427" y="65" on="1"/>
        <pt x="412" y="0" on="1"/>
        <pt x="36" y="0" on="1"/>
        <pt x="49" y="65" on="1"/>
        <pt x="196" y="65" on="1"/>
        <pt x="291" y="555" on="1"/>
        <pt x="141" y="555" on="1"/>
        <pt x="154" y="620" on="1"/>
        <pt x="529" y="620" on="1"/>
        <pt x="517" y="555" on="1"/>
        <pt x="372" y="555" on="1"/>
      </contour>
    </TTGlyph>
    <TTGlyph name="Idieresis" xMin="36" yMin="0" xMax="541" yMax="836">
      <contour>
        <pt x="501" y="703" on="1"/>
        <pt x="420" y="702" on="1"/>
        <pt x="451" y="834" on="1"/>
        <pt x="541" y="836" on="1"/>
      </contour>
      <contour>
        <pt x="286" y="701" on="1"/>
        <pt x="205" y="700" on="1"/>
        <pt x="237" y="832" on="1"/>
        <pt x="326" y="833" on="1"/>
      </contour>
      <contour>
        <pt x="277" y="65" on="1"/>
        <pt x="427" y="65" on="1"/>
        <pt x="412" y="0" on="1"/>
        <pt x="36" y="0" on="1"/>
        <pt x="49" y="65" on="1"/>
        <pt x="196" y="65" on="1"/>
        <pt x="291" y="555" on="1"/>
        <pt x="141" y="555" on="1"/>
        <pt x="154" y="620" on="1"/>
        <pt x="529" y="620" on="1"/>
        <pt x="517" y="555" on="1"/>
        <pt x="372" y="555" on="1"/>
      </contour>
    </TTGlyph>
    <TTGlyph name="Idotaccent" xMin="36" yMin="0" xMax="529" yMax="834">
      <contour>
        <pt x="393" y="702" on="1"/>
        <pt x="311" y="701" on="1"/>
        <pt x="343" y="833" on="1"/>
        <pt x="434" y="834" on="1"/>
      </contour>
      <contour>
        <pt x="277" y="65" on="1"/>
        <pt x="427" y="65" on="1"/>
        <pt x="412" y="0" on="1"/>
        <pt x="36" y="0" on="1"/>
        <pt x="49" y="65" on="1"/>
        <pt x="196" y="65" on="1"/>
        <pt x="291" y="555" on="1"/>
        <pt x="141" y="555" on="1"/>
        <pt x="154" y="620" on="1"/>
        <pt x="529" y="620" on="1"/>
        <pt x="517" y="555" on="1"/>
        <pt x="372" y="555" on="1"/>
      </contour>
    </TTGlyph>
    <TTGlyph name="Igrave" xMin="36" yMin="0" xMax="529" yMax="897">
      <contour>
        <pt x="480" y="715" on="1"/>
        <pt x="460" y="682" on="1"/>
        <pt x="436" y="694" on="0"/>
        <pt x="378" y="730" on="0"/>
        <pt x="318" y="772" on="0"/>
        <pt x="262" y="815" on="0"/>
        <pt x="240" y="835" on="1"/>
        <pt x="293" y="897" on="1"/>
        <pt x="330" y="853" on="0"/>
        <pt x="437" y="748" on="0"/>
      </contour>
      <contour>
        <pt x="277" y="65" on="1"/>
        <pt x="427" y="65" on="1"/>
        <pt x="412" y="0" on="1"/>
        <pt x="36" y="0" on="1"/>
        <pt x="49" y="65" on="1"/>
        <pt x="196" y="65" on="1"/>
        <pt x="291" y="555" on="1"/>
        <pt x="141" y="555" on="1"/>
        <pt x="154" y="620" on="1"/>
        <pt x="529" y="620" on="1"/>
        <pt x="517" y="555" on="1"/>
        <pt x="372" y="555" on="1"/>
      </contour>
    </TTGlyph>
    <TTGlyph name="Imacron" xMin="36" yMin="0" xMax="545" yMax="803">
      <contour>
        <pt x="545" y="803" on="1"/>
        <pt x="532" y="737" on="1"/>
        <pt x="202" y="737" on="1"/>
        <pt x="215" y="803" on="1"/>
      </contour>
      <contour>
        <pt x="277" y="65" on="1"/>
        <pt x="427" y="65" on="1"/>
        <pt x="412" y="0" on="1"/>
        <pt x="36" y="0" on="1"/>
        <pt x="49" y="65" on="1"/>
        <pt x="196" y="65" on="1"/>
        <pt x="291" y="555" on="1"/>
        <pt x="141" y="555" on="1"/>
        <pt x="154" y="620" on="1"/>
        <pt x="529" y="620" on="1"/>
        <pt x="517" y="555" on="1"/>
        <pt x="372" y="555" on="1"/>
      </contour>
    </TTGlyph>
    <TTGlyph name="Iogonek" xMin="36" yMin="-208" xMax="529" yMax="620">
      <contour>
        <pt x="310" y="-167" on="1"/>
        <pt x="267" y="-189" on="0"/>
        <pt x="196" y="-208" on="0"/>
        <pt x="169" y="-208" on="1"/>
        <pt x="126" y="-208" on="0"/>
        <pt x="83" y="-169" on="0"/>
        <pt x="83" y="-141" on="1"/>
        <pt x="83" y="-107" on="0"/>
        <pt x="133" y="-36" on="0"/>
        <pt x="189" y="0" on="1"/>
        <pt x="36" y="0" on="1"/>
        <pt x="49" y="65" on="1"/>
        <pt x="196" y="65" on="1"/>
        <pt x="291" y="555" on="1"/>
        <pt x="141" y="555" on="1"/>
        <pt x="154" y="620" on="1"/>
        <pt x="529" y="620" on="1"/>
        <pt x="517" y="555" on="1"/>
        <pt x="372" y="555" on="1"/>
        <pt x="277" y="65" on="1"/>
        <pt x="427" y="65" on="1"/>
        <pt x="412" y="0" on="1"/>
        <pt x="272" y="0" on="1"/>
        <pt x="210" y="-32" on="0"/>
        <pt x="155" y="-93" on="0"/>
        <pt x="155" y="-119" on="1"/>
        <pt x="155" y="-134" on="0"/>
        <pt x="178" y="-152" on="0"/>
        <pt x="203" y="-152" on="1"/>
        <pt x="220" y="-152" on="0"/>
        <pt x="269" y="-142" on="0"/>
        <pt x="300" y="-130" on="1"/>
      </contour>
    </TTGlyph>
    <TTGlyph name="J" xMin="40" yMin="-11" xMax="492" yMax="620">
      <contour>
        <pt x="53" y="-11" on="1"/>
        <pt x="40" y="-11" on="1"/>
        <pt x="53" y="63" on="1"/>
        <pt x="111" y="63" on="1"/>
        <pt x="194" y="63" on="0"/>
        <pt x="272" y="75" on="0"/>
        <pt x="289" y="93" on="1"/>
        <pt x="296" y="100" on="0"/>
        <pt x="307" y="122" on="0"/>
        <pt x="319" y="161" on="0"/>
        <pt x="333" y="224" on="0"/>
        <pt x="343" y="273" on="1"/>
        <pt x="398" y="555" on="1"/>
        <pt x="193" y="555" on="1"/>
        <pt x="207" y="620" on="1"/>
        <pt x="492" y="620" on="1"/>
        <pt x="426" y="282" on="1"/>
        <pt x="414" y="218" on="0"/>
        <pt x="396" y="137" on="0"/>
        <pt x="380" y="87" on="0"/>
        <pt x="363" y="60" on="0"/>
        <pt x="353" y="50" on="1"/>
        <pt x="322" y="19" on="0"/>
        <pt x="186" y="-11" on="0"/>
      </contour>
    </TTGlyph>
    <TTGlyph name="K" xMin="49" yMin="-6" xMax="583" yMax="620">
      <contour>
        <pt x="394" y="-6" on="1"/>
        <pt x="213" y="312" on="1"/>
        <pt x="495" y="620" on="1"/>
        <pt x="583" y="620" on="1"/>
        <pt x="302" y="311" on="1"/>
        <pt x="480" y="5" on="1"/>
      </contour>
      <contour>
        <pt x="170" y="620" on="1"/>
        <pt x="251" y="620" on="1"/>
        <pt x="130" y="0" on="1"/>
        <pt x="49" y="0" on="1"/>
      </contour>
    </TTGlyph>
    <TTGlyph name="Kcommaaccent" xMin="49" yMin="-281" xMax="583" yMax="620">
      <contour>
        <pt x="394" y="-6" on="1"/>
        <pt x="213" y="312" on="1"/>
        <pt x="495" y="620" on="1"/>
        <pt x="583" y="620" on="1"/>
        <pt x="302" y="311" on="1"/>
        <pt x="480" y="5" on="1"/>
      </contour>
      <contour>
        <pt x="170" y="620" on="1"/>
        <pt x="251" y="620" on="1"/>
        <pt x="130" y="0" on="1"/>
        <pt x="49" y="0" on="1"/>
      </contour>
      <contour>
        <pt x="161" y="-265" on="1"/>
        <pt x="185" y="-228" on="0"/>
        <pt x="204" y="-160" on="0"/>
        <pt x="204" y="-127" on="1"/>
        <pt x="204" y="-114" on="0"/>
        <pt x="201" y="-89" on="0"/>
        <pt x="199" y="-77" on="1"/>
        <pt x="301" y="-74" on="1"/>
        <pt x="299" y="-126" on="0"/>
        <pt x="244" y="-234" on="0"/>
        <pt x="192" y="-281" on="1"/>
      </contour>
    </TTGlyph>
    <TTGlyph name="L" xMin="61" yMin="0" xMax="461" yMax="620">
      <contour>
        <pt x="446" y="0" on="1"/>
        <pt x="61" y="0" on="1"/>
        <pt x="181" y="620" on="1"/>
        <pt x="263" y="620" on="1"/>
        <pt x="157" y="70" on="1"/>
        <pt x="461" y="70" on="1"/>
      </contour>
    </TTGlyph>
    <TTGlyph name="Lacute" xMin="61" yMin="0" xMax="540" yMax="892">
      <contour>
        <pt x="269" y="723" on="1"/>
        <pt x="293" y="738" on="0"/>
        <pt x="351" y="778" on="0"/>
        <pt x="409" y="824" on="0"/>
        <pt x="464" y="871" on="0"/>
        <pt x="485" y="892" on="1"/>
        <pt x="540" y="829" on="1"/>
        <pt x="515" y="810" on="0"/>
        <pt x="450" y="770" on="0"/>
        <pt x="381" y="733" on="0"/>
        <pt x="313" y="700" on="0"/>
        <pt x="285" y="688" on="1"/>
      </contour>
      <contour>
        <pt x="446" y="0" on="1"/>
        <pt x="61" y="0" on="1"/>
        <pt x="181" y="620" on="1"/>
        <pt x="263" y="620" on="1"/>
        <pt x="157" y="70" on="1"/>
        <pt x="461" y="70" on="1"/>
      </contour>
    </TTGlyph>
    <TTGlyph name="Lcaron" xMin="61" yMin="0" xMax="564" yMax="700">
      <contour>
        <pt x="474" y="695" on="1"/>
        <pt x="564" y="700" on="1"/>
        <pt x="560" y="636" on="0"/>
        <pt x="512" y="511" on="0"/>
        <pt x="456" y="446" on="1"/>
        <pt x="422" y="461" on="1"/>
        <pt x="454" y="516" on="0"/>
        <pt x="475" y="609" on="0"/>
        <pt x="475" y="654" on="1"/>
        <pt x="475" y="664" on="0"/>
        <pt x="475" y="685" on="0"/>
      </contour>
      <contour>
        <pt x="446" y="0" on="1"/>
        <pt x="61" y="0" on="1"/>
        <pt x="181" y="620" on="1"/>
        <pt x="263" y="620" on="1"/>
        <pt x="157" y="70" on="1"/>
        <pt x="461" y="70" on="1"/>
      </contour>
    </TTGlyph>
    <TTGlyph name="Lcommaaccent" xMin="61" yMin="-275" xMax="461" yMax="620">
      <contour>
        <pt x="446" y="0" on="1"/>
        <pt x="61" y="0" on="1"/>
        <pt x="181" y="620" on="1"/>
        <pt x="263" y="620" on="1"/>
        <pt x="157" y="70" on="1"/>
        <pt x="461" y="70" on="1"/>
      </contour>
      <contour>
        <pt x="152" y="-259" on="1"/>
        <pt x="176" y="-222" on="0"/>
        <pt x="195" y="-154" on="0"/>
        <pt x="195" y="-121" on="1"/>
        <pt x="195" y="-108" on="0"/>
        <pt x="192" y="-83" on="0"/>
        <pt x="190" y="-71" on="1"/>
        <pt x="292" y="-68" on="1"/>
        <pt x="290" y="-120" on="0"/>
        <pt x="235" y="-228" on="0"/>
        <pt x="183" y="-275" on="1"/>
      </contour>
    </TTGlyph>
    <TTGlyph name="Ldot" xMin="61" yMin="0" xMax="498" yMax="620">
      <contour>
        <pt x="446" y="0" on="1"/>
        <pt x="61" y="0" on="1"/>
        <pt x="181" y="620" on="1"/>
        <pt x="263" y="620" on="1"/>
        <pt x="157" y="70" on="1"/>
        <pt x="461" y="70" on="1"/>
      </contour>
      <contour>
        <pt x="472" y="266" on="1"/>
        <pt x="380" y="266" on="1"/>
        <pt x="406" y="374" on="1"/>
        <pt x="498" y="374" on="1"/>
      </contour>
    </TTGlyph>
    <TTGlyph name="Lslash" xMin="54" yMin="0" xMax="475" yMax="620">
      <contour>
        <pt x="460" y="0" on="1"/>
        <pt x="75" y="0" on="1"/>
        <pt x="132" y="296" on="1"/>
        <pt x="56" y="260" on="1"/>
        <pt x="54" y="315" on="1"/>
        <pt x="144" y="358" on="1"/>
        <pt x="195" y="620" on="1"/>
        <pt x="277" y="620" on="1"/>
        <pt x="235" y="400" on="1"/>
        <pt x="387" y="472" on="1"/>
        <pt x="390" y="416" on="1"/>
        <pt x="223" y="338" on="1"/>
        <pt x="171" y="70" on="1"/>
        <pt x="475" y="70" on="1"/>
      </contour>
    </TTGlyph>
    <TTGlyph name="M" xMin="33" yMin="0" xMax="565" yMax="622">
      <contour>
        <pt x="245" y="622" on="1"/>
        <pt x="274" y="209" on="1"/>
        <pt x="277" y="209" on="1"/>
        <pt x="469" y="620" on="1"/>
        <pt x="565" y="620" on="1"/>
        <pt x="446" y="0" on="1"/>
        <pt x="368" y="0" on="1"/>
        <pt x="466" y="488" on="1"/>
        <pt x="462" y="488" on="1"/>
        <pt x="282" y="108" on="1"/>
        <pt x="229" y="108" on="1"/>
        <pt x="201" y="488" on="1"/>
        <pt x="198" y="488" on="1"/>
        <pt x="107" y="0" on="1"/>
        <pt x="33" y="0" on="1"/>
        <pt x="152" y="618" on="1"/>
      </contour>
    </TTGlyph>
    <TTGlyph name="N" xMin="40" yMin="0" xMax="553" yMax="621">
      <contour>
        <pt x="355" y="0" on="1"/>
        <pt x="213" y="489" on="1"/>
        <pt x="208" y="489" on="1"/>
        <pt x="116" y="0" on="1"/>
        <pt x="40" y="0" on="1"/>
        <pt x="160" y="619" on="1"/>
        <pt x="245" y="621" on="1"/>
        <pt x="381" y="141" on="1"/>
        <pt x="386" y="141" on="1"/>
        <pt x="477" y="620" on="1"/>
        <pt x="553" y="620" on="1"/>
        <pt x="432" y="0" on="1"/>
      </contour>
    </TTGlyph>
    <TTGlyph name="Nacute" xMin="40" yMin="0" xMax="553" yMax="894">
      <contour>
        <pt x="251" y="725" on="1"/>
        <pt x="275" y="740" on="0"/>
        <pt x="333" y="780" on="0"/>
        <pt x="391" y="826" on="0"/>
        <pt x="446" y="873" on="0"/>
        <pt x="467" y="894" on="1"/>
        <pt x="522" y="831" on="1"/>
        <pt x="497" y="812" on="0"/>
        <pt x="432" y="772" on="0"/>
        <pt x="363" y="735" on="0"/>
        <pt x="295" y="702" on="0"/>
        <pt x="267" y="690" on="1"/>
      </contour>
      <contour>
        <pt x="355" y="0" on="1"/>
        <pt x="213" y="489" on="1"/>
        <pt x="208" y="489" on="1"/>
        <pt x="116" y="0" on="1"/>
        <pt x="40" y="0" on="1"/>
        <pt x="160" y="619" on="1"/>
        <pt x="245" y="621" on="1"/>
        <pt x="381" y="141" on="1"/>
        <pt x="386" y="141" on="1"/>
        <pt x="477" y="620" on="1"/>
        <pt x="553" y="620" on="1"/>
        <pt x="432" y="0" on="1"/>
      </contour>
    </TTGlyph>
    <TTGlyph name="Ncaron" xMin="40" yMin="0" xMax="572" yMax="879">
      <contour>
        <pt x="367" y="687" on="1"/>
        <pt x="363" y="687" on="1"/>
        <pt x="223" y="837" on="1"/>
        <pt x="277" y="879" on="1"/>
        <pt x="379" y="763" on="1"/>
        <pt x="536" y="875" on="1"/>
        <pt x="572" y="833" on="1"/>
      </contour>
      <contour>
        <pt x="355" y="0" on="1"/>
        <pt x="213" y="489" on="1"/>
        <pt x="208" y="489" on="1"/>
        <pt x="116" y="0" on="1"/>
        <pt x="40" y="0" on="1"/>
        <pt x="160" y="619" on="1"/>
        <pt x="245" y="621" on="1"/>
        <pt x="381" y="141" on="1"/>
        <pt x="386" y="141" on="1"/>
        <pt x="477" y="620" on="1"/>
        <pt x="553" y="620" on="1"/>
        <pt x="432" y="0" on="1"/>
      </contour>
    </TTGlyph>
    <TTGlyph name="Ncommaaccent" xMin="40" yMin="-275" xMax="553" yMax="621">
      <contour>
        <pt x="355" y="0" on="1"/>
        <pt x="213" y="489" on="1"/>
        <pt x="208" y="489" on="1"/>
        <pt x="116" y="0" on="1"/>
        <pt x="40" y="0" on="1"/>
        <pt x="160" y="619" on="1"/>
        <pt x="245" y="621" on="1"/>
        <pt x="381" y="141" on="1"/>
        <pt x="386" y="141" on="1"/>
        <pt x="477" y="620" on="1"/>
        <pt x="553" y="620" on="1"/>
        <pt x="432" y="0" on="1"/>
      </contour>
      <contour>
        <pt x="134" y="-259" on="1"/>
        <pt x="158" y="-222" on="0"/>
        <pt x="177" y="-154" on="0"/>
        <pt x="177" y="-121" on="1"/>
        <pt x="177" y="-108" on="0"/>
        <pt x="174" y="-83" on="0"/>
        <pt x="172" y="-71" on="1"/>
        <pt x="274" y="-68" on="1"/>
        <pt x="272" y="-120" on="0"/>
        <pt x="217" y="-228" on="0"/>
        <pt x="165" y="-275" on="1"/>
      </contour>
    </TTGlyph>
    <TTGlyph name="Ntilde" xMin="40" yMin="0" xMax="596" yMax="863">
      <contour>
        <pt x="462" y="760" on="1"/>
        <pt x="482" y="760" on="0"/>
        <pt x="529" y="817" on="0"/>
        <pt x="556" y="860" on="1"/>
        <pt x="596" y="836" on="1"/>
        <pt x="559" y="773" on="0"/>
        <pt x="484" y="700" on="0"/>
        <pt x="446" y="700" on="1"/>
        <pt x="421" y="700" on="0"/>
        <pt x="385" y="732" on="0"/>
        <pt x="356" y="770" on="0"/>
        <pt x="329" y="802" on="0"/>
        <pt x="313" y="802" on="1"/>
        <pt x="293" y="802" on="0"/>
        <pt x="247" y="750" on="0"/>
        <pt x="219" y="707" on="1"/>
        <pt x="179" y="730" on="1"/>
        <pt x="216" y="793" on="0"/>
        <pt x="292" y="863" on="0"/>
        <pt x="329" y="863" on="1"/>
        <pt x="354" y="863" on="0"/>
        <pt x="390" y="831" on="0"/>
        <pt x="419" y="792" on="0"/>
        <pt x="446" y="760" on="0"/>
      </contour>
      <contour>
        <pt x="355" y="0" on="1"/>
        <pt x="213" y="489" on="1"/>
        <pt x="208" y="489" on="1"/>
        <pt x="116" y="0" on="1"/>
        <pt x="40" y="0" on="1"/>
        <pt x="160" y="619" on="1"/>
        <pt x="245" y="621" on="1"/>
        <pt x="381" y="141" on="1"/>
        <pt x="386" y="141" on="1"/>
        <pt x="477" y="620" on="1"/>
        <pt x="553" y="620" on="1"/>
        <pt x="432" y="0" on="1"/>
      </contour>
    </TTGlyph>
    <TTGlyph name="O" xMin="60" yMin="-12" xMax="530" yMax="632">
      <contour>
        <pt x="350" y="632" on="1"/>
        <pt x="429" y="632" on="0"/>
        <pt x="530" y="516" on="0"/>
        <pt x="530" y="399" on="1"/>
        <pt x="530" y="321" on="0"/>
        <pt x="487" y="173" on="0"/>
        <pt x="410" y="58" on="0"/>
        <pt x="303" y="-12" on="0"/>
        <pt x="240" y="-12" on="1"/>
        <pt x="161" y="-12" on="0"/>
        <pt x="60" y="103" on="0"/>
        <pt x="60" y="220" on="1"/>
        <pt x="60" y="298" on="0"/>
        <pt x="103" y="447" on="0"/>
        <pt x="180" y="561" on="0"/>
        <pt x="287" y="632" on="0"/>
      </contour>
      <contour>
        <pt x="251" y="58" on="1"/>
        <pt x="294" y="58" on="0"/>
        <pt x="366" y="117" on="0"/>
        <pt x="417" y="212" on="0"/>
        <pt x="446" y="333" on="0"/>
        <pt x="446" y="395" on="1"/>
        <pt x="446" y="479" on="0"/>
        <pt x="388" y="562" on="0"/>
        <pt x="339" y="562" on="1"/>
        <pt x="296" y="562" on="0"/>
        <pt x="224" y="503" on="0"/>
        <pt x="173" y="408" on="0"/>
        <pt x="144" y="287" on="0"/>
        <pt x="144" y="225" on="1"/>
        <pt x="144" y="141" on="0"/>
        <pt x="202" y="58" on="0"/>
      </contour>
    </TTGlyph>
    <TTGlyph name="OE" xMin="53" yMin="0" xMax="595" yMax="620">
      <contour>
        <pt x="134" y="210" on="1"/>
        <pt x="134" y="135" on="0"/>
        <pt x="195" y="69" on="0"/>
        <pt x="251" y="68" on="1"/>
        <pt x="345" y="552" on="1"/>
        <pt x="282" y="551" on="0"/>
        <pt x="200" y="471" on="0"/>
        <pt x="153" y="362" on="0"/>
        <pt x="134" y="247" on="0"/>
      </contour>
      <contour>
        <pt x="492" y="68" on="1"/>
        <pt x="473" y="0" on="1"/>
        <pt x="265" y="0" on="1"/>
        <pt x="171" y="0" on="0"/>
        <pt x="53" y="88" on="0"/>
        <pt x="53" y="207" on="1"/>
        <pt x="53" y="260" on="0"/>
        <pt x="83" y="403" on="0"/>
        <pt x="159" y="531" on="0"/>
        <pt x="292" y="620" on="0"/>
        <pt x="394" y="620" on="1"/>
        <pt x="595" y="620" on="1"/>
        <pt x="583" y="552" on="1"/>
        <pt x="418" y="552" on="1"/>
        <pt x="377" y="342" on="1"/>
        <pt x="514" y="342" on="1"/>
        <pt x="502" y="285" on="1"/>
        <pt x="366" y="285" on="1"/>
        <pt x="324" y="68" on="1"/>
      </contour>
    </TTGlyph>
    <TTGlyph name="Oacute" xMin="60" yMin="-12" xMax="530" yMax="906">
      <contour>
        <pt x="253" y="737" on="1"/>
        <pt x="277" y="752" on="0"/>
        <pt x="335" y="792" on="0"/>
        <pt x="393" y="838" on="0"/>
        <pt x="448" y="885" on="0"/>
        <pt x="469" y="906" on="1"/>
        <pt x="524" y="843" on="1"/>
        <pt x="499" y="824" on="0"/>
        <pt x="434" y="784" on="0"/>
        <pt x="365" y="747" on="0"/>
        <pt x="297" y="714" on="0"/>
        <pt x="269" y="702" on="1"/>
      </contour>
      <contour>
        <pt x="350" y="632" on="1"/>
        <pt x="429" y="632" on="0"/>
        <pt x="530" y="516" on="0"/>
        <pt x="530" y="399" on="1"/>
        <pt x="530" y="321" on="0"/>
        <pt x="487" y="173" on="0"/>
        <pt x="410" y="58" on="0"/>
        <pt x="303" y="-12" on="0"/>
        <pt x="240" y="-12" on="1"/>
        <pt x="161" y="-12" on="0"/>
        <pt x="60" y="103" on="0"/>
        <pt x="60" y="220" on="1"/>
        <pt x="60" y="298" on="0"/>
        <pt x="103" y="447" on="0"/>
        <pt x="180" y="561" on="0"/>
        <pt x="287" y="632" on="0"/>
      </contour>
      <contour>
        <pt x="251" y="58" on="1"/>
        <pt x="294" y="58" on="0"/>
        <pt x="366" y="117" on="0"/>
        <pt x="417" y="212" on="0"/>
        <pt x="446" y="333" on="0"/>
        <pt x="446" y="395" on="1"/>
        <pt x="446" y="479" on="0"/>
        <pt x="388" y="562" on="0"/>
        <pt x="339" y="562" on="1"/>
        <pt x="296" y="562" on="0"/>
        <pt x="224" y="503" on="0"/>
        <pt x="173" y="408" on="0"/>
        <pt x="144" y="287" on="0"/>
        <pt x="144" y="225" on="1"/>
        <pt x="144" y="141" on="0"/>
        <pt x="202" y="58" on="0"/>
      </contour>
    </TTGlyph>
    <TTGlyph name="Obreve" xMin="60" yMin="-12" xMax="586" yMax="886">
      <contour>
        <pt x="541" y="881" on="1"/>
        <pt x="586" y="853" on="1"/>
        <pt x="535" y="785" on="0"/>
        <pt x="427" y="709" on="0"/>
        <pt x="374" y="709" on="1"/>
        <pt x="323" y="709" on="0"/>
        <pt x="243" y="781" on="0"/>
        <pt x="215" y="855" on="1"/>
        <pt x="275" y="886" on="1"/>
        <pt x="300" y="825" on="0"/>
        <pt x="353" y="772" on="0"/>
        <pt x="390" y="772" on="1"/>
        <pt x="429" y="772" on="0"/>
        <pt x="499" y="830" on="0"/>
      </contour>
      <contour>
        <pt x="350" y="632" on="1"/>
        <pt x="429" y="632" on="0"/>
        <pt x="530" y="516" on="0"/>
        <pt x="530" y="399" on="1"/>
        <pt x="530" y="321" on="0"/>
        <pt x="487" y="173" on="0"/>
        <pt x="410" y="58" on="0"/>
        <pt x="303" y="-12" on="0"/>
        <pt x="240" y="-12" on="1"/>
        <pt x="161" y="-12" on="0"/>
        <pt x="60" y="103" on="0"/>
        <pt x="60" y="220" on="1"/>
        <pt x="60" y="298" on="0"/>
        <pt x="103" y="447" on="0"/>
        <pt x="180" y="561" on="0"/>
        <pt x="287" y="632" on="0"/>
      </contour>
      <contour>
        <pt x="251" y="58" on="1"/>
        <pt x="294" y="58" on="0"/>
        <pt x="366" y="117" on="0"/>
        <pt x="417" y="212" on="0"/>
        <pt x="446" y="333" on="0"/>
        <pt x="446" y="395" on="1"/>
        <pt x="446" y="479" on="0"/>
        <pt x="388" y="562" on="0"/>
        <pt x="339" y="562" on="1"/>
        <pt x="296" y="562" on="0"/>
        <pt x="224" y="503" on="0"/>
        <pt x="173" y="408" on="0"/>
        <pt x="144" y="287" on="0"/>
        <pt x="144" y="225" on="1"/>
        <pt x="144" y="141" on="0"/>
        <pt x="202" y="58" on="0"/>
      </contour>
    </TTGlyph>
    <TTGlyph name="Ocircumflex" xMin="60" yMin="-12" xMax="554" yMax="894">
      <contour>
        <pt x="500" y="702" on="1"/>
        <pt x="399" y="817" on="1"/>
        <pt x="241" y="706" on="1"/>
        <pt x="206" y="747" on="1"/>
        <pt x="411" y="894" on="1"/>
        <pt x="415" y="894" on="1"/>
        <pt x="554" y="744" on="1"/>
      </contour>
      <contour>
        <pt x="350" y="632" on="1"/>
        <pt x="429" y="632" on="0"/>
        <pt x="530" y="516" on="0"/>
        <pt x="530" y="399" on="1"/>
        <pt x="530" y="321" on="0"/>
        <pt x="487" y="173" on="0"/>
        <pt x="410" y="58" on="0"/>
        <pt x="303" y="-12" on="0"/>
        <pt x="240" y="-12" on="1"/>
        <pt x="161" y="-12" on="0"/>
        <pt x="60" y="103" on="0"/>
        <pt x="60" y="220" on="1"/>
        <pt x="60" y="298" on="0"/>
        <pt x="103" y="447" on="0"/>
        <pt x="180" y="561" on="0"/>
        <pt x="287" y="632" on="0"/>
      </contour>
      <contour>
        <pt x="251" y="58" on="1"/>
        <pt x="294" y="58" on="0"/>
        <pt x="366" y="117" on="0"/>
        <pt x="417" y="212" on="0"/>
        <pt x="446" y="333" on="0"/>
        <pt x="446" y="395" on="1"/>
        <pt x="446" y="479" on="0"/>
        <pt x="388" y="562" on="0"/>
        <pt x="339" y="562" on="1"/>
        <pt x="296" y="562" on="0"/>
        <pt x="224" y="503" on="0"/>
        <pt x="173" y="408" on="0"/>
        <pt x="144" y="287" on="0"/>
        <pt x="144" y="225" on="1"/>
        <pt x="144" y="141" on="0"/>
        <pt x="202" y="58" on="0"/>
      </contour>
    </TTGlyph>
    <TTGlyph name="Odieresis" xMin="60" yMin="-12" xMax="555" yMax="850">
      <contour>
        <pt x="515" y="717" on="1"/>
        <pt x="434" y="716" on="1"/>
        <pt x="465" y="848" on="1"/>
        <pt x="555" y="850" on="1"/>
      </contour>
      <contour>
        <pt x="300" y="715" on="1"/>
        <pt x="219" y="714" on="1"/>
        <pt x="251" y="846" on="1"/>
        <pt x="340" y="847" on="1"/>
      </contour>
      <contour>
        <pt x="350" y="632" on="1"/>
        <pt x="429" y="632" on="0"/>
        <pt x="530" y="516" on="0"/>
        <pt x="530" y="399" on="1"/>
        <pt x="530" y="321" on="0"/>
        <pt x="487" y="173" on="0"/>
        <pt x="410" y="58" on="0"/>
        <pt x="303" y="-12" on="0"/>
        <pt x="240" y="-12" on="1"/>
        <pt x="161" y="-12" on="0"/>
        <pt x="60" y="103" on="0"/>
        <pt x="60" y="220" on="1"/>
        <pt x="60" y="298" on="0"/>
        <pt x="103" y="447" on="0"/>
        <pt x="180" y="561" on="0"/>
        <pt x="287" y="632" on="0"/>
      </contour>
      <contour>
        <pt x="251" y="58" on="1"/>
        <pt x="294" y="58" on="0"/>
        <pt x="366" y="117" on="0"/>
        <pt x="417" y="212" on="0"/>
        <pt x="446" y="333" on="0"/>
        <pt x="446" y="395" on="1"/>
        <pt x="446" y="479" on="0"/>
        <pt x="388" y="562" on="0"/>
        <pt x="339" y="562" on="1"/>
        <pt x="296" y="562" on="0"/>
        <pt x="224" y="503" on="0"/>
        <pt x="173" y="408" on="0"/>
        <pt x="144" y="287" on="0"/>
        <pt x="144" y="225" on="1"/>
        <pt x="144" y="141" on="0"/>
        <pt x="202" y="58" on="0"/>
      </contour>
    </TTGlyph>
    <TTGlyph name="Ograve" xMin="60" yMin="-12" xMax="530" yMax="911">
      <contour>
        <pt x="494" y="729" on="1"/>
        <pt x="474" y="696" on="1"/>
        <pt x="450" y="708" on="0"/>
        <pt x="392" y="744" on="0"/>
        <pt x="332" y="786" on="0"/>
        <pt x="276" y="829" on="0"/>
        <pt x="254" y="849" on="1"/>
        <pt x="307" y="911" on="1"/>
        <pt x="344" y="867" on="0"/>
        <pt x="451" y="762" on="0"/>
      </contour>
      <contour>
        <pt x="350" y="632" on="1"/>
        <pt x="429" y="632" on="0"/>
        <pt x="530" y="516" on="0"/>
        <pt x="530" y="399" on="1"/>
        <pt x="530" y="321" on="0"/>
        <pt x="487" y="173" on="0"/>
        <pt x="410" y="58" on="0"/>
        <pt x="303" y="-12" on="0"/>
        <pt x="240" y="-12" on="1"/>
        <pt x="161" y="-12" on="0"/>
        <pt x="60" y="103" on="0"/>
        <pt x="60" y="220" on="1"/>
        <pt x="60" y="298" on="0"/>
        <pt x="103" y="447" on="0"/>
        <pt x="180" y="561" on="0"/>
        <pt x="287" y="632" on="0"/>
      </contour>
      <contour>
        <pt x="251" y="58" on="1"/>
        <pt x="294" y="58" on="0"/>
        <pt x="366" y="117" on="0"/>
        <pt x="417" y="212" on="0"/>
        <pt x="446" y="333" on="0"/>
        <pt x="446" y="395" on="1"/>
        <pt x="446" y="479" on="0"/>
        <pt x="388" y="562" on="0"/>
        <pt x="339" y="562" on="1"/>
        <pt x="296" y="562" on="0"/>
        <pt x="224" y="503" on="0"/>
        <pt x="173" y="408" on="0"/>
        <pt x="144" y="287" on="0"/>
        <pt x="144" y="225" on="1"/>
        <pt x="144" y="141" on="0"/>
        <pt x="202" y="58" on="0"/>
      </contour>
    </TTGlyph>
    <TTGlyph name="Ohungarumlaut" xMin="60" yMin="-12" xMax="641" yMax="924">
      <contour>
        <pt x="254" y="703" on="1"/>
        <pt x="220" y="730" on="1"/>
        <pt x="238" y="750" on="0"/>
        <pt x="276" y="800" on="0"/>
        <pt x="312" y="852" on="0"/>
        <pt x="345" y="903" on="0"/>
        <pt x="357" y="924" on="1"/>
        <pt x="433" y="883" on="1"/>
        <pt x="401" y="843" on="0"/>
        <pt x="300" y="741" on="0"/>
      </contour>
      <contour>
        <pt x="464" y="703" on="1"/>
        <pt x="429" y="730" on="1"/>
        <pt x="464" y="770" on="0"/>
        <pt x="539" y="876" on="0"/>
        <pt x="563" y="919" on="1"/>
        <pt x="641" y="882" on="1"/>
        <pt x="609" y="842" on="0"/>
        <pt x="510" y="740" on="0"/>
      </contour>
      <contour>
        <pt x="350" y="632" on="1"/>
        <pt x="429" y="632" on="0"/>
        <pt x="530" y="516" on="0"/>
        <pt x="530" y="399" on="1"/>
        <pt x="530" y="321" on="0"/>
        <pt x="487" y="173" on="0"/>
        <pt x="410" y="58" on="0"/>
        <pt x="303" y="-12" on="0"/>
        <pt x="240" y="-12" on="1"/>
        <pt x="161" y="-12" on="0"/>
        <pt x="60" y="103" on="0"/>
        <pt x="60" y="220" on="1"/>
        <pt x="60" y="298" on="0"/>
        <pt x="103" y="447" on="0"/>
        <pt x="180" y="561" on="0"/>
        <pt x="287" y="632" on="0"/>
      </contour>
      <contour>
        <pt x="251" y="58" on="1"/>
        <pt x="294" y="58" on="0"/>
        <pt x="366" y="117" on="0"/>
        <pt x="417" y="212" on="0"/>
        <pt x="446" y="333" on="0"/>
        <pt x="446" y="395" on="1"/>
        <pt x="446" y="479" on="0"/>
        <pt x="388" y="562" on="0"/>
        <pt x="339" y="562" on="1"/>
        <pt x="296" y="562" on="0"/>
        <pt x="224" y="503" on="0"/>
        <pt x="173" y="408" on="0"/>
        <pt x="144" y="287" on="0"/>
        <pt x="144" y="225" on="1"/>
        <pt x="144" y="141" on="0"/>
        <pt x="202" y="58" on="0"/>
      </contour>
    </TTGlyph>
    <TTGlyph name="Omacron" xMin="60" yMin="-12" xMax="559" yMax="817">
      <contour>
        <pt x="559" y="817" on="1"/>
        <pt x="546" y="751" on="1"/>
        <pt x="216" y="751" on="1"/>
        <pt x="229" y="817" on="1"/>
      </contour>
      <contour>
        <pt x="350" y="632" on="1"/>
        <pt x="429" y="632" on="0"/>
        <pt x="530" y="516" on="0"/>
        <pt x="530" y="399" on="1"/>
        <pt x="530" y="321" on="0"/>
        <pt x="487" y="173" on="0"/>
        <pt x="410" y="58" on="0"/>
        <pt x="303" y="-12" on="0"/>
        <pt x="240" y="-12" on="1"/>
        <pt x="161" y="-12" on="0"/>
        <pt x="60" y="103" on="0"/>
        <pt x="60" y="220" on="1"/>
        <pt x="60" y="298" on="0"/>
        <pt x="103" y="447" on="0"/>
        <pt x="180" y="561" on="0"/>
        <pt x="287" y="632" on="0"/>
      </contour>
      <contour>
        <pt x="251" y="58" on="1"/>
        <pt x="294" y="58" on="0"/>
        <pt x="366" y="117" on="0"/>
        <pt x="417" y="212" on="0"/>
        <pt x="446" y="333" on="0"/>
        <pt x="446" y="395" on="1"/>
        <pt x="446" y="479" on="0"/>
        <pt x="388" y="562" on="0"/>
        <pt x="339" y="562" on="1"/>
        <pt x="296" y="562" on="0"/>
        <pt x="224" y="503" on="0"/>
        <pt x="173" y="408" on="0"/>
        <pt x="144" y="287" on="0"/>
        <pt x="144" y="225" on="1"/>
        <pt x="144" y="141" on="0"/>
        <pt x="202" y="58" on="0"/>
      </contour>
    </TTGlyph>
    <TTGlyph name="Omega" xMin="4" yMin="0" xMax="509" yMax="632">
      <contour>
        <pt x="188" y="5" on="1"/>
        <pt x="185" y="0" on="1"/>
        <pt x="4" y="0" on="1"/>
        <pt x="17" y="65" on="1"/>
        <pt x="119" y="65" on="1"/>
        <pt x="105" y="122" on="0"/>
        <pt x="88" y="233" on="0"/>
        <pt x="88" y="288" on="1"/>
        <pt x="88" y="363" on="0"/>
        <pt x="119" y="490" on="0"/>
        <pt x="181" y="581" on="0"/>
        <pt x="273" y="632" on="0"/>
        <pt x="333" y="632" on="1"/>
        <pt x="417" y="632" on="0"/>
        <pt x="509" y="527" on="0"/>
        <pt x="509" y="437" on="1"/>
        <pt x="509" y="361" on="0"/>
        <pt x="443" y="173" on="0"/>
        <pt x="376" y="65" on="1"/>
        <pt x="472" y="65" on="1"/>
        <pt x="460" y="0" on="1"/>
        <pt x="280" y="0" on="1"/>
        <pt x="279" y="5" on="1"/>
        <pt x="356" y="142" on="0"/>
        <pt x="430" y="348" on="0"/>
        <pt x="430" y="423" on="1"/>
        <pt x="430" y="489" on="0"/>
        <pt x="372" y="561" on="0"/>
        <pt x="320" y="561" on="1"/>
        <pt x="281" y="561" on="0"/>
        <pt x="221" y="518" on="0"/>
        <pt x="180" y="440" on="0"/>
        <pt x="159" y="330" on="0"/>
        <pt x="159" y="265" on="1"/>
        <pt x="159" y="187" on="0"/>
        <pt x="175" y="68" on="0"/>
      </contour>
    </TTGlyph>
    <TTGlyph name="Oslash" xMin="24" yMin="-37" xMax="565" yMax="657">
      <contour>
        <pt x="145" y="231" on="1"/>
        <pt x="145" y="210" on="0"/>
        <pt x="148" y="174" on="0"/>
        <pt x="152" y="158" on="1"/>
        <pt x="418" y="517" on="1"/>
        <pt x="404" y="541" on="0"/>
        <pt x="361" y="564" on="0"/>
        <pt x="335" y="564" on="1"/>
        <pt x="293" y="564" on="0"/>
        <pt x="223" y="506" on="0"/>
        <pt x="173" y="413" on="0"/>
        <pt x="145" y="293" on="0"/>
      </contour>
      <contour>
        <pt x="255" y="56" on="1"/>
        <pt x="297" y="56" on="0"/>
        <pt x="367" y="114" on="0"/>
        <pt x="417" y="207" on="0"/>
        <pt x="445" y="328" on="0"/>
        <pt x="445" y="390" on="1"/>
        <pt x="445" y="411" on="0"/>
        <pt x="442" y="449" on="0"/>
        <pt x="438" y="465" on="1"/>
        <pt x="171" y="104" on="1"/>
        <pt x="185" y="80" on="0"/>
        <pt x="227" y="56" on="0"/>
      </contour>
      <contour>
        <pt x="243" y="-13" on="1"/>
        <pt x="207" y="-13" on="0"/>
        <pt x="147" y="10" on="0"/>
        <pt x="124" y="33" on="1"/>
        <pt x="72" y="-37" on="1"/>
        <pt x="24" y="-5" on="1"/>
        <pt x="90" y="83" on="1"/>
        <pt x="77" y="111" on="0"/>
        <pt x="62" y="183" on="0"/>
        <pt x="62" y="228" on="1"/>
        <pt x="62" y="305" on="0"/>
        <pt x="105" y="452" on="0"/>
        <pt x="180" y="564" on="0"/>
        <pt x="285" y="633" on="0"/>
        <pt x="347" y="633" on="1"/>
        <pt x="383" y="633" on="0"/>
        <pt x="443" y="610" on="0"/>
        <pt x="466" y="587" on="1"/>
        <pt x="518" y="657" on="1"/>
        <pt x="565" y="625" on="1"/>
        <pt x="500" y="539" on="1"/>
        <pt x="513" y="511" on="0"/>
        <pt x="528" y="437" on="0"/>
        <pt x="528" y="392" on="1"/>
        <pt x="528" y="315" on="0"/>
        <pt x="486" y="169" on="0"/>
        <pt x="411" y="56" on="0"/>
        <pt x="305" y="-13" on="0"/>
      </contour>
    </TTGlyph>
    <TTGlyph name="Oslashacute" xMin="24" yMin="-37" xMax="565" yMax="906">
      <contour>
        <pt x="252" y="737" on="1"/>
        <pt x="276" y="752" on="0"/>
        <pt x="334" y="792" on="0"/>
        <pt x="392" y="838" on="0"/>
        <pt x="447" y="885" on="0"/>
        <pt x="468" y="906" on="1"/>
        <pt x="523" y="843" on="1"/>
        <pt x="498" y="824" on="0"/>
        <pt x="433" y="784" on="0"/>
        <pt x="364" y="747" on="0"/>
        <pt x="296" y="714" on="0"/>
        <pt x="268" y="702" on="1"/>
      </contour>
      <contour>
        <pt x="145" y="231" on="1"/>
        <pt x="145" y="210" on="0"/>
        <pt x="148" y="174" on="0"/>
        <pt x="152" y="158" on="1"/>
        <pt x="418" y="517" on="1"/>
        <pt x="404" y="541" on="0"/>
        <pt x="361" y="564" on="0"/>
        <pt x="335" y="564" on="1"/>
        <pt x="293" y="564" on="0"/>
        <pt x="223" y="506" on="0"/>
        <pt x="173" y="413" on="0"/>
        <pt x="145" y="293" on="0"/>
      </contour>
      <contour>
        <pt x="255" y="56" on="1"/>
        <pt x="297" y="56" on="0"/>
        <pt x="367" y="114" on="0"/>
        <pt x="417" y="207" on="0"/>
        <pt x="445" y="328" on="0"/>
        <pt x="445" y="390" on="1"/>
        <pt x="445" y="411" on="0"/>
        <pt x="442" y="449" on="0"/>
        <pt x="438" y="465" on="1"/>
        <pt x="171" y="104" on="1"/>
        <pt x="185" y="80" on="0"/>
        <pt x="227" y="56" on="0"/>
      </contour>
      <contour>
        <pt x="243" y="-13" on="1"/>
        <pt x="207" y="-13" on="0"/>
        <pt x="147" y="10" on="0"/>
        <pt x="124" y="33" on="1"/>
        <pt x="72" y="-37" on="1"/>
        <pt x="24" y="-5" on="1"/>
        <pt x="90" y="83" on="1"/>
        <pt x="77" y="111" on="0"/>
        <pt x="62" y="183" on="0"/>
        <pt x="62" y="228" on="1"/>
        <pt x="62" y="305" on="0"/>
        <pt x="105" y="452" on="0"/>
        <pt x="180" y="564" on="0"/>
        <pt x="285" y="633" on="0"/>
        <pt x="347" y="633" on="1"/>
        <pt x="383" y="633" on="0"/>
        <pt x="443" y="610" on="0"/>
        <pt x="466" y="587" on="1"/>
        <pt x="518" y="657" on="1"/>
        <pt x="565" y="625" on="1"/>
        <pt x="500" y="539" on="1"/>
        <pt x="513" y="511" on="0"/>
        <pt x="528" y="437" on="0"/>
        <pt x="528" y="392" on="1"/>
        <pt x="528" y="315" on="0"/>
        <pt x="486" y="169" on="0"/>
        <pt x="411" y="56" on="0"/>
        <pt x="305" y="-13" on="0"/>
      </contour>
    </TTGlyph>
    <TTGlyph name="Otilde" xMin="60" yMin="-12" xMax="597" yMax="875">
      <contour>
        <pt x="463" y="772" on="1"/>
        <pt x="483" y="772" on="0"/>
        <pt x="530" y="829" on="0"/>
        <pt x="557" y="872" on="1"/>
        <pt x="597" y="848" on="1"/>
        <pt x="560" y="785" on="0"/>
        <pt x="485" y="712" on="0"/>
        <pt x="447" y="712" on="1"/>
        <pt x="422" y="712" on="0"/>
        <pt x="386" y="744" on="0"/>
        <pt x="357" y="782" on="0"/>
        <pt x="330" y="814" on="0"/>
        <pt x="314" y="814" on="1"/>
        <pt x="294" y="814" on="0"/>
        <pt x="248" y="762" on="0"/>
        <pt x="220" y="719" on="1"/>
        <pt x="180" y="742" on="1"/>
        <pt x="217" y="805" on="0"/>
        <pt x="293" y="875" on="0"/>
        <pt x="330" y="875" on="1"/>
        <pt x="355" y="875" on="0"/>
        <pt x="391" y="843" on="0"/>
        <pt x="420" y="804" on="0"/>
        <pt x="447" y="772" on="0"/>
      </contour>
      <contour>
        <pt x="350" y="632" on="1"/>
        <pt x="429" y="632" on="0"/>
        <pt x="530" y="516" on="0"/>
        <pt x="530" y="399" on="1"/>
        <pt x="530" y="321" on="0"/>
        <pt x="487" y="173" on="0"/>
        <pt x="410" y="58" on="0"/>
        <pt x="303" y="-12" on="0"/>
        <pt x="240" y="-12" on="1"/>
        <pt x="161" y="-12" on="0"/>
        <pt x="60" y="103" on="0"/>
        <pt x="60" y="220" on="1"/>
        <pt x="60" y="298" on="0"/>
        <pt x="103" y="447" on="0"/>
        <pt x="180" y="561" on="0"/>
        <pt x="287" y="632" on="0"/>
      </contour>
      <contour>
        <pt x="251" y="58" on="1"/>
        <pt x="294" y="58" on="0"/>
        <pt x="366" y="117" on="0"/>
        <pt x="417" y="212" on="0"/>
        <pt x="446" y="333" on="0"/>
        <pt x="446" y="395" on="1"/>
        <pt x="446" y="479" on="0"/>
        <pt x="388" y="562" on="0"/>
        <pt x="339" y="562" on="1"/>
        <pt x="296" y="562" on="0"/>
        <pt x="224" y="503" on="0"/>
        <pt x="173" y="408" on="0"/>
        <pt x="144" y="287" on="0"/>
        <pt x="144" y="225" on="1"/>
        <pt x="144" y="141" on="0"/>
        <pt x="202" y="58" on="0"/>
      </contour>
    </TTGlyph>
    <TTGlyph name="P" xMin="52" yMin="0" xMax="541" yMax="626">
      <contour>
        <pt x="133" y="0" on="1"/>
        <pt x="52" y="0" on="1"/>
        <pt x="172" y="617" on="1"/>
        <pt x="204" y="621" on="0"/>
        <pt x="263" y="626" on="0"/>
        <pt x="289" y="626" on="1"/>
        <pt x="422" y="626" on="0"/>
        <pt x="541" y="529" on="0"/>
        <pt x="541" y="457" on="1"/>
        <pt x="541" y="352" on="0"/>
        <pt x="346" y="215" on="0"/>
        <pt x="172" y="199" on="1"/>
      </contour>
      <contour>
        <pt x="298" y="557" on="1"/>
        <pt x="285" y="557" on="0"/>
        <pt x="256" y="555" on="0"/>
        <pt x="241" y="554" on="1"/>
        <pt x="186" y="274" on="1"/>
        <pt x="195" y="274" on="1"/>
        <pt x="325" y="274" on="0"/>
        <pt x="462" y="369" on="0"/>
        <pt x="462" y="444" on="1"/>
        <pt x="462" y="495" on="0"/>
        <pt x="382" y="557" on="0"/>
      </contour>
    </TTGlyph>
    <TTGlyph name="Q" xMin="74" yMin="-138" xMax="533" yMax="633">
      <contour>
        <pt x="415" y="-138" on="1"/>
        <pt x="130" y="-12" on="1"/>
        <pt x="150" y="46" on="1"/>
        <pt x="216" y="72" on="0"/>
        <pt x="327" y="154" on="0"/>
        <pt x="406" y="252" on="0"/>
        <pt x="450" y="363" on="0"/>
        <pt x="450" y="419" on="1"/>
        <pt x="450" y="489" on="0"/>
        <pt x="387" y="564" on="0"/>
        <pt x="330" y="564" on="1"/>
        <pt x="255" y="564" on="0"/>
        <pt x="154" y="420" on="0"/>
        <pt x="154" y="300" on="1"/>
        <pt x="154" y="263" on="0"/>
        <pt x="165" y="181" on="0"/>
        <pt x="177" y="137" on="1"/>
        <pt x="108" y="111" on="1"/>
        <pt x="91" y="160" on="0"/>
        <pt x="74" y="254" on="0"/>
        <pt x="74" y="298" on="1"/>
        <pt x="74" y="369" on="0"/>
        <pt x="114" y="492" on="0"/>
        <pt x="185" y="582" on="0"/>
        <pt x="285" y="633" on="0"/>
        <pt x="344" y="633" on="1"/>
        <pt x="437" y="633" on="0"/>
        <pt x="533" y="517" on="0"/>
        <pt x="533" y="424" on="1"/>
        <pt x="533" y="361" on="0"/>
        <pt x="487" y="242" on="0"/>
        <pt x="408" y="139" on="0"/>
        <pt x="300" y="52" on="0"/>
        <pt x="238" y="21" on="1"/>
        <pt x="449" y="-72" on="1"/>
      </contour>
    </TTGlyph>
    <TTGlyph name="R" xMin="48" yMin="-6" xMax="520" yMax="627">
      <contour>
        <pt x="401" y="-6" on="1"/>
        <pt x="238" y="277" on="1"/>
        <pt x="239" y="280" on="1"/>
        <pt x="345" y="327" on="0"/>
        <pt x="439" y="413" on="0"/>
        <pt x="439" y="465" on="1"/>
        <pt x="439" y="508" on="0"/>
        <pt x="366" y="558" on="0"/>
        <pt x="294" y="558" on="1"/>
        <pt x="281" y="558" on="0"/>
        <pt x="252" y="556" on="0"/>
        <pt x="236" y="555" on="1"/>
        <pt x="128" y="0" on="1"/>
        <pt x="48" y="0" on="1"/>
        <pt x="168" y="618" on="1"/>
        <pt x="201" y="622" on="0"/>
        <pt x="261" y="627" on="0"/>
        <pt x="287" y="627" on="1"/>
        <pt x="412" y="627" on="0"/>
        <pt x="520" y="542" on="0"/>
        <pt x="520" y="481" on="1"/>
        <pt x="520" y="413" on="0"/>
        <pt x="420" y="309" on="0"/>
        <pt x="333" y="266" on="1"/>
        <pt x="489" y="6" on="1"/>
      </contour>
    </TTGlyph>
    <TTGlyph name="R_p" xMin="15" yMin="-176" xMax="563" yMax="624">
      <contour>
        <pt x="189" y="-5" on="1"/>
        <pt x="144" y="276" on="1"/>
        <pt x="144" y="279" on="1"/>
        <pt x="205" y="339" on="0"/>
        <pt x="261" y="442" on="0"/>
        <pt x="261" y="490" on="1"/>
        <pt x="261" y="526" on="0"/>
        <pt x="228" y="561" on="0"/>
        <pt x="194" y="561" on="1"/>
        <pt x="193" y="561" on="0"/>
        <pt x="192" y="561" on="0"/>
        <pt x="191" y="561" on="1"/>
        <pt x="80" y="0" on="1"/>
        <pt x="15" y="0" on="1"/>
        <pt x="136" y="620" on="1"/>
        <pt x="151" y="622" on="0"/>
        <pt x="178" y="624" on="0"/>
        <pt x="191" y="624" on="1"/>
        <pt x="262" y="624" on="0"/>
        <pt x="327" y="560" on="0"/>
        <pt x="327" y="505" on="1"/>
        <pt x="327" y="443" on="0"/>
        <pt x="265" y="331" on="0"/>
        <pt x="208" y="275" on="1"/>
        <pt x="257" y="6" on="1"/>
      </contour>
      <contour>
        <pt x="390" y="59" on="1"/>
        <pt x="410" y="59" on="0"/>
        <pt x="448" y="124" on="0"/>
        <pt x="478" y="219" on="0"/>
        <pt x="497" y="328" on="0"/>
        <pt x="497" y="371" on="1"/>
        <pt x="497" y="402" on="0"/>
        <pt x="482" y="434" on="0"/>
        <pt x="469" y="434" on="1"/>
        <pt x="459" y="434" on="0"/>
        <pt x="434" y="421" on="0"/>
        <pt x="421" y="409" on="1"/>
        <pt x="418" y="391" on="0"/>
        <pt x="404" y="320" on="0"/>
        <pt x="387" y="228" on="0"/>
        <pt x="367" y="121" on="0"/>
        <pt x="357" y="68" on="1"/>
        <pt x="366" y="64" on="0"/>
        <pt x="383" y="59" on="0"/>
      </contour>
      <contour>
        <pt x="311" y="-169" on="1"/>
        <pt x="244" y="-176" on="1"/>
        <pt x="259" y="-98" on="0"/>
        <pt x="297" y="99" on="0"/>
        <pt x="333" y="288" on="0"/>
        <pt x="363" y="447" on="0"/>
        <pt x="370" y="487" on="1"/>
        <pt x="432" y="492" on="1"/>
        <pt x="427" y="454" on="1"/>
        <pt x="446" y="475" on="0"/>
        <pt x="489" y="502" on="0"/>
        <pt x="508" y="502" on="1"/>
        <pt x="533" y="502" on="0"/>
        <pt x="563" y="448" on="0"/>
        <pt x="563" y="390" on="1"/>
        <pt x="563" y="323" on="0"/>
        <pt x="534" y="181" on="0"/>
        <pt x="484" y="67" on="0"/>
        <pt x="415" y="-7" on="0"/>
        <pt x="375" y="-7" on="1"/>
        <pt x="368" y="-7" on="0"/>
        <pt x="351" y="-4" on="0"/>
        <pt x="343" y="-2" on="1"/>
        <pt x="333" y="-53" on="0"/>
        <pt x="317" y="-140" on="0"/>
      </contour>
    </TTGlyph>
    <TTGlyph name="Racute" xMin="48" yMin="-6" xMax="520" yMax="899">
      <contour>
        <pt x="236" y="730" on="1"/>
        <pt x="260" y="745" on="0"/>
        <pt x="318" y="785" on="0"/>
        <pt x="376" y="831" on="0"/>
        <pt x="431" y="878" on="0"/>
        <pt x="452" y="899" on="1"/>
        <pt x="507" y="836" on="1"/>
        <pt x="482" y="817" on="0"/>
        <pt x="417" y="777" on="0"/>
        <pt x="348" y="740" on="0"/>
        <pt x="280" y="707" on="0"/>
        <pt x="252" y="695" on="1"/>
      </contour>
      <contour>
        <pt x="401" y="-6" on="1"/>
        <pt x="238" y="277" on="1"/>
        <pt x="239" y="280" on="1"/>
        <pt x="345" y="327" on="0"/>
        <pt x="439" y="413" on="0"/>
        <pt x="439" y="465" on="1"/>
        <pt x="439" y="508" on="0"/>
        <pt x="366" y="558" on="0"/>
        <pt x="294" y="558" on="1"/>
        <pt x="281" y="558" on="0"/>
        <pt x="252" y="556" on="0"/>
        <pt x="236" y="555" on="1"/>
        <pt x="128" y="0" on="1"/>
        <pt x="48" y="0" on="1"/>
        <pt x="168" y="618" on="1"/>
        <pt x="201" y="622" on="0"/>
        <pt x="261" y="627" on="0"/>
        <pt x="287" y="627" on="1"/>
        <pt x="412" y="627" on="0"/>
        <pt x="520" y="542" on="0"/>
        <pt x="520" y="481" on="1"/>
        <pt x="520" y="413" on="0"/>
        <pt x="420" y="309" on="0"/>
        <pt x="333" y="266" on="1"/>
        <pt x="489" y="6" on="1"/>
      </contour>
    </TTGlyph>
    <TTGlyph name="Rcaron" xMin="48" yMin="-6" xMax="557" yMax="884">
      <contour>
        <pt x="352" y="692" on="1"/>
        <pt x="348" y="692" on="1"/>
        <pt x="208" y="842" on="1"/>
        <pt x="262" y="884" on="1"/>
        <pt x="364" y="768" on="1"/>
        <pt x="521" y="880" on="1"/>
        <pt x="557" y="838" on="1"/>
      </contour>
      <contour>
        <pt x="401" y="-6" on="1"/>
        <pt x="238" y="277" on="1"/>
        <pt x="239" y="280" on="1"/>
        <pt x="345" y="327" on="0"/>
        <pt x="439" y="413" on="0"/>
        <pt x="439" y="465" on="1"/>
        <pt x="439" y="508" on="0"/>
        <pt x="366" y="558" on="0"/>
        <pt x="294" y="558" on="1"/>
        <pt x="281" y="558" on="0"/>
        <pt x="252" y="556" on="0"/>
        <pt x="236" y="555" on="1"/>
        <pt x="128" y="0" on="1"/>
        <pt x="48" y="0" on="1"/>
        <pt x="168" y="618" on="1"/>
        <pt x="201" y="622" on="0"/>
        <pt x="261" y="627" on="0"/>
        <pt x="287" y="627" on="1"/>
        <pt x="412" y="627" on="0"/>
        <pt x="520" y="542" on="0"/>
        <pt x="520" y="481" on="1"/>
        <pt x="520" y="413" on="0"/>
        <pt x="420" y="309" on="0"/>
        <pt x="333" y="266" on="1"/>
        <pt x="489" y="6" on="1"/>
      </contour>
    </TTGlyph>
    <TTGlyph name="Rcommaaccent" xMin="48" yMin="-281" xMax="520" yMax="627">
      <contour>
        <pt x="401" y="-6" on="1"/>
        <pt x="238" y="277" on="1"/>
        <pt x="239" y="280" on="1"/>
        <pt x="345" y="327" on="0"/>
        <pt x="439" y="413" on="0"/>
        <pt x="439" y="465" on="1"/>
        <pt x="439" y="508" on="0"/>
        <pt x="366" y="558" on="0"/>
        <pt x="294" y="558" on="1"/>
        <pt x="281" y="558" on="0"/>
        <pt x="252" y="556" on="0"/>
        <pt x="236" y="555" on="1"/>
        <pt x="128" y="0" on="1"/>
        <pt x="48" y="0" on="1"/>
        <pt x="168" y="618" on="1"/>
        <pt x="201" y="622" on="0"/>
        <pt x="261" y="627" on="0"/>
        <pt x="287" y="627" on="1"/>
        <pt x="412" y="627" on="0"/>
        <pt x="520" y="542" on="0"/>
        <pt x="520" y="481" on="1"/>
        <pt x="520" y="413" on="0"/>
        <pt x="420" y="309" on="0"/>
        <pt x="333" y="266" on="1"/>
        <pt x="489" y="6" on="1"/>
      </contour>
      <contour>
        <pt x="145" y="-265" on="1"/>
        <pt x="169" y="-228" on="0"/>
        <pt x="188" y="-160" on="0"/>
        <pt x="188" y="-127" on="1"/>
        <pt x="188" y="-114" on="0"/>
        <pt x="185" y="-89" on="0"/>
        <pt x="183" y="-77" on="1"/>
        <pt x="285" y="-74" on="1"/>
        <pt x="283" y="-126" on="0"/>
        <pt x="228" y="-234" on="0"/>
        <pt x="176" y="-281" on="1"/>
      </contour>
    </TTGlyph>
    <TTGlyph name="S" xMin="29" yMin="-8" xMax="512" yMax="631">
      <contour>
        <pt x="512" y="460" on="1"/>
        <pt x="440" y="446" on="1"/>
        <pt x="430" y="507" on="0"/>
        <pt x="371" y="563" on="0"/>
        <pt x="321" y="563" on="1"/>
        <pt x="270" y="563" on="0"/>
        <pt x="205" y="501" on="0"/>
        <pt x="205" y="459" on="1"/>
        <pt x="205" y="416" on="0"/>
        <pt x="285" y="346" on="0"/>
        <pt x="381" y="276" on="0"/>
        <pt x="461" y="197" on="0"/>
        <pt x="461" y="145" on="1"/>
        <pt x="461" y="116" on="0"/>
        <pt x="433" y="61" on="0"/>
        <pt x="373" y="18" on="0"/>
        <pt x="279" y="-8" on="0"/>
        <pt x="214" y="-8" on="1"/>
        <pt x="175" y="-8" on="0"/>
        <pt x="82" y="3" on="0"/>
        <pt x="29" y="14" on="1"/>
        <pt x="45" y="94" on="1"/>
        <pt x="108" y="78" on="0"/>
        <pt x="208" y="63" on="0"/>
        <pt x="245" y="63" on="1"/>
        <pt x="317" y="63" on="0"/>
        <pt x="378" y="108" on="0"/>
        <pt x="378" y="138" on="1"/>
        <pt x="378" y="176" on="0"/>
        <pt x="298" y="242" on="0"/>
        <pt x="203" y="312" on="0"/>
        <pt x="123" y="395" on="0"/>
        <pt x="123" y="449" on="1"/>
        <pt x="123" y="484" on="0"/>
        <pt x="155" y="551" on="0"/>
        <pt x="213" y="601" on="0"/>
        <pt x="293" y="631" on="0"/>
        <pt x="340" y="631" on="1"/>
        <pt x="417" y="631" on="0"/>
        <pt x="500" y="543" on="0"/>
      </contour>
    </TTGlyph>
    <TTGlyph name="Sacute" xMin="29" yMin="-8" xMax="523" yMax="904">
      <contour>
        <pt x="252" y="735" on="1"/>
        <pt x="276" y="750" on="0"/>
        <pt x="334" y="790" on="0"/>
        <pt x="392" y="836" on="0"/>
        <pt x="447" y="883" on="0"/>
        <pt x="468" y="904" on="1"/>
        <pt x="523" y="841" on="1"/>
        <pt x="498" y="822" on="0"/>
        <pt x="433" y="782" on="0"/>
        <pt x="364" y="745" on="0"/>
        <pt x="296" y="712" on="0"/>
        <pt x="268" y="700" on="1"/>
      </contour>
      <contour>
        <pt x="512" y="460" on="1"/>
        <pt x="440" y="446" on="1"/>
        <pt x="430" y="507" on="0"/>
        <pt x="371" y="563" on="0"/>
        <pt x="321" y="563" on="1"/>
        <pt x="270" y="563" on="0"/>
        <pt x="205" y="501" on="0"/>
        <pt x="205" y="459" on="1"/>
        <pt x="205" y="416" on="0"/>
        <pt x="285" y="346" on="0"/>
        <pt x="381" y="276" on="0"/>
        <pt x="461" y="197" on="0"/>
        <pt x="461" y="145" on="1"/>
        <pt x="461" y="116" on="0"/>
        <pt x="433" y="61" on="0"/>
        <pt x="373" y="18" on="0"/>
        <pt x="279" y="-8" on="0"/>
        <pt x="214" y="-8" on="1"/>
        <pt x="175" y="-8" on="0"/>
        <pt x="82" y="3" on="0"/>
        <pt x="29" y="14" on="1"/>
        <pt x="45" y="94" on="1"/>
        <pt x="108" y="78" on="0"/>
        <pt x="208" y="63" on="0"/>
        <pt x="245" y="63" on="1"/>
        <pt x="317" y="63" on="0"/>
        <pt x="378" y="108" on="0"/>
        <pt x="378" y="138" on="1"/>
        <pt x="378" y="176" on="0"/>
        <pt x="298" y="242" on="0"/>
        <pt x="203" y="312" on="0"/>
        <pt x="123" y="395" on="0"/>
        <pt x="123" y="449" on="1"/>
        <pt x="123" y="484" on="0"/>
        <pt x="155" y="551" on="0"/>
        <pt x="213" y="601" on="0"/>
        <pt x="293" y="631" on="0"/>
        <pt x="340" y="631" on="1"/>
        <pt x="417" y="631" on="0"/>
        <pt x="500" y="543" on="0"/>
      </contour>
    </TTGlyph>
    <TTGlyph name="Scaron" xMin="29" yMin="-8" xMax="573" yMax="889">
      <contour>
        <pt x="368" y="697" on="1"/>
        <pt x="364" y="697" on="1"/>
        <pt x="224" y="847" on="1"/>
        <pt x="278" y="889" on="1"/>
        <pt x="380" y="773" on="1"/>
        <pt x="537" y="885" on="1"/>
        <pt x="573" y="843" on="1"/>
      </contour>
      <contour>
        <pt x="512" y="460" on="1"/>
        <pt x="440" y="446" on="1"/>
        <pt x="430" y="507" on="0"/>
        <pt x="371" y="563" on="0"/>
        <pt x="321" y="563" on="1"/>
        <pt x="270" y="563" on="0"/>
        <pt x="205" y="501" on="0"/>
        <pt x="205" y="459" on="1"/>
        <pt x="205" y="416" on="0"/>
        <pt x="285" y="346" on="0"/>
        <pt x="381" y="276" on="0"/>
        <pt x="461" y="197" on="0"/>
        <pt x="461" y="145" on="1"/>
        <pt x="461" y="116" on="0"/>
        <pt x="433" y="61" on="0"/>
        <pt x="373" y="18" on="0"/>
        <pt x="279" y="-8" on="0"/>
        <pt x="214" y="-8" on="1"/>
        <pt x="175" y="-8" on="0"/>
        <pt x="82" y="3" on="0"/>
        <pt x="29" y="14" on="1"/>
        <pt x="45" y="94" on="1"/>
        <pt x="108" y="78" on="0"/>
        <pt x="208" y="63" on="0"/>
        <pt x="245" y="63" on="1"/>
        <pt x="317" y="63" on="0"/>
        <pt x="378" y="108" on="0"/>
        <pt x="378" y="138" on="1"/>
        <pt x="378" y="176" on="0"/>
        <pt x="298" y="242" on="0"/>
        <pt x="203" y="312" on="0"/>
        <pt x="123" y="395" on="0"/>
        <pt x="123" y="449" on="1"/>
        <pt x="123" y="484" on="0"/>
        <pt x="155" y="551" on="0"/>
        <pt x="213" y="601" on="0"/>
        <pt x="293" y="631" on="0"/>
        <pt x="340" y="631" on="1"/>
        <pt x="417" y="631" on="0"/>
        <pt x="500" y="543" on="0"/>
      </contour>
    </TTGlyph>
    <TTGlyph name="Scedilla" xMin="29" yMin="-184" xMax="512" yMax="631">
      <contour>
        <pt x="255" y="-184" on="1"/>
        <pt x="256" y="-176" on="0"/>
        <pt x="256" y="-162" on="0"/>
        <pt x="256" y="-155" on="1"/>
        <pt x="256" y="-100" on="0"/>
        <pt x="227" y="-52" on="0"/>
        <pt x="205" y="-52" on="1"/>
        <pt x="180" y="-52" on="0"/>
        <pt x="133" y="-107" on="0"/>
        <pt x="109" y="-156" on="1"/>
        <pt x="67" y="-143" on="1"/>
        <pt x="89" y="-89" on="0"/>
        <pt x="139" y="-21" on="0"/>
        <pt x="166" y="-6" on="1"/>
        <pt x="135" y="-4" on="0"/>
        <pt x="66" y="6" on="0"/>
        <pt x="29" y="14" on="1"/>
        <pt x="45" y="94" on="1"/>
        <pt x="108" y="78" on="0"/>
        <pt x="208" y="63" on="0"/>
        <pt x="245" y="63" on="1"/>
        <pt x="317" y="63" on="0"/>
        <pt x="378" y="108" on="0"/>
        <pt x="378" y="138" on="1"/>
        <pt x="378" y="176" on="0"/>
        <pt x="298" y="242" on="0"/>
        <pt x="203" y="312" on="0"/>
        <pt x="123" y="395" on="0"/>
        <pt x="123" y="449" on="1"/>
        <pt x="123" y="484" on="0"/>
        <pt x="155" y="551" on="0"/>
        <pt x="213" y="601" on="0"/>
        <pt x="293" y="631" on="0"/>
        <pt x="340" y="631" on="1"/>
        <pt x="417" y="631" on="0"/>
        <pt x="500" y="543" on="0"/>
        <pt x="512" y="460" on="1"/>
        <pt x="440" y="446" on="1"/>
        <pt x="430" y="507" on="0"/>
        <pt x="371" y="563" on="0"/>
        <pt x="321" y="563" on="1"/>
        <pt x="270" y="563" on="0"/>
        <pt x="205" y="501" on="0"/>
        <pt x="205" y="459" on="1"/>
        <pt x="205" y="416" on="0"/>
        <pt x="285" y="346" on="0"/>
        <pt x="381" y="276" on="0"/>
        <pt x="461" y="197" on="0"/>
        <pt x="461" y="145" on="1"/>
        <pt x="461" y="93" on="0"/>
        <pt x="366" y="4" on="0"/>
        <pt x="262" y="-6" on="1"/>
        <pt x="290" y="-22" on="0"/>
        <pt x="326" y="-97" on="0"/>
        <pt x="326" y="-157" on="1"/>
        <pt x="326" y="-163" on="0"/>
        <pt x="326" y="-175" on="0"/>
        <pt x="325" y="-182" on="1"/>
      </contour>
    </TTGlyph>
    <TTGlyph name="Scommaaccent" xMin="29" yMin="-283" xMax="512" yMax="631">
      <contour>
        <pt x="512" y="460" on="1"/>
        <pt x="440" y="446" on="1"/>
        <pt x="430" y="507" on="0"/>
        <pt x="371" y="563" on="0"/>
        <pt x="321" y="563" on="1"/>
        <pt x="270" y="563" on="0"/>
        <pt x="205" y="501" on="0"/>
        <pt x="205" y="459" on="1"/>
        <pt x="205" y="416" on="0"/>
        <pt x="285" y="346" on="0"/>
        <pt x="381" y="276" on="0"/>
        <pt x="461" y="197" on="0"/>
        <pt x="461" y="145" on="1"/>
        <pt x="461" y="116" on="0"/>
        <pt x="433" y="61" on="0"/>
        <pt x="373" y="18" on="0"/>
        <pt x="279" y="-8" on="0"/>
        <pt x="214" y="-8" on="1"/>
        <pt x="175" y="-8" on="0"/>
        <pt x="82" y="3" on="0"/>
        <pt x="29" y="14" on="1"/>
        <pt x="45" y="94" on="1"/>
        <pt x="108" y="78" on="0"/>
        <pt x="208" y="63" on="0"/>
        <pt x="245" y="63" on="1"/>
        <pt x="317" y="63" on="0"/>
        <pt x="378" y="108" on="0"/>
        <pt x="378" y="138" on="1"/>
        <pt x="378" y="176" on="0"/>
        <pt x="298" y="242" on="0"/>
        <pt x="203" y="312" on="0"/>
        <pt x="123" y="395" on="0"/>
        <pt x="123" y="449" on="1"/>
        <pt x="123" y="484" on="0"/>
        <pt x="155" y="551" on="0"/>
        <pt x="213" y="601" on="0"/>
        <pt x="293" y="631" on="0"/>
        <pt x="340" y="631" on="1"/>
        <pt x="417" y="631" on="0"/>
        <pt x="500" y="543" on="0"/>
      </contour>
      <contour>
        <pt x="115" y="-267" on="1"/>
        <pt x="139" y="-230" on="0"/>
        <pt x="158" y="-162" on="0"/>
        <pt x="158" y="-129" on="1"/>
        <pt x="158" y="-116" on="0"/>
        <pt x="155" y="-91" on="0"/>
        <pt x="153" y="-79" on="1"/>
        <pt x="255" y="-76" on="1"/>
        <pt x="253" y="-128" on="0"/>
        <pt x="198" y="-236" on="0"/>
        <pt x="146" y="-283" on="1"/>
      </contour>
    </TTGlyph>
    <TTGlyph name="T" xMin="102" yMin="0" xMax="580" yMax="620">
      <contour>
        <pt x="375" y="550" on="1"/>
        <pt x="268" y="0" on="1"/>
        <pt x="187" y="0" on="1"/>
        <pt x="294" y="550" on="1"/>
        <pt x="102" y="550" on="1"/>
        <pt x="115" y="620" on="1"/>
        <pt x="580" y="620" on="1"/>
        <pt x="567" y="550" on="1"/>
      </contour>
    </TTGlyph>
    <TTGlyph name="Tcaron" xMin="102" yMin="0" xMax="580" yMax="877">
      <contour>
        <pt x="358" y="685" on="1"/>
        <pt x="354" y="685" on="1"/>
        <pt x="214" y="835" on="1"/>
        <pt x="268" y="877" on="1"/>
        <pt x="370" y="761" on="1"/>
        <pt x="527" y="873" on="1"/>
        <pt x="563" y="831" on="1"/>
      </contour>
      <contour>
        <pt x="375" y="550" on="1"/>
        <pt x="268" y="0" on="1"/>
        <pt x="187" y="0" on="1"/>
        <pt x="294" y="550" on="1"/>
        <pt x="102" y="550" on="1"/>
        <pt x="115" y="620" on="1"/>
        <pt x="580" y="620" on="1"/>
        <pt x="567" y="550" on="1"/>
      </contour>
    </TTGlyph>
    <TTGlyph name="Tcommaaccent" xMin="102" yMin="-275" xMax="580" yMax="620">
      <contour>
        <pt x="375" y="550" on="1"/>
        <pt x="268" y="0" on="1"/>
        <pt x="187" y="0" on="1"/>
        <pt x="294" y="550" on="1"/>
        <pt x="102" y="550" on="1"/>
        <pt x="115" y="620" on="1"/>
        <pt x="580" y="620" on="1"/>
        <pt x="567" y="550" on="1"/>
      </contour>
      <contour>
        <pt x="125" y="-259" on="1"/>
        <pt x="149" y="-222" on="0"/>
        <pt x="168" y="-154" on="0"/>
        <pt x="168" y="-121" on="1"/>
        <pt x="168" y="-108" on="0"/>
        <pt x="165" y="-83" on="0"/>
        <pt x="163" y="-71" on="1"/>
        <pt x="265" y="-68" on="1"/>
        <pt x="263" y="-120" on="0"/>
        <pt x="208" y="-228" on="0"/>
        <pt x="156" y="-275" on="1"/>
      </contour>
    </TTGlyph>
    <TTGlyph name="Thorn" xMin="52" yMin="0" xMax="522" yMax="620">
      <contour>
        <pt x="133" y="0" on="1"/>
        <pt x="52" y="0" on="1"/>
        <pt x="173" y="620" on="1"/>
        <pt x="254" y="620" on="1"/>
        <pt x="236" y="525" on="1"/>
        <pt x="244" y="526" on="0"/>
        <pt x="261" y="526" on="0"/>
        <pt x="268" y="526" on="1"/>
        <pt x="402" y="526" on="0"/>
        <pt x="522" y="430" on="0"/>
        <pt x="522" y="358" on="1"/>
        <pt x="522" y="252" on="0"/>
        <pt x="326" y="116" on="0"/>
        <pt x="152" y="100" on="1"/>
      </contour>
      <contour>
        <pt x="278" y="458" on="1"/>
        <pt x="265" y="458" on="0"/>
        <pt x="237" y="456" on="0"/>
        <pt x="222" y="455" on="1"/>
        <pt x="167" y="174" on="1"/>
        <pt x="172" y="174" on="1"/>
        <pt x="303" y="174" on="0"/>
        <pt x="442" y="269" on="0"/>
        <pt x="442" y="345" on="1"/>
        <pt x="442" y="395" on="0"/>
        <pt x="362" y="458" on="0"/>
      </contour>
    </TTGlyph>
    <TTGlyph name="U" xMin="71" yMin="-14" xMax="553" yMax="620">
      <contour>
        <pt x="160" y="221" on="1"/>
        <pt x="156" y="204" on="0"/>
        <pt x="153" y="172" on="0"/>
        <pt x="153" y="159" on="1"/>
        <pt x="153" y="107" on="0"/>
        <pt x="204" y="57" on="0"/>
        <pt x="253" y="57" on="1"/>
        <pt x="307" y="57" on="0"/>
        <pt x="376" y="127" on="0"/>
        <pt x="390" y="200" on="1"/>
        <pt x="472" y="620" on="1"/>
        <pt x="553" y="620" on="1"/>
        <pt x="471" y="202" on="1"/>
        <pt x="450" y="92" on="0"/>
        <pt x="331" y="-14" on="0"/>
        <pt x="244" y="-14" on="1"/>
        <pt x="163" y="-14" on="0"/>
        <pt x="71" y="68" on="0"/>
        <pt x="71" y="151" on="1"/>
        <pt x="71" y="167" on="0"/>
        <pt x="74" y="201" on="0"/>
        <pt x="78" y="220" on="1"/>
        <pt x="156" y="620" on="1"/>
        <pt x="237" y="620" on="1"/>
      </contour>
    </TTGlyph>
    <TTGlyph name="Uacute" xMin="71" yMin="-14" xMax="553" yMax="892">
      <contour>
        <pt x="249" y="723" on="1"/>
        <pt x="273" y="738" on="0"/>
        <pt x="331" y="778" on="0"/>
        <pt x="389" y="824" on="0"/>
        <pt x="444" y="871" on="0"/>
        <pt x="465" y="892" on="1"/>
        <pt x="520" y="829" on="1"/>
        <pt x="495" y="810" on="0"/>
        <pt x="430" y="770" on="0"/>
        <pt x="361" y="733" on="0"/>
        <pt x="293" y="700" on="0"/>
        <pt x="265" y="688" on="1"/>
      </contour>
      <contour>
        <pt x="160" y="221" on="1"/>
        <pt x="156" y="204" on="0"/>
        <pt x="153" y="172" on="0"/>
        <pt x="153" y="159" on="1"/>
        <pt x="153" y="107" on="0"/>
        <pt x="204" y="57" on="0"/>
        <pt x="253" y="57" on="1"/>
        <pt x="307" y="57" on="0"/>
        <pt x="376" y="127" on="0"/>
        <pt x="390" y="200" on="1"/>
        <pt x="472" y="620" on="1"/>
        <pt x="553" y="620" on="1"/>
        <pt x="471" y="202" on="1"/>
        <pt x="450" y="92" on="0"/>
        <pt x="331" y="-14" on="0"/>
        <pt x="244" y="-14" on="1"/>
        <pt x="163" y="-14" on="0"/>
        <pt x="71" y="68" on="0"/>
        <pt x="71" y="151" on="1"/>
        <pt x="71" y="167" on="0"/>
        <pt x="74" y="201" on="0"/>
        <pt x="78" y="220" on="1"/>
        <pt x="156" y="620" on="1"/>
        <pt x="237" y="620" on="1"/>
      </contour>
    </TTGlyph>
    <TTGlyph name="Ubreve" xMin="71" yMin="-14" xMax="583" yMax="872">
      <contour>
        <pt x="538" y="867" on="1"/>
        <pt x="583" y="839" on="1"/>
        <pt x="532" y="771" on="0"/>
        <pt x="424" y="695" on="0"/>
        <pt x="371" y="695" on="1"/>
        <pt x="320" y="695" on="0"/>
        <pt x="240" y="767" on="0"/>
        <pt x="212" y="841" on="1"/>
        <pt x="272" y="872" on="1"/>
        <pt x="297" y="811" on="0"/>
        <pt x="350" y="758" on="0"/>
        <pt x="387" y="758" on="1"/>
        <pt x="426" y="758" on="0"/>
        <pt x="496" y="816" on="0"/>
      </contour>
      <contour>
        <pt x="160" y="221" on="1"/>
        <pt x="156" y="204" on="0"/>
        <pt x="153" y="172" on="0"/>
        <pt x="153" y="159" on="1"/>
        <pt x="153" y="107" on="0"/>
        <pt x="204" y="57" on="0"/>
        <pt x="253" y="57" on="1"/>
        <pt x="307" y="57" on="0"/>
        <pt x="376" y="127" on="0"/>
        <pt x="390" y="200" on="1"/>
        <pt x="472" y="620" on="1"/>
        <pt x="553" y="620" on="1"/>
        <pt x="471" y="202" on="1"/>
        <pt x="450" y="92" on="0"/>
        <pt x="331" y="-14" on="0"/>
        <pt x="244" y="-14" on="1"/>
        <pt x="163" y="-14" on="0"/>
        <pt x="71" y="68" on="0"/>
        <pt x="71" y="151" on="1"/>
        <pt x="71" y="167" on="0"/>
        <pt x="74" y="201" on="0"/>
        <pt x="78" y="220" on="1"/>
        <pt x="156" y="620" on="1"/>
        <pt x="237" y="620" on="1"/>
      </contour>
    </TTGlyph>
    <TTGlyph name="Ucircumflex" xMin="71" yMin="-14" xMax="553" yMax="880">
      <contour>
        <pt x="496" y="688" on="1"/>
        <pt x="395" y="803" on="1"/>
        <pt x="237" y="692" on="1"/>
        <pt x="202" y="733" on="1"/>
        <pt x="407" y="880" on="1"/>
        <pt x="411" y="880" on="1"/>
        <pt x="550" y="730" on="1"/>
      </contour>
      <contour>
        <pt x="160" y="221" on="1"/>
        <pt x="156" y="204" on="0"/>
        <pt x="153" y="172" on="0"/>
        <pt x="153" y="159" on="1"/>
        <pt x="153" y="107" on="0"/>
        <pt x="204" y="57" on="0"/>
        <pt x="253" y="57" on="1"/>
        <pt x="307" y="57" on="0"/>
        <pt x="376" y="127" on="0"/>
        <pt x="390" y="200" on="1"/>
        <pt x="472" y="620" on="1"/>
        <pt x="553" y="620" on="1"/>
        <pt x="471" y="202" on="1"/>
        <pt x="450" y="92" on="0"/>
        <pt x="331" y="-14" on="0"/>
        <pt x="244" y="-14" on="1"/>
        <pt x="163" y="-14" on="0"/>
        <pt x="71" y="68" on="0"/>
        <pt x="71" y="151" on="1"/>
        <pt x="71" y="167" on="0"/>
        <pt x="74" y="201" on="0"/>
        <pt x="78" y="220" on="1"/>
        <pt x="156" y="620" on="1"/>
        <pt x="237" y="620" on="1"/>
      </contour>
    </TTGlyph>
    <TTGlyph name="Udieresis" xMin="71" yMin="-14" xMax="553" yMax="836">
      <contour>
        <pt x="511" y="703" on="1"/>
        <pt x="430" y="702" on="1"/>
        <pt x="461" y="834" on="1"/>
        <pt x="551" y="836" on="1"/>
      </contour>
      <contour>
        <pt x="296" y="701" on="1"/>
        <pt x="215" y="700" on="1"/>
        <pt x="247" y="832" on="1"/>
        <pt x="336" y="833" on="1"/>
      </contour>
      <contour>
        <pt x="160" y="221" on="1"/>
        <pt x="156" y="204" on="0"/>
        <pt x="153" y="172" on="0"/>
        <pt x="153" y="159" on="1"/>
        <pt x="153" y="107" on="0"/>
        <pt x="204" y="57" on="0"/>
        <pt x="253" y="57" on="1"/>
        <pt x="307" y="57" on="0"/>
        <pt x="376" y="127" on="0"/>
        <pt x="390" y="200" on="1"/>
        <pt x="472" y="620" on="1"/>
        <pt x="553" y="620" on="1"/>
        <pt x="471" y="202" on="1"/>
        <pt x="450" y="92" on="0"/>
        <pt x="331" y="-14" on="0"/>
        <pt x="244" y="-14" on="1"/>
        <pt x="163" y="-14" on="0"/>
        <pt x="71" y="68" on="0"/>
        <pt x="71" y="151" on="1"/>
        <pt x="71" y="167" on="0"/>
        <pt x="74" y="201" on="0"/>
        <pt x="78" y="220" on="1"/>
        <pt x="156" y="620" on="1"/>
        <pt x="237" y="620" on="1"/>
      </contour>
    </TTGlyph>
    <TTGlyph name="Ugrave" xMin="71" yMin="-14" xMax="553" yMax="897">
      <contour>
        <pt x="490" y="715" on="1"/>
        <pt x="470" y="682" on="1"/>
        <pt x="446" y="694" on="0"/>
        <pt x="388" y="730" on="0"/>
        <pt x="328" y="772" on="0"/>
        <pt x="272" y="815" on="0"/>
        <pt x="250" y="835" on="1"/>
        <pt x="303" y="897" on="1"/>
        <pt x="340" y="853" on="0"/>
        <pt x="447" y="748" on="0"/>
      </contour>
      <contour>
        <pt x="160" y="221" on="1"/>
        <pt x="156" y="204" on="0"/>
        <pt x="153" y="172" on="0"/>
        <pt x="153" y="159" on="1"/>
        <pt x="153" y="107" on="0"/>
        <pt x="204" y="57" on="0"/>
        <pt x="253" y="57" on="1"/>
        <pt x="307" y="57" on="0"/>
        <pt x="376" y="127" on="0"/>
        <pt x="390" y="200" on="1"/>
        <pt x="472" y="620" on="1"/>
        <pt x="553" y="620" on="1"/>
        <pt x="471" y="202" on="1"/>
        <pt x="450" y="92" on="0"/>
        <pt x="331" y="-14" on="0"/>
        <pt x="244" y="-14" on="1"/>
        <pt x="163" y="-14" on="0"/>
        <pt x="71" y="68" on="0"/>
        <pt x="71" y="151" on="1"/>
        <pt x="71" y="167" on="0"/>
        <pt x="74" y="201" on="0"/>
        <pt x="78" y="220" on="1"/>
        <pt x="156" y="620" on="1"/>
        <pt x="237" y="620" on="1"/>
      </contour>
    </TTGlyph>
    <TTGlyph name="Uhungarumlaut" xMin="71" yMin="-14" xMax="638" yMax="910">
      <contour>
        <pt x="251" y="689" on="1"/>
        <pt x="217" y="716" on="1"/>
        <pt x="235" y="736" on="0"/>
        <pt x="273" y="786" on="0"/>
        <pt x="309" y="838" on="0"/>
        <pt x="342" y="889" on="0"/>
        <pt x="354" y="910" on="1"/>
        <pt x="430" y="869" on="1"/>
        <pt x="398" y="829" on="0"/>
        <pt x="297" y="727" on="0"/>
      </contour>
      <contour>
        <pt x="461" y="689" on="1"/>
        <pt x="426" y="716" on="1"/>
        <pt x="461" y="756" on="0"/>
        <pt x="536" y="862" on="0"/>
        <pt x="560" y="905" on="1"/>
        <pt x="638" y="868" on="1"/>
        <pt x="606" y="828" on="0"/>
        <pt x="507" y="726" on="0"/>
      </contour>
      <contour>
        <pt x="160" y="221" on="1"/>
        <pt x="156" y="204" on="0"/>
        <pt x="153" y="172" on="0"/>
        <pt x="153" y="159" on="1"/>
        <pt x="153" y="107" on="0"/>
        <pt x="204" y="57" on="0"/>
        <pt x="253" y="57" on="1"/>
        <pt x="307" y="57" on="0"/>
        <pt x="376" y="127" on="0"/>
        <pt x="390" y="200" on="1"/>
        <pt x="472" y="620" on="1"/>
        <pt x="553" y="620" on="1"/>
        <pt x="471" y="202" on="1"/>
        <pt x="450" y="92" on="0"/>
        <pt x="331" y="-14" on="0"/>
        <pt x="244" y="-14" on="1"/>
        <pt x="163" y="-14" on="0"/>
        <pt x="71" y="68" on="0"/>
        <pt x="71" y="151" on="1"/>
        <pt x="71" y="167" on="0"/>
        <pt x="74" y="201" on="0"/>
        <pt x="78" y="220" on="1"/>
        <pt x="156" y="620" on="1"/>
        <pt x="237" y="620" on="1"/>
      </contour>
    </TTGlyph>
    <TTGlyph name="Umacron" xMin="71" yMin="-14" xMax="555" yMax="803">
      <contour>
        <pt x="555" y="803" on="1"/>
        <pt x="542" y="737" on="1"/>
        <pt x="212" y="737" on="1"/>
        <pt x="225" y="803" on="1"/>
      </contour>
      <contour>
        <pt x="160" y="221" on="1"/>
        <pt x="156" y="204" on="0"/>
        <pt x="153" y="172" on="0"/>
        <pt x="153" y="159" on="1"/>
        <pt x="153" y="107" on="0"/>
        <pt x="204" y="57" on="0"/>
        <pt x="253" y="57" on="1"/>
        <pt x="307" y="57" on="0"/>
        <pt x="376" y="127" on="0"/>
        <pt x="390" y="200" on="1"/>
        <pt x="472" y="620" on="1"/>
        <pt x="553" y="620" on="1"/>
        <pt x="471" y="202" on="1"/>
        <pt x="450" y="92" on="0"/>
        <pt x="331" y="-14" on="0"/>
        <pt x="244" y="-14" on="1"/>
        <pt x="163" y="-14" on="0"/>
        <pt x="71" y="68" on="0"/>
        <pt x="71" y="151" on="1"/>
        <pt x="71" y="167" on="0"/>
        <pt x="74" y="201" on="0"/>
        <pt x="78" y="220" on="1"/>
        <pt x="156" y="620" on="1"/>
        <pt x="237" y="620" on="1"/>
      </contour>
    </TTGlyph>
    <TTGlyph name="Uogonek" xMin="71" yMin="-209" xMax="553" yMax="620">
      <contour>
        <pt x="196" y="-209" on="1"/>
        <pt x="154" y="-209" on="0"/>
        <pt x="110" y="-169" on="0"/>
        <pt x="110" y="-141" on="1"/>
        <pt x="110" y="-111" on="0"/>
        <pt x="169" y="-46" on="0"/>
        <pt x="229" y="-14" on="1"/>
        <pt x="155" y="-10" on="0"/>
        <pt x="71" y="72" on="0"/>
        <pt x="71" y="151" on="1"/>
        <pt x="71" y="167" on="0"/>
        <pt x="74" y="201" on="0"/>
        <pt x="78" y="220" on="1"/>
        <pt x="156" y="620" on="1"/>
        <pt x="237" y="620" on="1"/>
        <pt x="160" y="221" on="1"/>
        <pt x="156" y="204" on="0"/>
        <pt x="153" y="172" on="0"/>
        <pt x="153" y="159" on="1"/>
        <pt x="153" y="107" on="0"/>
        <pt x="204" y="57" on="0"/>
        <pt x="253" y="57" on="1"/>
        <pt x="307" y="57" on="0"/>
        <pt x="376" y="127" on="0"/>
        <pt x="390" y="200" on="1"/>
        <pt x="472" y="620" on="1"/>
        <pt x="553" y="620" on="1"/>
        <pt x="471" y="202" on="1"/>
        <pt x="457" y="127" on="0"/>
        <pt x="392" y="31" on="0"/>
        <pt x="343" y="7" on="1"/>
        <pt x="256" y="-36" on="0"/>
        <pt x="183" y="-93" on="0"/>
        <pt x="183" y="-119" on="1"/>
        <pt x="183" y="-134" on="0"/>
        <pt x="206" y="-152" on="0"/>
        <pt x="231" y="-152" on="1"/>
        <pt x="247" y="-152" on="0"/>
        <pt x="296" y="-142" on="0"/>
        <pt x="327" y="-130" on="1"/>
        <pt x="337" y="-167" on="1"/>
        <pt x="294" y="-189" on="0"/>
        <pt x="223" y="-209" on="0"/>
      </contour>
    </TTGlyph>
    <TTGlyph name="Uring" xMin="71" yMin="-14" xMax="553" yMax="887">
      <contour>
        <pt x="394" y="887" on="1"/>
        <pt x="449" y="887" on="0"/>
        <pt x="519" y="829" on="0"/>
        <pt x="519" y="789" on="1"/>
        <pt x="519" y="744" on="0"/>
        <pt x="439" y="677" on="0"/>
        <pt x="379" y="677" on="1"/>
        <pt x="324" y="677" on="0"/>
        <pt x="254" y="735" on="0"/>
        <pt x="254" y="776" on="1"/>
        <pt x="254" y="822" on="0"/>
        <pt x="334" y="887" on="0"/>
      </contour>
      <contour>
        <pt x="160" y="221" on="1"/>
        <pt x="156" y="204" on="0"/>
        <pt x="153" y="172" on="0"/>
        <pt x="153" y="159" on="1"/>
        <pt x="153" y="107" on="0"/>
        <pt x="204" y="57" on="0"/>
        <pt x="253" y="57" on="1"/>
        <pt x="307" y="57" on="0"/>
        <pt x="376" y="127" on="0"/>
        <pt x="390" y="200" on="1"/>
        <pt x="472" y="620" on="1"/>
        <pt x="553" y="620" on="1"/>
        <pt x="471" y="202" on="1"/>
        <pt x="450" y="92" on="0"/>
        <pt x="331" y="-14" on="0"/>
        <pt x="244" y="-14" on="1"/>
        <pt x="163" y="-14" on="0"/>
        <pt x="71" y="68" on="0"/>
        <pt x="71" y="151" on="1"/>
        <pt x="71" y="167" on="0"/>
        <pt x="74" y="201" on="0"/>
        <pt x="78" y="220" on="1"/>
        <pt x="156" y="620" on="1"/>
        <pt x="237" y="620" on="1"/>
      </contour>
    </TTGlyph>
    <TTGlyph name="V" xMin="109" yMin="0" xMax="589" yMax="623">
      <contour>
        <pt x="284" y="0" on="1"/>
        <pt x="170" y="0" on="1"/>
        <pt x="151" y="154" on="0"/>
        <pt x="120" y="463" on="0"/>
        <pt x="109" y="617" on="1"/>
        <pt x="189" y="623" on="1"/>
        <pt x="198" y="488" on="0"/>
        <pt x="224" y="210" on="0"/>
        <pt x="237" y="74" on="1"/>
        <pt x="245" y="74" on="1"/>
        <pt x="313" y="210" on="0"/>
        <pt x="446" y="484" on="0"/>
        <pt x="508" y="620" on="1"/>
        <pt x="589" y="620" on="1"/>
        <pt x="518" y="466" on="0"/>
        <pt x="364" y="154" on="0"/>
      </contour>
    </TTGlyph>
    <TTGlyph name="W" xMin="67" yMin="0" xMax="580" yMax="620">
      <contour>
        <pt x="324" y="0" on="1"/>
        <pt x="301" y="327" on="1"/>
        <pt x="152" y="0" on="1"/>
        <pt x="67" y="0" on="1"/>
        <pt x="69" y="44" on="0"/>
        <pt x="80" y="175" on="0"/>
        <pt x="97" y="334" on="0"/>
        <pt x="120" y="521" on="0"/>
        <pt x="135" y="620" on="1"/>
        <pt x="215" y="620" on="1"/>
        <pt x="208" y="573" on="0"/>
        <pt x="185" y="418" on="0"/>
        <pt x="163" y="260" on="0"/>
        <pt x="146" y="128" on="0"/>
        <pt x="144" y="105" on="1"/>
        <pt x="148" y="105" on="1"/>
        <pt x="299" y="436" on="1"/>
        <pt x="348" y="436" on="1"/>
        <pt x="371" y="105" on="1"/>
        <pt x="374" y="105" on="1"/>
        <pt x="381" y="128" on="0"/>
        <pt x="415" y="260" on="0"/>
        <pt x="454" y="418" on="0"/>
        <pt x="491" y="573" on="0"/>
        <pt x="502" y="620" on="1"/>
        <pt x="580" y="620" on="1"/>
        <pt x="556" y="520" on="0"/>
        <pt x="508" y="334" on="0"/>
        <pt x="464" y="174" on="0"/>
        <pt x="425" y="44" on="0"/>
        <pt x="410" y="0" on="1"/>
      </contour>
    </TTGlyph>
    <TTGlyph name="Wacute" xMin="67" yMin="0" xMax="580" yMax="892">
      <contour>
        <pt x="252" y="723" on="1"/>
        <pt x="276" y="738" on="0"/>
        <pt x="334" y="778" on="0"/>
        <pt x="392" y="824" on="0"/>
        <pt x="447" y="871" on="0"/>
        <pt x="468" y="892" on="1"/>
        <pt x="523" y="829" on="1"/>
        <pt x="498" y="810" on="0"/>
        <pt x="433" y="770" on="0"/>
        <pt x="364" y="733" on="0"/>
        <pt x="296" y="700" on="0"/>
        <pt x="268" y="688" on="1"/>
      </contour>
      <contour>
        <pt x="324" y="0" on="1"/>
        <pt x="301" y="327" on="1"/>
        <pt x="152" y="0" on="1"/>
        <pt x="67" y="0" on="1"/>
        <pt x="69" y="44" on="0"/>
        <pt x="80" y="175" on="0"/>
        <pt x="97" y="334" on="0"/>
        <pt x="120" y="521" on="0"/>
        <pt x="135" y="620" on="1"/>
        <pt x="215" y="620" on="1"/>
        <pt x="208" y="573" on="0"/>
        <pt x="185" y="418" on="0"/>
        <pt x="163" y="260" on="0"/>
        <pt x="146" y="128" on="0"/>
        <pt x="144" y="105" on="1"/>
        <pt x="148" y="105" on="1"/>
        <pt x="299" y="436" on="1"/>
        <pt x="348" y="436" on="1"/>
        <pt x="371" y="105" on="1"/>
        <pt x="374" y="105" on="1"/>
        <pt x="381" y="128" on="0"/>
        <pt x="415" y="260" on="0"/>
        <pt x="454" y="418" on="0"/>
        <pt x="491" y="573" on="0"/>
        <pt x="502" y="620" on="1"/>
        <pt x="580" y="620" on="1"/>
        <pt x="556" y="520" on="0"/>
        <pt x="508" y="334" on="0"/>
        <pt x="464" y="174" on="0"/>
        <pt x="425" y="44" on="0"/>
        <pt x="410" y="0" on="1"/>
      </contour>
    </TTGlyph>
    <TTGlyph name="Wcircumflex" xMin="67" yMin="0" xMax="580" yMax="880">
      <contour>
        <pt x="499" y="688" on="1"/>
        <pt x="398" y="803" on="1"/>
        <pt x="240" y="692" on="1"/>
        <pt x="205" y="733" on="1"/>
        <pt x="410" y="880" on="1"/>
        <pt x="414" y="880" on="1"/>
        <pt x="553" y="730" on="1"/>
      </contour>
      <contour>
        <pt x="324" y="0" on="1"/>
        <pt x="301" y="327" on="1"/>
        <pt x="152" y="0" on="1"/>
        <pt x="67" y="0" on="1"/>
        <pt x="69" y="44" on="0"/>
        <pt x="80" y="175" on="0"/>
        <pt x="97" y="334" on="0"/>
        <pt x="120" y="521" on="0"/>
        <pt x="135" y="620" on="1"/>
        <pt x="215" y="620" on="1"/>
        <pt x="208" y="573" on="0"/>
        <pt x="185" y="418" on="0"/>
        <pt x="163" y="260" on="0"/>
        <pt x="146" y="128" on="0"/>
        <pt x="144" y="105" on="1"/>
        <pt x="148" y="105" on="1"/>
        <pt x="299" y="436" on="1"/>
        <pt x="348" y="436" on="1"/>
        <pt x="371" y="105" on="1"/>
        <pt x="374" y="105" on="1"/>
        <pt x="381" y="128" on="0"/>
        <pt x="415" y="260" on="0"/>
        <pt x="454" y="418" on="0"/>
        <pt x="491" y="573" on="0"/>
        <pt x="502" y="620" on="1"/>
        <pt x="580" y="620" on="1"/>
        <pt x="556" y="520" on="0"/>
        <pt x="508" y="334" on="0"/>
        <pt x="464" y="174" on="0"/>
        <pt x="425" y="44" on="0"/>
        <pt x="410" y="0" on="1"/>
      </contour>
    </TTGlyph>
    <TTGlyph name="Wdieresis" xMin="67" yMin="0" xMax="580" yMax="836">
      <contour>
        <pt x="514" y="703" on="1"/>
        <pt x="433" y="702" on="1"/>
        <pt x="464" y="834" on="1"/>
        <pt x="554" y="836" on="1"/>
      </contour>
      <contour>
        <pt x="299" y="701" on="1"/>
        <pt x="218" y="700" on="1"/>
        <pt x="250" y="832" on="1"/>
        <pt x="339" y="833" on="1"/>
      </contour>
      <contour>
        <pt x="324" y="0" on="1"/>
        <pt x="301" y="327" on="1"/>
        <pt x="152" y="0" on="1"/>
        <pt x="67" y="0" on="1"/>
        <pt x="69" y="44" on="0"/>
        <pt x="80" y="175" on="0"/>
        <pt x="97" y="334" on="0"/>
        <pt x="120" y="521" on="0"/>
        <pt x="135" y="620" on="1"/>
        <pt x="215" y="620" on="1"/>
        <pt x="208" y="573" on="0"/>
        <pt x="185" y="418" on="0"/>
        <pt x="163" y="260" on="0"/>
        <pt x="146" y="128" on="0"/>
        <pt x="144" y="105" on="1"/>
        <pt x="148" y="105" on="1"/>
        <pt x="299" y="436" on="1"/>
        <pt x="348" y="436" on="1"/>
        <pt x="371" y="105" on="1"/>
        <pt x="374" y="105" on="1"/>
        <pt x="381" y="128" on="0"/>
        <pt x="415" y="260" on="0"/>
        <pt x="454" y="418" on="0"/>
        <pt x="491" y="573" on="0"/>
        <pt x="502" y="620" on="1"/>
        <pt x="580" y="620" on="1"/>
        <pt x="556" y="520" on="0"/>
        <pt x="508" y="334" on="0"/>
        <pt x="464" y="174" on="0"/>
        <pt x="425" y="44" on="0"/>
        <pt x="410" y="0" on="1"/>
      </contour>
    </TTGlyph>
    <TTGlyph name="Wgrave" xMin="67" yMin="0" xMax="580" yMax="897">
      <contour>
        <pt x="493" y="715" on="1"/>
        <pt x="473" y="682" on="1"/>
        <pt x="449" y="694" on="0"/>
        <pt x="391" y="730" on="0"/>
        <pt x="331" y="772" on="0"/>
        <pt x="275" y="815" on="0"/>
        <pt x="253" y="835" on="1"/>
        <pt x="306" y="897" on="1"/>
        <pt x="343" y="853" on="0"/>
        <pt x="450" y="748" on="0"/>
      </contour>
      <contour>
        <pt x="324" y="0" on="1"/>
        <pt x="301" y="327" on="1"/>
        <pt x="152" y="0" on="1"/>
        <pt x="67" y="0" on="1"/>
        <pt x="69" y="44" on="0"/>
        <pt x="80" y="175" on="0"/>
        <pt x="97" y="334" on="0"/>
        <pt x="120" y="521" on="0"/>
        <pt x="135" y="620" on="1"/>
        <pt x="215" y="620" on="1"/>
        <pt x="208" y="573" on="0"/>
        <pt x="185" y="418" on="0"/>
        <pt x="163" y="260" on="0"/>
        <pt x="146" y="128" on="0"/>
        <pt x="144" y="105" on="1"/>
        <pt x="148" y="105" on="1"/>
        <pt x="299" y="436" on="1"/>
        <pt x="348" y="436" on="1"/>
        <pt x="371" y="105" on="1"/>
        <pt x="374" y="105" on="1"/>
        <pt x="381" y="128" on="0"/>
        <pt x="415" y="260" on="0"/>
        <pt x="454" y="418" on="0"/>
        <pt x="491" y="573" on="0"/>
        <pt x="502" y="620" on="1"/>
        <pt x="580" y="620" on="1"/>
        <pt x="556" y="520" on="0"/>
        <pt x="508" y="334" on="0"/>
        <pt x="464" y="174" on="0"/>
        <pt x="425" y="44" on="0"/>
        <pt x="410" y="0" on="1"/>
      </contour>
    </TTGlyph>
    <TTGlyph name="X" xMin="-1" yMin="-3" xMax="587" yMax="623">
      <contour>
        <pt x="383" y="-3" on="1"/>
        <pt x="279" y="255" on="1"/>
        <pt x="86" y="0" on="1"/>
        <pt x="-1" y="0" on="1"/>
        <pt x="246" y="315" on="1"/>
        <pt x="118" y="617" on="1"/>
        <pt x="200" y="623" on="1"/>
        <pt x="306" y="364" on="1"/>
        <pt x="498" y="620" on="1"/>
        <pt x="587" y="620" on="1"/>
        <pt x="339" y="305" on="1"/>
        <pt x="467" y="3" on="1"/>
      </contour>
    </TTGlyph>
    <TTGlyph name="Y" xMin="105" yMin="0" xMax="594" yMax="622">
      <contour>
        <pt x="269" y="0" on="1"/>
        <pt x="188" y="0" on="1"/>
        <pt x="228" y="209" on="1"/>
        <pt x="105" y="618" on="1"/>
        <pt x="188" y="622" on="1"/>
        <pt x="285" y="286" on="1"/>
        <pt x="507" y="620" on="1"/>
        <pt x="594" y="620" on="1"/>
        <pt x="308" y="203" on="1"/>
      </contour>
    </TTGlyph>
    <TTGlyph name="Yacute" xMin="105" yMin="0" xMax="594" yMax="894">
      <contour>
        <pt x="244" y="725" on="1"/>
        <pt x="268" y="740" on="0"/>
        <pt x="326" y="780" on="0"/>
        <pt x="384" y="826" on="0"/>
        <pt x="439" y="873" on="0"/>
        <pt x="460" y="894" on="1"/>
        <pt x="515" y="831" on="1"/>
        <pt x="490" y="812" on="0"/>
        <pt x="425" y="772" on="0"/>
        <pt x="356" y="735" on="0"/>
        <pt x="288" y="702" on="0"/>
        <pt x="260" y="690" on="1"/>
      </contour>
      <contour>
        <pt x="269" y="0" on="1"/>
        <pt x="188" y="0" on="1"/>
        <pt x="228" y="209" on="1"/>
        <pt x="105" y="618" on="1"/>
        <pt x="188" y="622" on="1"/>
        <pt x="285" y="286" on="1"/>
        <pt x="507" y="620" on="1"/>
        <pt x="594" y="620" on="1"/>
        <pt x="308" y="203" on="1"/>
      </contour>
    </TTGlyph>
    <TTGlyph name="Ycircumflex" xMin="105" yMin="0" xMax="594" yMax="882">
      <contour>
        <pt x="492" y="690" on="1"/>
        <pt x="391" y="805" on="1"/>
        <pt x="233" y="694" on="1"/>
        <pt x="198" y="735" on="1"/>
        <pt x="403" y="882" on="1"/>
        <pt x="407" y="882" on="1"/>
        <pt x="546" y="732" on="1"/>
      </contour>
      <contour>
        <pt x="269" y="0" on="1"/>
        <pt x="188" y="0" on="1"/>
        <pt x="228" y="209" on="1"/>
        <pt x="105" y="618" on="1"/>
        <pt x="188" y="622" on="1"/>
        <pt x="285" y="286" on="1"/>
        <pt x="507" y="620" on="1"/>
        <pt x="594" y="620" on="1"/>
        <pt x="308" y="203" on="1"/>
      </contour>
    </TTGlyph>
    <TTGlyph name="Ydieresis" xMin="105" yMin="0" xMax="594" yMax="838">
      <contour>
        <pt x="506" y="705" on="1"/>
        <pt x="425" y="704" on="1"/>
        <pt x="456" y="836" on="1"/>
        <pt x="546" y="838" on="1"/>
      </contour>
      <contour>
        <pt x="291" y="703" on="1"/>
        <pt x="210" y="702" on="1"/>
        <pt x="242" y="834" on="1"/>
        <pt x="331" y="835" on="1"/>
      </contour>
      <contour>
        <pt x="269" y="0" on="1"/>
        <pt x="188" y="0" on="1"/>
        <pt x="228" y="209" on="1"/>
        <pt x="105" y="618" on="1"/>
        <pt x="188" y="622" on="1"/>
        <pt x="285" y="286" on="1"/>
        <pt x="507" y="620" on="1"/>
        <pt x="594" y="620" on="1"/>
        <pt x="308" y="203" on="1"/>
      </contour>
    </TTGlyph>
    <TTGlyph name="Ygrave" xMin="105" yMin="0" xMax="594" yMax="899">
      <contour>
        <pt x="485" y="717" on="1"/>
        <pt x="465" y="684" on="1"/>
        <pt x="441" y="696" on="0"/>
        <pt x="383" y="732" on="0"/>
        <pt x="323" y="774" on="0"/>
        <pt x="267" y="817" on="0"/>
        <pt x="245" y="837" on="1"/>
        <pt x="298" y="899" on="1"/>
        <pt x="335" y="855" on="0"/>
        <pt x="442" y="750" on="0"/>
      </contour>
      <contour>
        <pt x="269" y="0" on="1"/>
        <pt x="188" y="0" on="1"/>
        <pt x="228" y="209" on="1"/>
        <pt x="105" y="618" on="1"/>
        <pt x="188" y="622" on="1"/>
        <pt x="285" y="286" on="1"/>
        <pt x="507" y="620" on="1"/>
        <pt x="594" y="620" on="1"/>
        <pt x="308" y="203" on="1"/>
      </contour>
    </TTGlyph>
    <TTGlyph name="Z" xMin="23" yMin="0" xMax="552" yMax="620">
      <contour>
        <pt x="437" y="0" on="1"/>
        <pt x="23" y="0" on="1"/>
        <pt x="35" y="69" on="1"/>
        <pt x="449" y="550" on="1"/>
        <pt x="135" y="549" on="1"/>
        <pt x="149" y="620" on="1"/>
        <pt x="552" y="620" on="1"/>
        <pt x="540" y="551" on="1"/>
        <pt x="129" y="70" on="1"/>
        <pt x="450" y="71" on="1"/>
      </contour>
    </TTGlyph>
    <TTGlyph name="Zacute" xMin="23" yMin="0" xMax="552" yMax="892">
      <contour>
        <pt x="244" y="723" on="1"/>
        <pt x="268" y="738" on="0"/>
        <pt x="326" y="778" on="0"/>
        <pt x="384" y="824" on="0"/>
        <pt x="439" y="871" on="0"/>
        <pt x="460" y="892" on="1"/>
        <pt x="515" y="829" on="1"/>
        <pt x="490" y="810" on="0"/>
        <pt x="425" y="770" on="0"/>
        <pt x="356" y="733" on="0"/>
        <pt x="288" y="700" on="0"/>
        <pt x="260" y="688" on="1"/>
      </contour>
      <contour>
        <pt x="437" y="0" on="1"/>
        <pt x="23" y="0" on="1"/>
        <pt x="35" y="69" on="1"/>
        <pt x="449" y="550" on="1"/>
        <pt x="135" y="549" on="1"/>
        <pt x="149" y="620" on="1"/>
        <pt x="552" y="620" on="1"/>
        <pt x="540" y="551" on="1"/>
        <pt x="129" y="70" on="1"/>
        <pt x="450" y="71" on="1"/>
      </contour>
    </TTGlyph>
    <TTGlyph name="Zcaron" xMin="23" yMin="0" xMax="565" yMax="877">
      <contour>
        <pt x="360" y="685" on="1"/>
        <pt x="356" y="685" on="1"/>
        <pt x="216" y="835" on="1"/>
        <pt x="270" y="877" on="1"/>
        <pt x="372" y="761" on="1"/>
        <pt x="529" y="873" on="1"/>
        <pt x="565" y="831" on="1"/>
      </contour>
      <contour>
        <pt x="437" y="0" on="1"/>
        <pt x="23" y="0" on="1"/>
        <pt x="35" y="69" on="1"/>
        <pt x="449" y="550" on="1"/>
        <pt x="135" y="549" on="1"/>
        <pt x="149" y="620" on="1"/>
        <pt x="552" y="620" on="1"/>
        <pt x="540" y="551" on="1"/>
        <pt x="129" y="70" on="1"/>
        <pt x="450" y="71" on="1"/>
      </contour>
    </TTGlyph>
    <TTGlyph name="Zdotaccent" xMin="23" yMin="0" xMax="552" yMax="834">
      <contour>
        <pt x="399" y="702" on="1"/>
        <pt x="317" y="701" on="1"/>
        <pt x="349" y="833" on="1"/>
        <pt x="440" y="834" on="1"/>
      </contour>
      <contour>
        <pt x="437" y="0" on="1"/>
        <pt x="23" y="0" on="1"/>
        <pt x="35" y="69" on="1"/>
        <pt x="449" y="550" on="1"/>
        <pt x="135" y="549" on="1"/>
        <pt x="149" y="620" on="1"/>
        <pt x="552" y="620" on="1"/>
        <pt x="540" y="551" on="1"/>
        <pt x="129" y="70" on="1"/>
        <pt x="450" y="71" on="1"/>
      </contour>
    </TTGlyph>
    <TTGlyph name="a" xMin="50" yMin="-10" xMax="513" yMax="500">
      <contour>
        <pt x="391" y="-10" on="1"/>
        <pt x="363" y="-10" on="0"/>
        <pt x="338" y="30" on="0"/>
        <pt x="338" y="64" on="1"/>
        <pt x="338" y="71" on="0"/>
        <pt x="339" y="87" on="0"/>
        <pt x="340" y="95" on="1"/>
        <pt x="297" y="52" on="0"/>
        <pt x="196" y="-10" on="0"/>
        <pt x="154" y="-10" on="1"/>
        <pt x="109" y="-10" on="0"/>
        <pt x="50" y="66" on="0"/>
        <pt x="50" y="143" on="1"/>
        <pt x="50" y="211" on="0"/>
        <pt x="94" y="341" on="0"/>
        <pt x="172" y="440" on="0"/>
        <pt x="282" y="500" on="0"/>
        <pt x="348" y="500" on="1"/>
        <pt x="379" y="500" on="0"/>
        <pt x="450" y="489" on="0"/>
        <pt x="488" y="479" on="1"/>
        <pt x="419" y="127" on="1"/>
        <pt x="417" y="114" on="0"/>
        <pt x="413" y="93" on="0"/>
        <pt x="413" y="86" on="1"/>
        <pt x="413" y="73" on="0"/>
        <pt x="424" y="59" on="0"/>
        <pt x="437" y="59" on="1"/>
        <pt x="447" y="59" on="0"/>
        <pt x="481" y="68" on="0"/>
        <pt x="505" y="77" on="1"/>
        <pt x="513" y="37" on="1"/>
        <pt x="472" y="13" on="0"/>
        <pt x="412" y="-10" on="0"/>
      </contour>
      <contour>
        <pt x="193" y="63" on="1"/>
        <pt x="224" y="63" on="0"/>
        <pt x="311" y="116" on="0"/>
        <pt x="348" y="153" on="1"/>
        <pt x="352" y="172" on="0"/>
        <pt x="365" y="238" on="0"/>
        <pt x="379" y="313" on="0"/>
        <pt x="394" y="389" on="0"/>
        <pt x="400" y="417" on="1"/>
        <pt x="373" y="425" on="0"/>
        <pt x="323" y="433" on="0"/>
        <pt x="306" y="433" on="1"/>
        <pt x="269" y="433" on="0"/>
        <pt x="205" y="386" on="0"/>
        <pt x="157" y="310" on="0"/>
        <pt x="129" y="212" on="0"/>
        <pt x="129" y="161" on="1"/>
        <pt x="129" y="110" on="0"/>
        <pt x="166" y="63" on="0"/>
      </contour>
    </TTGlyph>
    <TTGlyph name="aacute" xMin="50" yMin="-10" xMax="513" yMax="772">
      <contour>
        <pt x="240" y="603" on="1"/>
        <pt x="264" y="618" on="0"/>
        <pt x="322" y="658" on="0"/>
        <pt x="380" y="704" on="0"/>
        <pt x="435" y="751" on="0"/>
        <pt x="456" y="772" on="1"/>
        <pt x="511" y="709" on="1"/>
        <pt x="486" y="690" on="0"/>
        <pt x="421" y="650" on="0"/>
        <pt x="352" y="613" on="0"/>
        <pt x="284" y="580" on="0"/>
        <pt x="256" y="568" on="1"/>
      </contour>
      <contour>
        <pt x="391" y="-10" on="1"/>
        <pt x="363" y="-10" on="0"/>
        <pt x="338" y="30" on="0"/>
        <pt x="338" y="64" on="1"/>
        <pt x="338" y="71" on="0"/>
        <pt x="339" y="87" on="0"/>
        <pt x="340" y="95" on="1"/>
        <pt x="297" y="52" on="0"/>
        <pt x="196" y="-10" on="0"/>
        <pt x="154" y="-10" on="1"/>
        <pt x="109" y="-10" on="0"/>
        <pt x="50" y="66" on="0"/>
        <pt x="50" y="143" on="1"/>
        <pt x="50" y="211" on="0"/>
        <pt x="94" y="341" on="0"/>
        <pt x="172" y="440" on="0"/>
        <pt x="282" y="500" on="0"/>
        <pt x="348" y="500" on="1"/>
        <pt x="379" y="500" on="0"/>
        <pt x="450" y="489" on="0"/>
        <pt x="488" y="479" on="1"/>
        <pt x="419" y="127" on="1"/>
        <pt x="417" y="114" on="0"/>
        <pt x="413" y="93" on="0"/>
        <pt x="413" y="86" on="1"/>
        <pt x="413" y="73" on="0"/>
        <pt x="424" y="59" on="0"/>
        <pt x="437" y="59" on="1"/>
        <pt x="447" y="59" on="0"/>
        <pt x="481" y="68" on="0"/>
        <pt x="505" y="77" on="1"/>
        <pt x="513" y="37" on="1"/>
        <pt x="472" y="13" on="0"/>
        <pt x="412" y="-10" on="0"/>
      </contour>
      <contour>
        <pt x="193" y="63" on="1"/>
        <pt x="224" y="63" on="0"/>
        <pt x="311" y="116" on="0"/>
        <pt x="348" y="153" on="1"/>
        <pt x="352" y="172" on="0"/>
        <pt x="365" y="238" on="0"/>
        <pt x="379" y="313" on="0"/>
        <pt x="394" y="389" on="0"/>
        <pt x="400" y="417" on="1"/>
        <pt x="373" y="425" on="0"/>
        <pt x="323" y="433" on="0"/>
        <pt x="306" y="433" on="1"/>
        <pt x="269" y="433" on="0"/>
        <pt x="205" y="386" on="0"/>
        <pt x="157" y="310" on="0"/>
        <pt x="129" y="212" on="0"/>
        <pt x="129" y="161" on="1"/>
        <pt x="129" y="110" on="0"/>
        <pt x="166" y="63" on="0"/>
      </contour>
    </TTGlyph>
    <TTGlyph name="abreve" xMin="50" yMin="-10" xMax="574" yMax="752">
      <contour>
        <pt x="529" y="747" on="1"/>
        <pt x="574" y="719" on="1"/>
        <pt x="523" y="651" on="0"/>
        <pt x="415" y="575" on="0"/>
        <pt x="362" y="575" on="1"/>
        <pt x="311" y="575" on="0"/>
        <pt x="231" y="647" on="0"/>
        <pt x="203" y="721" on="1"/>
        <pt x="263" y="752" on="1"/>
        <pt x="288" y="691" on="0"/>
        <pt x="341" y="638" on="0"/>
        <pt x="378" y="638" on="1"/>
        <pt x="417" y="638" on="0"/>
        <pt x="487" y="696" on="0"/>
      </contour>
      <contour>
        <pt x="391" y="-10" on="1"/>
        <pt x="363" y="-10" on="0"/>
        <pt x="338" y="30" on="0"/>
        <pt x="338" y="64" on="1"/>
        <pt x="338" y="71" on="0"/>
        <pt x="339" y="87" on="0"/>
        <pt x="340" y="95" on="1"/>
        <pt x="297" y="52" on="0"/>
        <pt x="196" y="-10" on="0"/>
        <pt x="154" y="-10" on="1"/>
        <pt x="109" y="-10" on="0"/>
        <pt x="50" y="66" on="0"/>
        <pt x="50" y="143" on="1"/>
        <pt x="50" y="211" on="0"/>
        <pt x="94" y="341" on="0"/>
        <pt x="172" y="440" on="0"/>
        <pt x="282" y="500" on="0"/>
        <pt x="348" y="500" on="1"/>
        <pt x="379" y="500" on="0"/>
        <pt x="450" y="489" on="0"/>
        <pt x="488" y="479" on="1"/>
        <pt x="419" y="127" on="1"/>
        <pt x="417" y="114" on="0"/>
        <pt x="413" y="93" on="0"/>
        <pt x="413" y="86" on="1"/>
        <pt x="413" y="73" on="0"/>
        <pt x="424" y="59" on="0"/>
        <pt x="437" y="59" on="1"/>
        <pt x="447" y="59" on="0"/>
        <pt x="481" y="68" on="0"/>
        <pt x="505" y="77" on="1"/>
        <pt x="513" y="37" on="1"/>
        <pt x="472" y="13" on="0"/>
        <pt x="412" y="-10" on="0"/>
      </contour>
      <contour>
        <pt x="193" y="63" on="1"/>
        <pt x="224" y="63" on="0"/>
        <pt x="311" y="116" on="0"/>
        <pt x="348" y="153" on="1"/>
        <pt x="352" y="172" on="0"/>
        <pt x="365" y="238" on="0"/>
        <pt x="379" y="313" on="0"/>
        <pt x="394" y="389" on="0"/>
        <pt x="400" y="417" on="1"/>
        <pt x="373" y="425" on="0"/>
        <pt x="323" y="433" on="0"/>
        <pt x="306" y="433" on="1"/>
        <pt x="269" y="433" on="0"/>
        <pt x="205" y="386" on="0"/>
        <pt x="157" y="310" on="0"/>
        <pt x="129" y="212" on="0"/>
        <pt x="129" y="161" on="1"/>
        <pt x="129" y="110" on="0"/>
        <pt x="166" y="63" on="0"/>
      </contour>
    </TTGlyph>
    <TTGlyph name="acircumflex" xMin="50" yMin="-10" xMax="541" yMax="760">
      <contour>
        <pt x="487" y="568" on="1"/>
        <pt x="386" y="683" on="1"/>
        <pt x="228" y="572" on="1"/>
        <pt x="193" y="613" on="1"/>
        <pt x="398" y="760" on="1"/>
        <pt x="402" y="760" on="1"/>
        <pt x="541" y="610" on="1"/>
      </contour>
      <contour>
        <pt x="391" y="-10" on="1"/>
        <pt x="363" y="-10" on="0"/>
        <pt x="338" y="30" on="0"/>
        <pt x="338" y="64" on="1"/>
        <pt x="338" y="71" on="0"/>
        <pt x="339" y="87" on="0"/>
        <pt x="340" y="95" on="1"/>
        <pt x="297" y="52" on="0"/>
        <pt x="196" y="-10" on="0"/>
        <pt x="154" y="-10" on="1"/>
        <pt x="109" y="-10" on="0"/>
        <pt x="50" y="66" on="0"/>
        <pt x="50" y="143" on="1"/>
        <pt x="50" y="211" on="0"/>
        <pt x="94" y="341" on="0"/>
        <pt x="172" y="440" on="0"/>
        <pt x="282" y="500" on="0"/>
        <pt x="348" y="500" on="1"/>
        <pt x="379" y="500" on="0"/>
        <pt x="450" y="489" on="0"/>
        <pt x="488" y="479" on="1"/>
        <pt x="419" y="127" on="1"/>
        <pt x="417" y="114" on="0"/>
        <pt x="413" y="93" on="0"/>
        <pt x="413" y="86" on="1"/>
        <pt x="413" y="73" on="0"/>
        <pt x="424" y="59" on="0"/>
        <pt x="437" y="59" on="1"/>
        <pt x="447" y="59" on="0"/>
        <pt x="481" y="68" on="0"/>
        <pt x="505" y="77" on="1"/>
        <pt x="513" y="37" on="1"/>
        <pt x="472" y="13" on="0"/>
        <pt x="412" y="-10" on="0"/>
      </contour>
      <contour>
        <pt x="193" y="63" on="1"/>
        <pt x="224" y="63" on="0"/>
        <pt x="311" y="116" on="0"/>
        <pt x="348" y="153" on="1"/>
        <pt x="352" y="172" on="0"/>
        <pt x="365" y="238" on="0"/>
        <pt x="379" y="313" on="0"/>
        <pt x="394" y="389" on="0"/>
        <pt x="400" y="417" on="1"/>
        <pt x="373" y="425" on="0"/>
        <pt x="323" y="433" on="0"/>
        <pt x="306" y="433" on="1"/>
        <pt x="269" y="433" on="0"/>
        <pt x="205" y="386" on="0"/>
        <pt x="157" y="310" on="0"/>
        <pt x="129" y="212" on="0"/>
        <pt x="129" y="161" on="1"/>
        <pt x="129" y="110" on="0"/>
        <pt x="166" y="63" on="0"/>
      </contour>
    </TTGlyph>
    <TTGlyph name="acute" xMin="161" yMin="558" xMax="432" yMax="762">
      <contour>
        <pt x="161" y="593" on="1"/>
        <pt x="185" y="608" on="0"/>
        <pt x="243" y="648" on="0"/>
        <pt x="301" y="694" on="0"/>
        <pt x="356" y="741" on="0"/>
        <pt x="377" y="762" on="1"/>
        <pt x="432" y="699" on="1"/>
        <pt x="407" y="680" on="0"/>
        <pt x="342" y="640" on="0"/>
        <pt x="273" y="603" on="0"/>
        <pt x="205" y="570" on="0"/>
        <pt x="177" y="558" on="1"/>
      </contour>
    </TTGlyph>
    <TTGlyph name="adieresis" xMin="50" yMin="-10" xMax="542" yMax="716">
      <contour>
        <pt x="502" y="583" on="1"/>
        <pt x="421" y="582" on="1"/>
        <pt x="452" y="714" on="1"/>
        <pt x="542" y="716" on="1"/>
      </contour>
      <contour>
        <pt x="287" y="581" on="1"/>
        <pt x="206" y="580" on="1"/>
        <pt x="238" y="712" on="1"/>
        <pt x="327" y="713" on="1"/>
      </contour>
      <contour>
        <pt x="391" y="-10" on="1"/>
        <pt x="363" y="-10" on="0"/>
        <pt x="338" y="30" on="0"/>
        <pt x="338" y="64" on="1"/>
        <pt x="338" y="71" on="0"/>
        <pt x="339" y="87" on="0"/>
        <pt x="340" y="95" on="1"/>
        <pt x="297" y="52" on="0"/>
        <pt x="196" y="-10" on="0"/>
        <pt x="154" y="-10" on="1"/>
        <pt x="109" y="-10" on="0"/>
        <pt x="50" y="66" on="0"/>
        <pt x="50" y="143" on="1"/>
        <pt x="50" y="211" on="0"/>
        <pt x="94" y="341" on="0"/>
        <pt x="172" y="440" on="0"/>
        <pt x="282" y="500" on="0"/>
        <pt x="348" y="500" on="1"/>
        <pt x="379" y="500" on="0"/>
        <pt x="450" y="489" on="0"/>
        <pt x="488" y="479" on="1"/>
        <pt x="419" y="127" on="1"/>
        <pt x="417" y="114" on="0"/>
        <pt x="413" y="93" on="0"/>
        <pt x="413" y="86" on="1"/>
        <pt x="413" y="73" on="0"/>
        <pt x="424" y="59" on="0"/>
        <pt x="437" y="59" on="1"/>
        <pt x="447" y="59" on="0"/>
        <pt x="481" y="68" on="0"/>
        <pt x="505" y="77" on="1"/>
        <pt x="513" y="37" on="1"/>
        <pt x="472" y="13" on="0"/>
        <pt x="412" y="-10" on="0"/>
      </contour>
      <contour>
        <pt x="193" y="63" on="1"/>
        <pt x="224" y="63" on="0"/>
        <pt x="311" y="116" on="0"/>
        <pt x="348" y="153" on="1"/>
        <pt x="352" y="172" on="0"/>
        <pt x="365" y="238" on="0"/>
        <pt x="379" y="313" on="0"/>
        <pt x="394" y="389" on="0"/>
        <pt x="400" y="417" on="1"/>
        <pt x="373" y="425" on="0"/>
        <pt x="323" y="433" on="0"/>
        <pt x="306" y="433" on="1"/>
        <pt x="269" y="433" on="0"/>
        <pt x="205" y="386" on="0"/>
        <pt x="157" y="310" on="0"/>
        <pt x="129" y="212" on="0"/>
        <pt x="129" y="161" on="1"/>
        <pt x="129" y="110" on="0"/>
        <pt x="166" y="63" on="0"/>
      </contour>
    </TTGlyph>
    <TTGlyph name="ae" xMin="33" yMin="-7" xMax="556" yMax="499">
      <contour>
        <pt x="350" y="-7" on="1"/>
        <pt x="309" y="-7" on="0"/>
        <pt x="259" y="42" on="0"/>
        <pt x="249" y="83" on="1"/>
        <pt x="218" y="44" on="0"/>
        <pt x="147" y="-7" on="0"/>
        <pt x="110" y="-7" on="1"/>
        <pt x="74" y="-7" on="0"/>
        <pt x="33" y="57" on="0"/>
        <pt x="33" y="123" on="1"/>
        <pt x="33" y="192" on="0"/>
        <pt x="69" y="326" on="0"/>
        <pt x="131" y="431" on="0"/>
        <pt x="215" y="496" on="0"/>
        <pt x="264" y="496" on="1"/>
        <pt x="292" y="496" on="0"/>
        <pt x="346" y="478" on="0"/>
        <pt x="371" y="462" on="1"/>
        <pt x="392" y="479" on="0"/>
        <pt x="440" y="499" on="0"/>
        <pt x="465" y="499" on="1"/>
        <pt x="509" y="499" on="0"/>
        <pt x="556" y="445" on="0"/>
        <pt x="556" y="401" on="1"/>
        <pt x="556" y="364" on="0"/>
        <pt x="526" y="294" on="0"/>
        <pt x="468" y="236" on="0"/>
        <pt x="378" y="195" on="0"/>
        <pt x="318" y="187" on="1"/>
        <pt x="317" y="179" on="0"/>
        <pt x="317" y="162" on="0"/>
        <pt x="317" y="154" on="1"/>
        <pt x="317" y="108" on="0"/>
        <pt x="347" y="60" on="0"/>
        <pt x="383" y="60" on="1"/>
        <pt x="405" y="60" on="0"/>
        <pt x="466" y="79" on="0"/>
        <pt x="506" y="98" on="1"/>
        <pt x="514" y="57" on="1"/>
        <pt x="463" y="23" on="0"/>
        <pt x="381" y="-7" on="0"/>
      </contour>
      <contour>
        <pt x="445" y="434" on="1"/>
        <pt x="424" y="434" on="0"/>
        <pt x="386" y="399" on="0"/>
        <pt x="355" y="343" on="0"/>
        <pt x="331" y="270" on="0"/>
        <pt x="324" y="232" on="1"/>
        <pt x="364" y="239" on="0"/>
        <pt x="423" y="272" on="0"/>
        <pt x="463" y="315" on="0"/>
        <pt x="483" y="364" on="0"/>
        <pt x="483" y="387" on="1"/>
        <pt x="483" y="409" on="0"/>
        <pt x="464" y="434" on="0"/>
      </contour>
      <contour>
        <pt x="147" y="64" on="1"/>
        <pt x="169" y="64" on="0"/>
        <pt x="218" y="109" on="0"/>
        <pt x="243" y="142" on="1"/>
        <pt x="243" y="215" on="0"/>
        <pt x="285" y="355" on="0"/>
        <pt x="320" y="406" on="1"/>
        <pt x="299" y="422" on="0"/>
        <pt x="263" y="433" on="0"/>
        <pt x="248" y="433" on="1"/>
        <pt x="219" y="433" on="0"/>
        <pt x="169" y="380" on="0"/>
        <pt x="133" y="296" on="0"/>
        <pt x="112" y="192" on="0"/>
        <pt x="112" y="142" on="1"/>
        <pt x="112" y="103" on="0"/>
        <pt x="130" y="64" on="0"/>
      </contour>
    </TTGlyph>
    <TTGlyph name="aeacute" xMin="33" yMin="-7" xMax="556" yMax="766">
      <contour>
        <pt x="245" y="597" on="1"/>
        <pt x="269" y="612" on="0"/>
        <pt x="327" y="652" on="0"/>
        <pt x="385" y="698" on="0"/>
        <pt x="440" y="745" on="0"/>
        <pt x="461" y="766" on="1"/>
        <pt x="516" y="703" on="1"/>
        <pt x="491" y="684" on="0"/>
        <pt x="426" y="644" on="0"/>
        <pt x="357" y="607" on="0"/>
        <pt x="289" y="574" on="0"/>
        <pt x="261" y="562" on="1"/>
      </contour>
      <contour>
        <pt x="350" y="-7" on="1"/>
        <pt x="309" y="-7" on="0"/>
        <pt x="259" y="42" on="0"/>
        <pt x="249" y="83" on="1"/>
        <pt x="218" y="44" on="0"/>
        <pt x="147" y="-7" on="0"/>
        <pt x="110" y="-7" on="1"/>
        <pt x="74" y="-7" on="0"/>
        <pt x="33" y="57" on="0"/>
        <pt x="33" y="123" on="1"/>
        <pt x="33" y="192" on="0"/>
        <pt x="69" y="326" on="0"/>
        <pt x="131" y="431" on="0"/>
        <pt x="215" y="496" on="0"/>
        <pt x="264" y="496" on="1"/>
        <pt x="292" y="496" on="0"/>
        <pt x="346" y="478" on="0"/>
        <pt x="371" y="462" on="1"/>
        <pt x="392" y="479" on="0"/>
        <pt x="440" y="499" on="0"/>
        <pt x="465" y="499" on="1"/>
        <pt x="509" y="499" on="0"/>
        <pt x="556" y="445" on="0"/>
        <pt x="556" y="401" on="1"/>
        <pt x="556" y="364" on="0"/>
        <pt x="526" y="294" on="0"/>
        <pt x="468" y="236" on="0"/>
        <pt x="378" y="195" on="0"/>
        <pt x="318" y="187" on="1"/>
        <pt x="317" y="179" on="0"/>
        <pt x="317" y="162" on="0"/>
        <pt x="317" y="154" on="1"/>
        <pt x="317" y="108" on="0"/>
        <pt x="347" y="60" on="0"/>
        <pt x="383" y="60" on="1"/>
        <pt x="405" y="60" on="0"/>
        <pt x="466" y="79" on="0"/>
        <pt x="506" y="98" on="1"/>
        <pt x="514" y="57" on="1"/>
        <pt x="463" y="23" on="0"/>
        <pt x="381" y="-7" on="0"/>
      </contour>
      <contour>
        <pt x="445" y="434" on="1"/>
        <pt x="424" y="434" on="0"/>
        <pt x="386" y="399" on="0"/>
        <pt x="355" y="343" on="0"/>
        <pt x="331" y="270" on="0"/>
        <pt x="324" y="232" on="1"/>
        <pt x="364" y="239" on="0"/>
        <pt x="423" y="272" on="0"/>
        <pt x="463" y="315" on="0"/>
        <pt x="483" y="364" on="0"/>
        <pt x="483" y="387" on="1"/>
        <pt x="483" y="409" on="0"/>
        <pt x="464" y="434" on="0"/>
      </contour>
      <contour>
        <pt x="147" y="64" on="1"/>
        <pt x="169" y="64" on="0"/>
        <pt x="218" y="109" on="0"/>
        <pt x="243" y="142" on="1"/>
        <pt x="243" y="215" on="0"/>
        <pt x="285" y="355" on="0"/>
        <pt x="320" y="406" on="1"/>
        <pt x="299" y="422" on="0"/>
        <pt x="263" y="433" on="0"/>
        <pt x="248" y="433" on="1"/>
        <pt x="219" y="433" on="0"/>
        <pt x="169" y="380" on="0"/>
        <pt x="133" y="296" on="0"/>
        <pt x="112" y="192" on="0"/>
        <pt x="112" y="142" on="1"/>
        <pt x="112" y="103" on="0"/>
        <pt x="130" y="64" on="0"/>
      </contour>
    </TTGlyph>
    <TTGlyph name="agrave" xMin="50" yMin="-10" xMax="513" yMax="777">
      <contour>
        <pt x="481" y="595" on="1"/>
        <pt x="461" y="562" on="1"/>
        <pt x="437" y="574" on="0"/>
        <pt x="379" y="610" on="0"/>
        <pt x="319" y="652" on="0"/>
        <pt x="263" y="695" on="0"/>
        <pt x="241" y="715" on="1"/>
        <pt x="294" y="777" on="1"/>
        <pt x="331" y="733" on="0"/>
        <pt x="438" y="628" on="0"/>
      </contour>
      <contour>
        <pt x="391" y="-10" on="1"/>
        <pt x="363" y="-10" on="0"/>
        <pt x="338" y="30" on="0"/>
        <pt x="338" y="64" on="1"/>
        <pt x="338" y="71" on="0"/>
        <pt x="339" y="87" on="0"/>
        <pt x="340" y="95" on="1"/>
        <pt x="297" y="52" on="0"/>
        <pt x="196" y="-10" on="0"/>
        <pt x="154" y="-10" on="1"/>
        <pt x="109" y="-10" on="0"/>
        <pt x="50" y="66" on="0"/>
        <pt x="50" y="143" on="1"/>
        <pt x="50" y="211" on="0"/>
        <pt x="94" y="341" on="0"/>
        <pt x="172" y="440" on="0"/>
        <pt x="282" y="500" on="0"/>
        <pt x="348" y="500" on="1"/>
        <pt x="379" y="500" on="0"/>
        <pt x="450" y="489" on="0"/>
        <pt x="488" y="479" on="1"/>
        <pt x="419" y="127" on="1"/>
        <pt x="417" y="114" on="0"/>
        <pt x="413" y="93" on="0"/>
        <pt x="413" y="86" on="1"/>
        <pt x="413" y="73" on="0"/>
        <pt x="424" y="59" on="0"/>
        <pt x="437" y="59" on="1"/>
        <pt x="447" y="59" on="0"/>
        <pt x="481" y="68" on="0"/>
        <pt x="505" y="77" on="1"/>
        <pt x="513" y="37" on="1"/>
        <pt x="472" y="13" on="0"/>
        <pt x="412" y="-10" on="0"/>
      </contour>
      <contour>
        <pt x="193" y="63" on="1"/>
        <pt x="224" y="63" on="0"/>
        <pt x="311" y="116" on="0"/>
        <pt x="348" y="153" on="1"/>
        <pt x="352" y="172" on="0"/>
        <pt x="365" y="238" on="0"/>
        <pt x="379" y="313" on="0"/>
        <pt x="394" y="389" on="0"/>
        <pt x="400" y="417" on="1"/>
        <pt x="373" y="425" on="0"/>
        <pt x="323" y="433" on="0"/>
        <pt x="306" y="433" on="1"/>
        <pt x="269" y="433" on="0"/>
        <pt x="205" y="386" on="0"/>
        <pt x="157" y="310" on="0"/>
        <pt x="129" y="212" on="0"/>
        <pt x="129" y="161" on="1"/>
        <pt x="129" y="110" on="0"/>
        <pt x="166" y="63" on="0"/>
      </contour>
    </TTGlyph>
    <TTGlyph name="amacron" xMin="50" yMin="-10" xMax="546" yMax="683">
      <contour>
        <pt x="546" y="683" on="1"/>
        <pt x="533" y="617" on="1"/>
        <pt x="203" y="617" on="1"/>
        <pt x="216" y="683" on="1"/>
      </contour>
      <contour>
        <pt x="391" y="-10" on="1"/>
        <pt x="363" y="-10" on="0"/>
        <pt x="338" y="30" on="0"/>
        <pt x="338" y="64" on="1"/>
        <pt x="338" y="71" on="0"/>
        <pt x="339" y="87" on="0"/>
        <pt x="340" y="95" on="1"/>
        <pt x="297" y="52" on="0"/>
        <pt x="196" y="-10" on="0"/>
        <pt x="154" y="-10" on="1"/>
        <pt x="109" y="-10" on="0"/>
        <pt x="50" y="66" on="0"/>
        <pt x="50" y="143" on="1"/>
        <pt x="50" y="211" on="0"/>
        <pt x="94" y="341" on="0"/>
        <pt x="172" y="440" on="0"/>
        <pt x="282" y="500" on="0"/>
        <pt x="348" y="500" on="1"/>
        <pt x="379" y="500" on="0"/>
        <pt x="450" y="489" on="0"/>
        <pt x="488" y="479" on="1"/>
        <pt x="419" y="127" on="1"/>
        <pt x="417" y="114" on="0"/>
        <pt x="413" y="93" on="0"/>
        <pt x="413" y="86" on="1"/>
        <pt x="413" y="73" on="0"/>
        <pt x="424" y="59" on="0"/>
        <pt x="437" y="59" on="1"/>
        <pt x="447" y="59" on="0"/>
        <pt x="481" y="68" on="0"/>
        <pt x="505" y="77" on="1"/>
        <pt x="513" y="37" on="1"/>
        <pt x="472" y="13" on="0"/>
        <pt x="412" y="-10" on="0"/>
      </contour>
      <contour>
        <pt x="193" y="63" on="1"/>
        <pt x="224" y="63" on="0"/>
        <pt x="311" y="116" on="0"/>
        <pt x="348" y="153" on="1"/>
        <pt x="352" y="172" on="0"/>
        <pt x="365" y="238" on="0"/>
        <pt x="379" y="313" on="0"/>
        <pt x="394" y="389" on="0"/>
        <pt x="400" y="417" on="1"/>
        <pt x="373" y="425" on="0"/>
        <pt x="323" y="433" on="0"/>
        <pt x="306" y="433" on="1"/>
        <pt x="269" y="433" on="0"/>
        <pt x="205" y="386" on="0"/>
        <pt x="157" y="310" on="0"/>
        <pt x="129" y="212" on="0"/>
        <pt x="129" y="161" on="1"/>
        <pt x="129" y="110" on="0"/>
        <pt x="166" y="63" on="0"/>
      </contour>
    </TTGlyph>
    <TTGlyph name="ampersand" xMin="19" yMin="-19" xMax="523" yMax="640">
      <contour>
        <pt x="459" y="-19" on="1"/>
        <pt x="428" y="12" on="0"/>
        <pt x="373" y="77" on="0"/>
        <pt x="350" y="109" on="1"/>
        <pt x="293" y="51" on="0"/>
        <pt x="182" y="-10" on="0"/>
        <pt x="134" y="-10" on="1"/>
        <pt x="79" y="-10" on="0"/>
        <pt x="19" y="55" on="0"/>
        <pt x="19" y="111" on="1"/>
        <pt x="19" y="186" on="0"/>
        <pt x="131" y="348" on="0"/>
        <pt x="227" y="429" on="1"/>
        <pt x="227" y="430" on="0"/>
        <pt x="227" y="435" on="0"/>
        <pt x="227" y="436" on="1"/>
        <pt x="227" y="476" on="0"/>
        <pt x="248" y="550" on="0"/>
        <pt x="281" y="606" on="0"/>
        <pt x="322" y="640" on="0"/>
        <pt x="341" y="640" on="1"/>
        <pt x="365" y="640" on="0"/>
        <pt x="395" y="613" on="0"/>
        <pt x="395" y="588" on="1"/>
        <pt x="395" y="551" on="0"/>
        <pt x="345" y="459" on="0"/>
        <pt x="300" y="414" on="1"/>
        <pt x="306" y="365" on="0"/>
        <pt x="339" y="270" on="0"/>
        <pt x="367" y="223" on="1"/>
        <pt x="389" y="254" on="0"/>
        <pt x="435" y="330" on="0"/>
        <pt x="457" y="374" on="1"/>
        <pt x="523" y="350" on="1"/>
        <pt x="493" y="298" on="0"/>
        <pt x="433" y="207" on="0"/>
        <pt x="403" y="170" on="1"/>
        <pt x="427" y="136" on="0"/>
        <pt x="487" y="67" on="0"/>
        <pt x="522" y="32" on="1"/>
      </contour>
      <contour>
        <pt x="157" y="61" on="1"/>
        <pt x="188" y="61" on="0"/>
        <pt x="270" y="109" on="0"/>
        <pt x="316" y="159" on="1"/>
        <pt x="285" y="208" on="0"/>
        <pt x="244" y="308" on="0"/>
        <pt x="235" y="357" on="1"/>
        <pt x="174" y="297" on="0"/>
        <pt x="95" y="179" on="0"/>
        <pt x="95" y="128" on="1"/>
        <pt x="95" y="96" on="0"/>
        <pt x="129" y="61" on="0"/>
      </contour>
    </TTGlyph>
    <TTGlyph name="aogonek" xMin="50" yMin="-208" xMax="513" yMax="500">
      <contour>
        <pt x="333" y="-208" on="1"/>
        <pt x="290" y="-208" on="0"/>
        <pt x="246" y="-169" on="0"/>
        <pt x="246" y="-141" on="1"/>
        <pt x="246" y="-107" on="0"/>
        <pt x="305" y="-35" on="0"/>
        <pt x="371" y="4" on="1"/>
        <pt x="354" y="10" on="0"/>
        <pt x="338" y="42" on="0"/>
        <pt x="338" y="68" on="1"/>
        <pt x="338" y="74" on="0"/>
        <pt x="339" y="88" on="0"/>
        <pt x="340" y="95" on="1"/>
        <pt x="296" y="52" on="0"/>
        <pt x="196" y="-10" on="0"/>
        <pt x="154" y="-10" on="1"/>
        <pt x="109" y="-10" on="0"/>
        <pt x="50" y="66" on="0"/>
        <pt x="50" y="143" on="1"/>
        <pt x="50" y="211" on="0"/>
        <pt x="94" y="341" on="0"/>
        <pt x="172" y="440" on="0"/>
        <pt x="282" y="500" on="0"/>
        <pt x="348" y="500" on="1"/>
        <pt x="379" y="500" on="0"/>
        <pt x="450" y="489" on="0"/>
        <pt x="488" y="479" on="1"/>
        <pt x="419" y="127" on="1"/>
        <pt x="417" y="114" on="0"/>
        <pt x="413" y="93" on="0"/>
        <pt x="413" y="86" on="1"/>
        <pt x="413" y="73" on="0"/>
        <pt x="424" y="59" on="0"/>
        <pt x="437" y="59" on="1"/>
        <pt x="447" y="59" on="0"/>
        <pt x="481" y="68" on="0"/>
        <pt x="505" y="77" on="1"/>
        <pt x="513" y="37" on="1"/>
        <pt x="408" y="-11" on="0"/>
        <pt x="319" y="-87" on="0"/>
        <pt x="319" y="-118" on="1"/>
        <pt x="319" y="-133" on="0"/>
        <pt x="341" y="-152" on="0"/>
        <pt x="366" y="-152" on="1"/>
        <pt x="383" y="-152" on="0"/>
        <pt x="432" y="-141" on="0"/>
        <pt x="464" y="-129" on="1"/>
        <pt x="473" y="-167" on="1"/>
        <pt x="430" y="-189" on="0"/>
        <pt x="360" y="-208" on="0"/>
      </contour>
      <contour>
        <pt x="193" y="63" on="1"/>
        <pt x="224" y="63" on="0"/>
        <pt x="311" y="116" on="0"/>
        <pt x="348" y="153" on="1"/>
        <pt x="352" y="172" on="0"/>
        <pt x="365" y="238" on="0"/>
        <pt x="379" y="313" on="0"/>
        <pt x="394" y="389" on="0"/>
        <pt x="400" y="417" on="1"/>
        <pt x="373" y="425" on="0"/>
        <pt x="323" y="433" on="0"/>
        <pt x="306" y="433" on="1"/>
        <pt x="269" y="433" on="0"/>
        <pt x="205" y="386" on="0"/>
        <pt x="157" y="310" on="0"/>
        <pt x="129" y="212" on="0"/>
        <pt x="129" y="161" on="1"/>
        <pt x="129" y="110" on="0"/>
        <pt x="166" y="63" on="0"/>
      </contour>
    </TTGlyph>
    <TTGlyph name="approxequal" xMin="34" yMin="100" xMax="531" yMax="488">
      <contour>
        <pt x="378" y="313" on="1"/>
        <pt x="349" y="313" on="0"/>
        <pt x="306" y="347" on="0"/>
        <pt x="271" y="387" on="0"/>
        <pt x="239" y="421" on="0"/>
        <pt x="220" y="421" on="1"/>
        <pt x="198" y="421" on="0"/>
        <pt x="148" y="360" on="0"/>
        <pt x="119" y="314" on="1"/>
        <pt x="75" y="338" on="1"/>
        <pt x="118" y="413" on="0"/>
        <pt x="192" y="488" on="0"/>
        <pt x="235" y="488" on="1"/>
        <pt x="264" y="488" on="0"/>
        <pt x="307" y="454" on="0"/>
        <pt x="341" y="414" on="0"/>
        <pt x="372" y="380" on="0"/>
        <pt x="390" y="380" on="1"/>
        <pt x="412" y="380" on="0"/>
        <pt x="459" y="439" on="0"/>
        <pt x="487" y="483" on="1"/>
        <pt x="531" y="459" on="1"/>
        <pt x="488" y="384" on="0"/>
        <pt x="421" y="313" on="0"/>
      </contour>
      <contour>
        <pt x="337" y="100" on="1"/>
        <pt x="308" y="100" on="0"/>
        <pt x="265" y="134" on="0"/>
        <pt x="229" y="174" on="0"/>
        <pt x="197" y="208" on="0"/>
        <pt x="178" y="208" on="1"/>
        <pt x="156" y="208" on="0"/>
        <pt x="107" y="147" on="0"/>
        <pt x="78" y="101" on="1"/>
        <pt x="34" y="125" on="1"/>
        <pt x="77" y="200" on="0"/>
        <pt x="152" y="275" on="0"/>
        <pt x="195" y="275" on="1"/>
        <pt x="224" y="275" on="0"/>
        <pt x="266" y="241" on="0"/>
        <pt x="300" y="201" on="0"/>
        <pt x="331" y="167" on="0"/>
        <pt x="349" y="167" on="1"/>
        <pt x="371" y="167" on="0"/>
        <pt x="418" y="226" on="0"/>
        <pt x="446" y="270" on="1"/>
        <pt x="490" y="246" on="1"/>
        <pt x="447" y="171" on="0"/>
        <pt x="380" y="100" on="0"/>
      </contour>
    </TTGlyph>
    <TTGlyph name="aring" xMin="50" yMin="-10" xMax="513" yMax="767">
      <contour>
        <pt x="384" y="767" on="1"/>
        <pt x="439" y="767" on="0"/>
        <pt x="509" y="709" on="0"/>
        <pt x="509" y="669" on="1"/>
        <pt x="509" y="624" on="0"/>
        <pt x="429" y="557" on="0"/>
        <pt x="369" y="557" on="1"/>
        <pt x="314" y="557" on="0"/>
        <pt x="244" y="615" on="0"/>
        <pt x="244" y="656" on="1"/>
        <pt x="244" y="702" on="0"/>
        <pt x="324" y="767" on="0"/>
      </contour>
      <contour>
        <pt x="391" y="-10" on="1"/>
        <pt x="363" y="-10" on="0"/>
        <pt x="338" y="30" on="0"/>
        <pt x="338" y="64" on="1"/>
        <pt x="338" y="71" on="0"/>
        <pt x="339" y="87" on="0"/>
        <pt x="340" y="95" on="1"/>
        <pt x="297" y="52" on="0"/>
        <pt x="196" y="-10" on="0"/>
        <pt x="154" y="-10" on="1"/>
        <pt x="109" y="-10" on="0"/>
        <pt x="50" y="66" on="0"/>
        <pt x="50" y="143" on="1"/>
        <pt x="50" y="211" on="0"/>
        <pt x="94" y="341" on="0"/>
        <pt x="172" y="440" on="0"/>
        <pt x="282" y="500" on="0"/>
        <pt x="348" y="500" on="1"/>
        <pt x="379" y="500" on="0"/>
        <pt x="450" y="489" on="0"/>
        <pt x="488" y="479" on="1"/>
        <pt x="419" y="127" on="1"/>
        <pt x="417" y="114" on="0"/>
        <pt x="413" y="93" on="0"/>
        <pt x="413" y="86" on="1"/>
        <pt x="413" y="73" on="0"/>
        <pt x="424" y="59" on="0"/>
        <pt x="437" y="59" on="1"/>
        <pt x="447" y="59" on="0"/>
        <pt x="481" y="68" on="0"/>
        <pt x="505" y="77" on="1"/>
        <pt x="513" y="37" on="1"/>
        <pt x="472" y="13" on="0"/>
        <pt x="412" y="-10" on="0"/>
      </contour>
      <contour>
        <pt x="193" y="63" on="1"/>
        <pt x="224" y="63" on="0"/>
        <pt x="311" y="116" on="0"/>
        <pt x="348" y="153" on="1"/>
        <pt x="352" y="172" on="0"/>
        <pt x="365" y="238" on="0"/>
        <pt x="379" y="313" on="0"/>
        <pt x="394" y="389" on="0"/>
        <pt x="400" y="417" on="1"/>
        <pt x="373" y="425" on="0"/>
        <pt x="323" y="433" on="0"/>
        <pt x="306" y="433" on="1"/>
        <pt x="269" y="433" on="0"/>
        <pt x="205" y="386" on="0"/>
        <pt x="157" y="310" on="0"/>
        <pt x="129" y="212" on="0"/>
        <pt x="129" y="161" on="1"/>
        <pt x="129" y="110" on="0"/>
        <pt x="166" y="63" on="0"/>
      </contour>
    </TTGlyph>
    <TTGlyph name="aringacute" xMin="50" yMin="-10" xMax="571" yMax="1010">
      <contour>
        <pt x="300" y="841" on="1"/>
        <pt x="324" y="856" on="0"/>
        <pt x="382" y="896" on="0"/>
        <pt x="440" y="942" on="0"/>
        <pt x="495" y="989" on="0"/>
        <pt x="516" y="1010" on="1"/>
        <pt x="571" y="947" on="1"/>
        <pt x="546" y="928" on="0"/>
        <pt x="481" y="888" on="0"/>
        <pt x="412" y="851" on="0"/>
        <pt x="344" y="818" on="0"/>
        <pt x="316" y="806" on="1"/>
      </contour>
      <contour>
        <pt x="384" y="767" on="1"/>
        <pt x="439" y="767" on="0"/>
        <pt x="509" y="709" on="0"/>
        <pt x="509" y="669" on="1"/>
        <pt x="509" y="624" on="0"/>
        <pt x="429" y="557" on="0"/>
        <pt x="369" y="557" on="1"/>
        <pt x="314" y="557" on="0"/>
        <pt x="244" y="615" on="0"/>
        <pt x="244" y="656" on="1"/>
        <pt x="244" y="702" on="0"/>
        <pt x="324" y="767" on="0"/>
      </contour>
      <contour>
        <pt x="391" y="-10" on="1"/>
        <pt x="363" y="-10" on="0"/>
        <pt x="338" y="30" on="0"/>
        <pt x="338" y="64" on="1"/>
        <pt x="338" y="71" on="0"/>
        <pt x="339" y="87" on="0"/>
        <pt x="340" y="95" on="1"/>
        <pt x="297" y="52" on="0"/>
        <pt x="196" y="-10" on="0"/>
        <pt x="154" y="-10" on="1"/>
        <pt x="109" y="-10" on="0"/>
        <pt x="50" y="66" on="0"/>
        <pt x="50" y="143" on="1"/>
        <pt x="50" y="211" on="0"/>
        <pt x="94" y="341" on="0"/>
        <pt x="172" y="440" on="0"/>
        <pt x="282" y="500" on="0"/>
        <pt x="348" y="500" on="1"/>
        <pt x="379" y="500" on="0"/>
        <pt x="450" y="489" on="0"/>
        <pt x="488" y="479" on="1"/>
        <pt x="419" y="127" on="1"/>
        <pt x="417" y="114" on="0"/>
        <pt x="413" y="93" on="0"/>
        <pt x="413" y="86" on="1"/>
        <pt x="413" y="73" on="0"/>
        <pt x="424" y="59" on="0"/>
        <pt x="437" y="59" on="1"/>
        <pt x="447" y="59" on="0"/>
        <pt x="481" y="68" on="0"/>
        <pt x="505" y="77" on="1"/>
        <pt x="513" y="37" on="1"/>
        <pt x="472" y="13" on="0"/>
        <pt x="412" y="-10" on="0"/>
      </contour>
      <contour>
        <pt x="193" y="63" on="1"/>
        <pt x="224" y="63" on="0"/>
        <pt x="311" y="116" on="0"/>
        <pt x="348" y="153" on="1"/>
        <pt x="352" y="172" on="0"/>
        <pt x="365" y="238" on="0"/>
        <pt x="379" y="313" on="0"/>
        <pt x="394" y="389" on="0"/>
        <pt x="400" y="417" on="1"/>
        <pt x="373" y="425" on="0"/>
        <pt x="323" y="433" on="0"/>
        <pt x="306" y="433" on="1"/>
        <pt x="269" y="433" on="0"/>
        <pt x="205" y="386" on="0"/>
        <pt x="157" y="310" on="0"/>
        <pt x="129" y="212" on="0"/>
        <pt x="129" y="161" on="1"/>
        <pt x="129" y="110" on="0"/>
        <pt x="166" y="63" on="0"/>
      </contour>
    </TTGlyph>
    <TTGlyph name="asciicircum" xMin="48" yMin="156" xMax="499" yMax="496">
      <contour>
        <pt x="434" y="158" on="1"/>
        <pt x="298" y="391" on="1"/>
        <pt x="98" y="156" on="1"/>
        <pt x="48" y="199" on="1"/>
        <pt x="303" y="493" on="1"/>
        <pt x="320" y="496" on="1"/>
        <pt x="499" y="199" on="1"/>
      </contour>
    </TTGlyph>
    <TTGlyph name="asciitilde" xMin="39" yMin="197" xMax="540" yMax="413">
      <contour>
        <pt x="375" y="197" on="1"/>
        <pt x="344" y="197" on="0"/>
        <pt x="294" y="242" on="0"/>
        <pt x="251" y="295" on="0"/>
        <pt x="213" y="340" on="0"/>
        <pt x="193" y="340" on="1"/>
        <pt x="168" y="340" on="0"/>
        <pt x="114" y="263" on="0"/>
        <pt x="89" y="204" on="1"/>
        <pt x="39" y="226" on="1"/>
        <pt x="77" y="315" on="0"/>
        <pt x="160" y="413" on="0"/>
        <pt x="206" y="413" on="1"/>
        <pt x="237" y="413" on="0"/>
        <pt x="286" y="368" on="0"/>
        <pt x="328" y="315" on="0"/>
        <pt x="365" y="270" on="0"/>
        <pt x="384" y="270" on="1"/>
        <pt x="408" y="270" on="0"/>
        <pt x="463" y="347" on="0"/>
        <pt x="489" y="406" on="1"/>
        <pt x="540" y="383" on="1"/>
        <pt x="500" y="293" on="0"/>
        <pt x="420" y="197" on="0"/>
      </contour>
    </TTGlyph>
    <TTGlyph name="asterisk" xMin="116" yMin="263" xMax="530" yMax="691">
      <contour>
        <pt x="363" y="263" on="1"/>
        <pt x="291" y="401" on="1"/>
        <pt x="156" y="322" on="1"/>
        <pt x="125" y="361" on="1"/>
        <pt x="235" y="471" on="1"/>
        <pt x="116" y="576" on="1"/>
        <pt x="144" y="617" on="1"/>
        <pt x="282" y="546" on="1"/>
        <pt x="346" y="691" on="1"/>
        <pt x="395" y="678" on="1"/>
        <pt x="372" y="522" on="1"/>
        <pt x="528" y="507" on="1"/>
        <pt x="530" y="458" on="1"/>
        <pt x="374" y="433" on="1"/>
        <pt x="409" y="281" on="1"/>
      </contour>
    </TTGlyph>
    <TTGlyph name="asterisk.alt" xMin="94" yMin="258" xMax="531" yMax="695">
      <contour>
        <pt x="352" y="546" on="1"/>
        <pt x="313" y="555" on="1"/>
        <pt x="332" y="695" on="1"/>
        <pt x="405" y="676" on="1"/>
      </contour>
      <contour>
        <pt x="273" y="546" on="1"/>
        <pt x="245" y="517" on="1"/>
        <pt x="133" y="602" on="1"/>
        <pt x="187" y="656" on="1"/>
      </contour>
      <contour>
        <pt x="392" y="476" on="1"/>
        <pt x="380" y="516" on="1"/>
        <pt x="511" y="569" on="1"/>
        <pt x="531" y="497" on="1"/>
      </contour>
      <contour>
        <pt x="233" y="477" on="1"/>
        <pt x="245" y="438" on="1"/>
        <pt x="115" y="384" on="1"/>
        <pt x="94" y="457" on="1"/>
      </contour>
      <contour>
        <pt x="353" y="407" on="1"/>
        <pt x="381" y="437" on="1"/>
        <pt x="492" y="351" on="1"/>
        <pt x="440" y="297" on="1"/>
      </contour>
      <contour>
        <pt x="274" y="407" on="1"/>
        <pt x="312" y="398" on="1"/>
        <pt x="294" y="258" on="1"/>
        <pt x="221" y="277" on="1"/>
      </contour>
    </TTGlyph>
    <TTGlyph name="at" xMin="49" yMin="-156" xMax="555" yMax="683">
      <contour>
        <pt x="288" y="-156" on="1"/>
        <pt x="161" y="-156" on="0"/>
        <pt x="49" y="-6" on="0"/>
        <pt x="49" y="124" on="1"/>
        <pt x="49" y="229" on="0"/>
        <pt x="106" y="431" on="0"/>
        <pt x="203" y="587" on="0"/>
        <pt x="337" y="683" on="0"/>
        <pt x="413" y="683" on="1"/>
        <pt x="483" y="683" on="0"/>
        <pt x="555" y="603" on="0"/>
        <pt x="555" y="526" on="1"/>
        <pt x="555" y="506" on="0"/>
        <pt x="549" y="458" on="0"/>
        <pt x="544" y="432" on="1"/>
        <pt x="503" y="232" on="1"/>
        <pt x="496" y="195" on="0"/>
        <pt x="481" y="106" on="0"/>
        <pt x="475" y="64" on="1"/>
        <pt x="408" y="65" on="1"/>
        <pt x="413" y="117" on="1"/>
        <pt x="386" y="92" on="0"/>
        <pt x="325" y="58" on="0"/>
        <pt x="299" y="58" on="1"/>
        <pt x="267" y="58" on="0"/>
        <pt x="226" y="120" on="0"/>
        <pt x="226" y="184" on="1"/>
        <pt x="226" y="237" on="0"/>
        <pt x="255" y="343" on="0"/>
        <pt x="309" y="427" on="0"/>
        <pt x="386" y="479" on="0"/>
        <pt x="433" y="479" on="1"/>
        <pt x="443" y="479" on="0"/>
        <pt x="469" y="477" on="0"/>
        <pt x="482" y="475" on="1"/>
        <pt x="484" y="488" on="0"/>
        <pt x="486" y="511" on="0"/>
        <pt x="486" y="522" on="1"/>
        <pt x="486" y="571" on="0"/>
        <pt x="443" y="622" on="0"/>
        <pt x="399" y="622" on="1"/>
        <pt x="345" y="622" on="0"/>
        <pt x="242" y="538" on="0"/>
        <pt x="163" y="402" on="0"/>
        <pt x="115" y="223" on="0"/>
        <pt x="115" y="129" on="1"/>
        <pt x="115" y="23" on="0"/>
        <pt x="201" y="-94" on="0"/>
        <pt x="302" y="-94" on="1"/>
        <pt x="327" y="-94" on="0"/>
        <pt x="384" y="-86" on="0"/>
        <pt x="416" y="-79" on="1"/>
        <pt x="407" y="-142" on="1"/>
        <pt x="374" y="-149" on="0"/>
        <pt x="314" y="-156" on="0"/>
      </contour>
      <contour>
        <pt x="334" y="125" on="1"/>
        <pt x="350" y="125" on="0"/>
        <pt x="398" y="147" on="0"/>
        <pt x="420" y="166" on="1"/>
        <pt x="469" y="406" on="1"/>
        <pt x="452" y="412" on="0"/>
        <pt x="418" y="419" on="0"/>
        <pt x="406" y="419" on="1"/>
        <pt x="385" y="419" on="0"/>
        <pt x="344" y="378" on="0"/>
        <pt x="313" y="314" on="0"/>
        <pt x="294" y="235" on="0"/>
        <pt x="294" y="198" on="1"/>
        <pt x="294" y="159" on="0"/>
        <pt x="318" y="125" on="0"/>
      </contour>
    </TTGlyph>
    <TTGlyph name="atilde" xMin="50" yMin="-10" xMax="585" yMax="741">
      <contour>
        <pt x="451" y="638" on="1"/>
        <pt x="471" y="638" on="0"/>
        <pt x="518" y="695" on="0"/>
        <pt x="545" y="738" on="1"/>
        <pt x="585" y="714" on="1"/>
        <pt x="548" y="651" on="0"/>
        <pt x="473" y="578" on="0"/>
        <pt x="435" y="578" on="1"/>
        <pt x="410" y="578" on="0"/>
        <pt x="374" y="610" on="0"/>
        <pt x="345" y="648" on="0"/>
        <pt x="318" y="680" on="0"/>
        <pt x="302" y="680" on="1"/>
        <pt x="282" y="680" on="0"/>
        <pt x="236" y="628" on="0"/>
        <pt x="208" y="585" on="1"/>
        <pt x="168" y="608" on="1"/>
        <pt x="205" y="671" on="0"/>
        <pt x="281" y="741" on="0"/>
        <pt x="318" y="741" on="1"/>
        <pt x="343" y="741" on="0"/>
        <pt x="379" y="709" on="0"/>
        <pt x="408" y="670" on="0"/>
        <pt x="435" y="638" on="0"/>
      </contour>
      <contour>
        <pt x="391" y="-10" on="1"/>
        <pt x="363" y="-10" on="0"/>
        <pt x="338" y="30" on="0"/>
        <pt x="338" y="64" on="1"/>
        <pt x="338" y="71" on="0"/>
        <pt x="339" y="87" on="0"/>
        <pt x="340" y="95" on="1"/>
        <pt x="297" y="52" on="0"/>
        <pt x="196" y="-10" on="0"/>
        <pt x="154" y="-10" on="1"/>
        <pt x="109" y="-10" on="0"/>
        <pt x="50" y="66" on="0"/>
        <pt x="50" y="143" on="1"/>
        <pt x="50" y="211" on="0"/>
        <pt x="94" y="341" on="0"/>
        <pt x="172" y="440" on="0"/>
        <pt x="282" y="500" on="0"/>
        <pt x="348" y="500" on="1"/>
        <pt x="379" y="500" on="0"/>
        <pt x="450" y="489" on="0"/>
        <pt x="488" y="479" on="1"/>
        <pt x="419" y="127" on="1"/>
        <pt x="417" y="114" on="0"/>
        <pt x="413" y="93" on="0"/>
        <pt x="413" y="86" on="1"/>
        <pt x="413" y="73" on="0"/>
        <pt x="424" y="59" on="0"/>
        <pt x="437" y="59" on="1"/>
        <pt x="447" y="59" on="0"/>
        <pt x="481" y="68" on="0"/>
        <pt x="505" y="77" on="1"/>
        <pt x="513" y="37" on="1"/>
        <pt x="472" y="13" on="0"/>
        <pt x="412" y="-10" on="0"/>
      </contour>
      <contour>
        <pt x="193" y="63" on="1"/>
        <pt x="224" y="63" on="0"/>
        <pt x="311" y="116" on="0"/>
        <pt x="348" y="153" on="1"/>
        <pt x="352" y="172" on="0"/>
        <pt x="365" y="238" on="0"/>
        <pt x="379" y="313" on="0"/>
        <pt x="394" y="389" on="0"/>
        <pt x="400" y="417" on="1"/>
        <pt x="373" y="425" on="0"/>
        <pt x="323" y="433" on="0"/>
        <pt x="306" y="433" on="1"/>
        <pt x="269" y="433" on="0"/>
        <pt x="205" y="386" on="0"/>
        <pt x="157" y="310" on="0"/>
        <pt x="129" y="212" on="0"/>
        <pt x="129" y="161" on="1"/>
        <pt x="129" y="110" on="0"/>
        <pt x="166" y="63" on="0"/>
      </contour>
    </TTGlyph>
    <TTGlyph name="b" xMin="54" yMin="-10" xMax="499" yMax="703">
      <contour>
        <pt x="201" y="-10" on="1"/>
        <pt x="168" y="-10" on="0"/>
        <pt x="90" y="4" on="0"/>
        <pt x="54" y="14" on="1"/>
        <pt x="187" y="697" on="1"/>
        <pt x="264" y="703" on="1"/>
        <pt x="205" y="401" on="1"/>
        <pt x="248" y="442" on="0"/>
        <pt x="347" y="502" on="0"/>
        <pt x="388" y="502" on="1"/>
        <pt x="436" y="502" on="0"/>
        <pt x="499" y="420" on="0"/>
        <pt x="499" y="338" on="1"/>
        <pt x="499" y="271" on="0"/>
        <pt x="455" y="145" on="0"/>
        <pt x="377" y="48" on="0"/>
        <pt x="267" y="-10" on="0"/>
      </contour>
      <contour>
        <pt x="242" y="56" on="1"/>
        <pt x="279" y="56" on="0"/>
        <pt x="344" y="101" on="0"/>
        <pt x="393" y="174" on="0"/>
        <pt x="421" y="269" on="0"/>
        <pt x="421" y="319" on="1"/>
        <pt x="421" y="376" on="0"/>
        <pt x="379" y="430" on="0"/>
        <pt x="351" y="430" on="1"/>
        <pt x="317" y="430" on="0"/>
        <pt x="229" y="374" on="0"/>
        <pt x="193" y="337" on="1"/>
        <pt x="142" y="73" on="1"/>
        <pt x="171" y="65" on="0"/>
        <pt x="223" y="56" on="0"/>
      </contour>
    </TTGlyph>
    <TTGlyph name="backslash" xMin="107" yMin="-186" xMax="449" yMax="718">
      <contour>
        <pt x="172" y="718" on="1"/>
        <pt x="449" y="-166" on="1"/>
        <pt x="383" y="-186" on="1"/>
        <pt x="107" y="697" on="1"/>
      </contour>
    </TTGlyph>
</ttFont>
